<svg width="8" height="8" viewBox="0 0 8 8" fill="none" xmlns="http://www.w3.org/2000/svg">
<g clip-path="url(#clip0_12413_88063)">
<path d="M7.46645 5.61861L6.67082 2.75094C6.50092 2.13751 6.13072 1.59853 5.61914 1.21979C5.10756 0.841046 4.484 0.644306 3.84769 0.66088C3.21139 0.677453 2.59891 0.906388 2.10774 1.31125C1.61657 1.71611 1.27493 2.27363 1.1372 2.89507L0.521807 5.66451C0.49203 5.79868 0.492756 5.93782 0.523933 6.07167C0.555109 6.20552 0.61594 6.33067 0.701937 6.43787C0.787934 6.54508 0.896903 6.6316 1.0208 6.69107C1.14471 6.75054 1.28038 6.78143 1.41781 6.78146H2.5216C2.59183 7.12735 2.77948 7.43832 3.05276 7.66168C3.32603 7.88504 3.66812 8.00706 4.02106 8.00706C4.374 8.00706 4.71609 7.88504 4.98936 7.66168C5.26263 7.43832 5.45028 7.12735 5.52052 6.78146H6.58238C6.72379 6.7814 6.86328 6.74867 6.98995 6.68582C7.11663 6.62297 7.22708 6.53171 7.31268 6.41915C7.39829 6.3066 7.45673 6.17578 7.48346 6.03692C7.51018 5.89806 7.50416 5.7549 7.46645 5.61861ZM4.02106 7.39349C3.83186 7.39271 3.64753 7.33349 3.49328 7.22393C3.33903 7.11438 3.22239 6.95984 3.15933 6.78146H4.88279C4.81972 6.95984 4.70309 7.11438 4.54884 7.22393C4.39459 7.33349 4.21025 7.39271 4.02106 7.39349ZM6.82566 6.04856C6.79711 6.0864 6.7601 6.11705 6.7176 6.13804C6.67509 6.15903 6.62826 6.16978 6.58085 6.16943H1.41781C1.37199 6.16942 1.32675 6.15913 1.28544 6.1393C1.24414 6.11947 1.20781 6.09062 1.17914 6.05487C1.15047 6.01912 1.1302 5.9774 1.11981 5.93277C1.10943 5.88813 1.1092 5.84174 1.11914 5.79701L1.73453 3.02757C1.84297 2.53985 2.11133 2.10237 2.49695 1.78468C2.88257 1.46699 3.36332 1.28732 3.86278 1.27424C4.36224 1.26115 4.85174 1.4154 5.25346 1.71247C5.65519 2.00953 5.94608 2.43236 6.07991 2.91374L6.87554 5.78141C6.88853 5.82675 6.89079 5.8745 6.88213 5.92087C6.87347 5.96724 6.85414 6.01095 6.82566 6.04856Z" fill="#D3DAE1"/>
</g>
<defs>
<clipPath id="clip0_12413_88063">
<rect width="8" height="8" fill="white"/>
</clipPath>
</defs>
</svg>
