<svg width="82" height="32" viewBox="0 0 82 32" fill="none" xmlns="http://www.w3.org/2000/svg">
<g clip-path="url(#clip0_4263_52178)">
<path d="M3.88258 29.4926H5.42175C5.71162 29.4967 5.94433 29.2926 5.94433 29.0395C5.94433 28.7863 5.71978 28.5822 5.42175 28.5822L3.0293 28.5781V30.3949L3.4294 29.7335C3.53147 29.5825 3.70294 29.4926 3.88258 29.4926Z" fill="white"/>
<path d="M3.88258 27.6763H5.44216C5.71978 27.6763 5.94841 27.5497 5.94841 27.3334C5.94841 27.117 5.72386 26.9863 5.44216 26.9863H3.0293V28.5786L3.4294 27.9172C3.53147 27.7661 3.70294 27.6763 3.88258 27.6763Z" fill="white"/>
<path d="M0 0V32.0245H32.0245V0H0ZM10.2598 10.2598H17.135C18.911 10.2598 21.7648 10.5455 21.7648 13.2809C21.7648 14.6241 20.7686 15.5754 19.6091 15.9183C21.0544 16.4328 21.7648 17.3759 21.7648 18.6701C21.7648 21.4912 19.0539 21.7607 17.135 21.7688H14.8038V19.9316C14.8038 18.9314 15.6652 18.9436 15.6652 18.9436L17.7678 18.9395C18.2618 18.9354 18.4251 18.5435 18.4251 18.5435L19.1763 17.0737L15.6734 17.0901C14.8773 17.1636 14.8079 18.1067 14.8079 18.1067V15.6897C14.8079 14.6037 15.7101 14.5711 15.7101 14.5711H18.3271C18.8742 14.5711 19.0294 14.2404 19.0294 14.2404L19.8214 12.7053H12.6645V21.7729H11.6887H10.2557V10.2598H10.2598ZM5.44221 30.3955H3.02935H1.62899V26.0801H5.44629C6.23425 26.0801 7.49988 26.1863 7.49988 27.211C7.49988 27.7132 7.05895 28.0725 6.54453 28.199C7.18551 28.3909 7.49988 28.7461 7.49988 29.2319C7.4958 30.2894 6.29549 30.3914 5.44221 30.3955ZM12.7747 30.3955L12.3338 29.628H9.89233L10.2965 28.9666C10.3986 28.8196 10.5701 28.7298 10.7497 28.7257H11.8071L10.8844 27.1212L8.99414 30.3996H7.34882L9.98623 26.0801H11.7867L14.42 30.3955H12.7747ZM17.5188 30.3955H15.1876C15.0079 30.3914 14.8365 30.3057 14.7344 30.1546L14.3302 29.4892H16.9717C17.2901 29.4892 17.5474 29.334 17.5474 29.0196V26.076H18.9436V29.1462C18.9395 30.0852 18.3271 30.3955 17.5188 30.3955ZM24.2266 30.3955L23.7857 29.628H21.3442L21.7443 28.9666C21.8464 28.8155 22.0179 28.7298 22.1975 28.7257H23.2549L22.3323 27.1253L20.4461 30.3996H18.7967L21.4341 26.0801H23.2345L25.8678 30.3955H24.2266ZM30.3955 29.1544C30.3955 30.0852 29.7831 30.3996 28.9748 30.3996H26.6436C26.4639 30.3996 26.2924 30.3098 26.1904 30.1587L25.7862 29.4932H28.4236C28.7421 29.4932 28.9993 29.3381 28.9993 29.0237V26.0801H30.3996V29.1544H30.3955Z" fill="white"/>
<path d="M77.7496 19.1181L81.2076 12.9043H78.8478L76.4554 17.6198L74.0629 12.9043H71.7031L75.1612 19.1181" fill="white"/>
<path d="M43.9462 12.9043H41.9375V19.1181H43.9462V12.9043Z" fill="white"/>
<path d="M49.5718 12.9043V16.3827L47.1753 12.9043H44.791V19.1181H46.7997V15.6723L46.8201 15.7009L49.1717 19.1181H51.5846V12.9043H49.5718Z" fill="white"/>
<path d="M72.348 19.1183L70.9027 16.6973L70.7966 16.4973C71.0905 16.3544 71.3437 16.1421 71.5274 15.8767C71.7315 15.5868 71.8336 15.2398 71.8254 14.8846C71.8254 14.6315 71.7764 14.3824 71.6825 14.1456C71.5886 13.9089 71.4457 13.6884 71.2661 13.5047C71.0742 13.3128 70.8415 13.1617 70.5843 13.0637C70.2944 12.9535 69.9841 12.9004 69.6698 12.9045H65.877L66.3832 14.1946H68.9145C69.0982 14.1865 69.2778 14.2518 69.4085 14.3824C69.5269 14.4968 69.5922 14.656 69.5922 14.8193C69.5922 14.9948 69.5269 15.1622 69.4085 15.2888C69.2778 15.4154 69.0982 15.5542 68.9145 15.546H66.8568L67.3141 16.8239H68.6695L69.98 19.1224H72.348V19.1183Z" fill="white"/>
<path d="M58.7699 17.154C58.7739 16.7499 58.6229 15.5863 56.8265 15.2719C56.651 15.2352 56.4264 15.2229 56.3366 15.2189C56.0998 15.2025 55.7609 15.1944 55.3363 15.2066L55.2302 15.2107C55.0056 15.2066 54.479 15.1576 54.4626 14.7208C54.4626 14.7208 54.43 14.2594 55.0832 14.2186L58.5167 14.2104V12.9081C58.5167 12.9081 55.5772 12.904 54.5974 12.9081C53.9115 12.9081 52.4417 12.9162 52.2621 14.3574C52.2621 14.3574 52.2621 14.3697 52.258 14.3901C52.258 14.4023 52.2539 14.4146 52.2539 14.4268C52.2457 14.4921 52.2417 14.5901 52.2457 14.6677C52.2539 14.9698 52.3846 15.8558 53.6747 16.2559C53.6747 16.2559 54.1646 16.4559 55.0628 16.509C55.0628 16.509 55.7242 16.5049 55.8263 16.509C55.8263 16.509 56.308 16.5212 56.455 16.8356C56.455 16.8356 56.8714 17.5705 55.912 17.7869C55.8548 17.795 55.6874 17.8114 55.5527 17.8073H52.6418V19.1178H55.8997C55.8997 19.1178 58.4596 19.1709 58.7413 17.5174C58.7739 17.3663 58.7699 17.199 58.7699 17.154Z" fill="white"/>
<path d="M35.2168 12.9043V19.1181H35.4985H37.2255H37.2296V16.6195L38.9729 16.6032C39.373 16.5991 39.5036 16.3297 39.5036 16.3297L40.1119 15.3212L37.2296 15.3335V14.9538C37.2663 14.2148 37.9604 14.1863 37.9604 14.1863H40.0711C40.512 14.2026 40.6386 13.9617 40.6386 13.9617L41.2796 12.9084H35.2168V12.9043Z" fill="white"/>
<path d="M61.4401 14.9783V15.3335L64.3184 15.3212L63.7101 16.3297C63.7101 16.3297 63.5795 16.5991 63.1794 16.6032L61.4565 16.6195L61.4728 17.1952C61.4728 17.1952 61.4769 17.2523 61.4932 17.3095C61.5994 17.6035 61.877 17.8158 62.2077 17.8158L64.7022 17.828H65.2329V19.1222H59.4355V12.9043H65.2329V14.1944L62.2077 14.2067C61.7831 14.2067 61.4401 14.5496 61.4401 14.9783Z" fill="white"/>
</g>
<defs>
<clipPath id="clip0_4263_52178">
<rect width="81.2086" height="32" fill="white"/>
</clipPath>
</defs>
</svg>
