<svg width="8" height="8" viewBox="0 0 8 8" fill="none" xmlns="http://www.w3.org/2000/svg">
<path fill-rule="evenodd" clip-rule="evenodd" d="M0.74245 1.66073C0.573403 1.66073 0.436364 1.79777 0.436364 1.96682V6.03344C0.436364 6.20249 0.573403 6.33953 0.74245 6.33953H7.25755C7.4266 6.33953 7.56364 6.20249 7.56364 6.03344V1.96682C7.56364 1.79777 7.4266 1.66073 7.25755 1.66073H0.74245ZM0 1.96682C0 1.55677 0.332406 1.22437 0.74245 1.22437H7.25755C7.66759 1.22437 8 1.55677 8 1.96682V6.03344C8 6.44348 7.66759 6.77589 7.25755 6.77589H0.74245C0.332406 6.77589 0 6.44348 0 6.03344V1.96682Z" fill="#D3DAE1"/>
<path fill-rule="evenodd" clip-rule="evenodd" d="M0.104924 2.66376C0.104924 2.54326 0.202608 2.44558 0.323106 2.44558H7.6742C7.7947 2.44558 7.89238 2.54326 7.89238 2.66376C7.89238 2.78426 7.7947 2.88194 7.6742 2.88194H0.323106C0.202608 2.88194 0.104924 2.78426 0.104924 2.66376Z" fill="#D3DAE1"/>
<path d="M5.75565 3.755H5.79533C5.79814 3.76124 5.7996 3.768 5.7996 3.77484C5.7996 3.78168 5.79814 3.78844 5.79533 3.79468V5.2853C5.79727 5.29369 5.79727 5.30242 5.79533 5.31081C5.79035 5.3162 5.78415 5.32031 5.77724 5.32278C5.77032 5.32524 5.76292 5.326 5.75565 5.32497H5.52894L5.50343 5.31081C5.49911 5.29794 5.49911 5.28401 5.50343 5.27113V3.78051C5.50139 3.77213 5.50139 3.76338 5.50343 3.755C5.51389 3.74433 5.52816 3.73821 5.54311 3.738L5.75565 3.755Z" fill="#D3DAE1"/>
<path d="M3.85968 3.75488H3.90785C3.91662 3.76262 3.92342 3.77234 3.92769 3.78323L4.36694 4.59938L4.80902 3.78323L4.82604 3.76339C4.83475 3.75657 4.8451 3.75219 4.85605 3.75069C4.86701 3.7492 4.87817 3.75065 4.88838 3.75488H5.1066C5.11054 3.76782 5.11054 3.78163 5.1066 3.79456V5.28518C5.10875 5.29354 5.10875 5.30232 5.1066 5.31069C5.10084 5.31582 5.0941 5.31972 5.08679 5.32215C5.07948 5.32459 5.07176 5.32551 5.06408 5.32485H4.85721L4.83454 5.31069C4.83172 5.30445 4.83026 5.29769 4.83026 5.29085C4.83026 5.28401 4.83172 5.27725 4.83454 5.27101V4.32166L4.51714 4.92528L4.50298 4.94511L4.48597 4.96212C4.47266 4.97136 4.45683 4.97631 4.44062 4.97629H4.32728C4.31811 4.97953 4.3081 4.97953 4.29893 4.97629C4.2871 4.96604 4.27746 4.95351 4.2706 4.93945L3.92769 4.32166V5.31635C3.92406 5.32542 3.9193 5.33399 3.91352 5.34186C3.90842 5.34707 3.90218 5.35106 3.89531 5.35351C3.88844 5.35597 3.8811 5.35682 3.87385 5.35603H3.66981C3.66017 5.35374 3.65134 5.34884 3.6443 5.34186C3.63874 5.33689 3.63434 5.33076 3.6314 5.32391C3.62846 5.31705 3.62706 5.30964 3.6273 5.30219V3.81156C3.6278 3.80657 3.62932 3.80173 3.63176 3.79735C3.6342 3.79296 3.63749 3.78912 3.64146 3.78606C3.6463 3.78033 3.65241 3.77582 3.6593 3.77286C3.66618 3.76991 3.67366 3.76861 3.68114 3.76906L3.85968 3.75488Z" fill="#D3DAE1"/>
<path d="M3.23731 3.72133C3.24569 3.71929 3.26075 3.7299 3.26913 3.73194C3.27981 3.74241 3.28592 3.75667 3.28613 3.77162L3.28448 3.97055C3.28641 3.97894 3.28641 3.98766 3.28448 3.99605C3.27937 4.00126 3.27314 4.00525 3.26626 4.0077C3.25939 4.01016 3.25205 4.01102 3.2448 4.01022H2.49949V4.41263H3.21079C3.21916 4.41047 3.22792 4.41047 3.23629 4.41263C3.24547 4.42381 3.25048 4.43784 3.25045 4.45231V4.60817C3.24748 4.61753 3.24266 4.6262 3.23629 4.63367C3.22245 4.63803 3.20763 4.63803 3.19379 4.63367H2.49949V5.04742H3.2788L3.3043 5.06159C3.3131 5.07299 3.31808 5.08688 3.31848 5.10127V5.26563C3.31485 5.27469 3.31007 5.28326 3.3043 5.29114C3.29855 5.29626 3.29182 5.30016 3.28451 5.3026C3.2772 5.30504 3.26948 5.30595 3.2618 5.3053H2.2331L2.20759 5.29114C2.20477 5.2849 2.20331 5.27814 2.20331 5.2713C2.20331 5.26446 2.20477 5.2577 2.20759 5.25146V3.76084C2.20554 3.75246 2.20554 3.74371 2.20759 3.73533C2.21255 3.72977 2.21869 3.72537 2.22554 3.72243C2.2324 3.71949 2.23981 3.71809 2.24727 3.71833L3.23731 3.72133Z" fill="#D3DAE1"/>
</svg>
