<svg width="14" height="14" viewBox="0 0 14 14" fill="none" xmlns="http://www.w3.org/2000/svg">
<path fill-rule="evenodd" clip-rule="evenodd" d="M9.29684 8.24609L12.6783 4.9499V1.41016C12.6783 1.18375 12.4946 1 12.2682 1H1.73173C1.50533 1 1.32158 1.18375 1.32158 1.41016V4.94962L4.70309 8.24609H9.29684ZM9.08285 5.48942H4.76574C4.58435 5.48942 4.43924 5.35086 4.43924 5.17766C4.43924 5.00446 4.58435 4.86589 4.76574 4.86589H9.10099C9.28238 4.86589 9.42749 5.00446 9.42749 5.17766C9.42749 5.35086 9.26424 5.48942 9.08285 5.48942ZM5.39614 4.11766H8.47058C8.65579 4.11766 8.80396 3.97909 8.80396 3.80589C8.80396 3.63269 8.65579 3.49412 8.47058 3.49412H5.39614C5.21094 3.49412 5.06277 3.63269 5.06277 3.80589C5.06277 3.97909 5.21094 4.11766 5.39614 4.11766Z" fill="#1778EB"/>
<path d="M0 4.86619V12.7559L3.95795 8.66686L0 4.86619Z" fill="#1778EB"/>
<path d="M4.71283 9.06641L0.583951 13.332H13.416L9.28711 9.06641H4.71283Z" fill="#1778EB"/>
<path d="M10.042 8.66686L14 12.7559V4.86619L10.042 8.66686Z" fill="#1778EB"/>
<mask id="mask0_16678_5642" style="mask-type:alpha" maskUnits="userSpaceOnUse" x="0" y="1" width="14" height="13">
<path fill-rule="evenodd" clip-rule="evenodd" d="M9.29704 8.24609L12.6785 4.9499V1.41016C12.6785 1.18375 12.4948 1 12.2684 1H1.73193C1.50553 1 1.32178 1.18375 1.32178 1.41016V4.94962L4.70329 8.24609H9.29704ZM9.0831 5.48952H4.76599C4.5846 5.48952 4.43949 5.35095 4.43949 5.17775C4.43949 5.00455 4.5846 4.86599 4.76599 4.86599H9.10123C9.28263 4.86599 9.42774 5.00455 9.42774 5.17775C9.42774 5.35095 9.26449 5.48952 9.0831 5.48952ZM5.39625 4.1176H8.47069C8.6559 4.1176 8.80406 3.97903 8.80406 3.80583C8.80406 3.63263 8.6559 3.49407 8.47069 3.49407H5.39625C5.21104 3.49407 5.06288 3.63263 5.06288 3.80583C5.06288 3.97903 5.21104 4.1176 5.39625 4.1176Z" fill="#2680EB"/>
<path d="M0 4.86621V12.7559L3.95795 8.66688L0 4.86621Z" fill="#2680EB"/>
<path d="M4.71286 9.06641L0.583984 13.332H13.416L9.28714 9.06641H4.71286Z" fill="#2680EB"/>
<path d="M10.042 8.66688L13.9999 12.7559V4.86621L10.042 8.66688Z" fill="#2680EB"/>
</mask>
<g mask="url(#mask0_16678_5642)">
<path fill-rule="evenodd" clip-rule="evenodd" d="M13.2639 4.20173C13.2639 4.20173 12.7522 6.81437 10.0011 4.21039C7.24998 1.60642 4.68079 3.97804 3.27382 2.77273C1.86685 1.56742 0.845898 -1.86384 2.81991 -3.78757C4.79391 -5.7113 5.76603 -7.31929 8.55764 -5.87784C11.3492 -4.43639 14.874 -7.67321 14.9171 -4.34594C14.9601 -1.01867 13.2639 4.20173 13.2639 4.20173Z" fill="#1778EB"/>
</g>
</svg>
