<svg width="20" height="20" viewBox="0 0 20 20" fill="none" xmlns="http://www.w3.org/2000/svg">
<path d="M10.1673 14.75C9.91732 14.75 9.75065 14.6667 9.58398 14.5L6.08398 11C5.75065 10.6667 5.75065 10.1667 6.08398 9.83333C6.41732 9.5 6.91732 9.5 7.25065 9.83333L10.1673 12.75L16.6673 6.25C17.0007 5.91667 17.5007 5.91667 17.834 6.25C18.1673 6.58333 18.1673 7.08333 17.834 7.41667L10.7507 14.5C10.6673 14.6667 10.4173 14.75 10.1673 14.75Z" fill="#00B094"/>
<path d="M5.99935 14.75C5.74935 14.75 5.58268 14.6667 5.41602 14.5L1.91602 11C1.58268 10.6667 1.58268 10.1667 1.91602 9.83333C2.24935 9.5 2.74935 9.5 3.08268 9.83333L6.58268 13.3333C6.91602 13.6667 6.91602 14.1667 6.58268 14.5C6.49935 14.6667 6.24935 14.75 5.99935 14.75ZM10.416 10.4167C10.166 10.4167 9.99935 10.3333 9.83268 10.1667C9.49935 9.83333 9.49935 9.33333 9.83268 9L12.4993 6.25C12.8327 5.91667 13.3327 5.91667 13.666 6.25C13.9993 6.58333 13.9993 7.08333 13.666 7.41667L10.9993 10.1667C10.8327 10.3333 10.666 10.4167 10.416 10.4167Z" fill="#00B094"/>
</svg>
