<svg width="18" height="21" viewBox="0 0 18 21" fill="none" xmlns="http://www.w3.org/2000/svg">
<path fill-rule="evenodd" clip-rule="evenodd" d="M9 19.875C13.3492 19.875 16.875 16.3492 16.875 12C16.875 7.65076 13.3492 4.125 9 4.125C4.65076 4.125 1.125 7.65076 1.125 12C1.125 16.3492 4.65076 19.875 9 19.875ZM13.6627 9.94639C13.5133 9.75012 13.2344 9.71323 13.0398 9.86398L7.28772 14.3201L5.50668 11.5865L5.49479 11.5691C5.35624 11.3765 5.09059 11.326 4.89139 11.4581C4.68632 11.594 4.62933 11.8718 4.76408 12.0786L6.80784 15.2154L6.81935 15.2322C6.96514 15.4356 7.25037 15.4792 7.44978 15.3247L13.581 10.5747L13.5973 10.5615C13.7776 10.408 13.808 10.137 13.6627 9.94639Z" fill="#00B500"/>
</svg>
