<svg width="8" height="8" viewBox="0 0 8 8" fill="none" xmlns="http://www.w3.org/2000/svg">
<path d="M1.6381 5.81587C1.93524 5.81587 2.17611 6.05675 2.17611 6.35388V7.2954C2.17611 7.59254 1.93524 7.83341 1.6381 7.83341H0.704516C0.40738 7.83341 0.166504 7.59254 0.166504 7.2954V6.35388C0.166504 6.05675 0.40738 5.81587 0.704516 5.81587H1.6381ZM4.45156 5.81587C4.74869 5.81587 4.98957 6.05675 4.98957 6.35388V7.2954C4.98957 7.59254 4.74869 7.83341 4.45156 7.83341H3.51797C3.22083 7.83341 2.97996 7.59254 2.97996 7.2954V6.35388C2.97996 6.05675 3.22083 5.81587 3.51797 5.81587H4.45156ZM7.26501 5.81587C7.56215 5.81587 7.80302 6.05675 7.80302 6.35388V7.2954C7.80302 7.59254 7.56215 7.83341 7.26501 7.83341H6.33143C6.03429 7.83341 5.79341 7.59254 5.79341 7.2954V6.35388C5.79341 6.05675 6.03429 5.81587 6.33143 5.81587H7.26501ZM1.6381 2.99131C1.93524 2.99131 2.17611 3.23219 2.17611 3.52932V4.47084C2.17611 4.76798 1.93524 5.00885 1.6381 5.00885H0.704516C0.40738 5.00885 0.166504 4.76798 0.166504 4.47084V3.52932C0.166504 3.23219 0.40738 2.99131 0.704516 2.99131H1.6381ZM4.45156 2.99131C4.74869 2.99131 4.98957 3.23219 4.98957 3.52932V4.47084C4.98957 4.76798 4.74869 5.00885 4.45156 5.00885H3.51797C3.22083 5.00885 2.97996 4.76798 2.97996 4.47084V3.52932C2.97996 3.23219 3.22083 2.99131 3.51797 2.99131H4.45156ZM7.26501 2.99131C7.56215 2.99131 7.80302 3.23219 7.80302 3.52932V4.47084C7.80302 4.76798 7.56215 5.00885 7.26501 5.00885H6.33143C6.03429 5.00885 5.79341 4.76798 5.79341 4.47084V3.52932C5.79341 3.23219 6.03429 2.99131 6.33143 2.99131H7.26501ZM1.6381 0.166748C1.93524 0.166748 2.17611 0.407624 2.17611 0.70476V1.64628C2.17611 1.94342 1.93524 2.18429 1.6381 2.18429H0.704516C0.40738 2.18429 0.166504 1.94342 0.166504 1.64628V0.70476C0.166504 0.407624 0.40738 0.166748 0.704516 0.166748H1.6381ZM4.45156 0.166748C4.74869 0.166748 4.98957 0.407624 4.98957 0.70476V1.64628C4.98957 1.94342 4.74869 2.18429 4.45156 2.18429H3.51797C3.22083 2.18429 2.97996 1.94342 2.97996 1.64628V0.70476C2.97996 0.407624 3.22083 0.166748 3.51797 0.166748H4.45156ZM7.26501 0.166748C7.56215 0.166748 7.80302 0.407624 7.80302 0.70476V1.64628C7.80302 1.94342 7.56215 2.18429 7.26501 2.18429H6.33143C6.03429 2.18429 5.79341 1.94342 5.79341 1.64628V0.70476C5.79341 0.407624 6.03429 0.166748 6.33143 0.166748H7.26501Z" fill="#D3DAE1"/>
</svg>
