<svg width="32" height="17" viewBox="0 0 32 17" fill="none" xmlns="http://www.w3.org/2000/svg">
<path d="M26.7146 16.2859C27.0416 16.5233 27.4992 16.4507 27.7365 16.1236L31.6051 10.7943C31.8425 10.4673 31.7698 10.0097 31.4428 9.77235C31.1158 9.53496 30.6582 9.60762 30.4208 9.93466L26.9821 14.6718L22.2449 11.2331C21.9179 10.9957 21.4604 11.0684 21.223 11.3954C20.9856 11.7224 21.0582 12.18 21.3853 12.4174L26.7146 16.2859ZM0.103027 0.994873C0.206723 1.7192 0.206548 1.71922 0.206465 1.71923C0.20656 1.71922 0.206568 1.71922 0.206756 1.71919C0.207133 1.71914 0.207874 1.71903 0.208976 1.71888C0.211182 1.71857 0.214834 1.71806 0.219912 1.71736C0.230067 1.71597 0.245923 1.71383 0.267306 1.71103C0.310073 1.70544 0.374939 1.69723 0.460523 1.68716C0.631707 1.66702 0.885664 1.63947 1.21135 1.61057C1.86292 1.55277 2.80039 1.48971 3.93556 1.46979C6.20965 1.42989 9.25876 1.56355 12.3854 2.25C15.5151 2.93709 18.6831 4.16939 21.2337 6.29864C23.7696 8.41553 25.7289 11.4457 26.4218 15.8086L27.8671 15.579C27.1181 10.8632 24.9763 7.51664 22.1716 5.17522C19.3816 2.84617 15.9695 1.53858 12.6992 0.820623C9.42604 0.102011 6.25549 -0.0345497 3.90989 0.00660055C2.73522 0.0272085 1.76284 0.0924847 1.08202 0.152886C0.741514 0.183095 0.473642 0.212112 0.289545 0.23377C0.197488 0.244599 0.126351 0.253592 0.0775252 0.259978C0.0531115 0.263171 0.034273 0.265712 0.0211836 0.267506C0.0146387 0.268404 0.00953091 0.269114 0.00588177 0.269625C0.00405719 0.269881 0.00259725 0.270087 0.00150467 0.270242C0.00095861 0.270319 0.000414808 0.270396 0.000141626 0.270435C-0.000309305 0.270499 -0.000668384 0.270551 0.103027 0.994873Z" fill="#FF5B00"/>
</svg>
