<svg width="14" height="14" viewBox="0 0 14 14" fill="none" xmlns="http://www.w3.org/2000/svg">
<path fill-rule="evenodd" clip-rule="evenodd" d="M7.35115 12.2048C7.25667 12.3078 7.13214 12.3594 6.97754 12.3594C6.82294 12.3594 6.69841 12.3078 6.60393 12.2048L1.77276 7.37361C1.6697 7.27913 1.61816 7.1546 1.61816 7C1.61816 6.8454 1.6697 6.72087 1.77276 6.62639L6.60393 1.79522C6.69841 1.69216 6.82294 1.64062 6.97754 1.64062C7.13214 1.64062 7.25667 1.69216 7.35115 1.79522L12.1823 6.62639C12.2854 6.73804 12.3369 6.86687 12.3369 7.01288C12.3369 7.15889 12.2854 7.27913 12.1823 7.37361L7.35115 12.2048ZM4.83894 8.61035H5.89536V6.99996H8.05972V8.32692L9.92777 6.47175L8.05972 4.57793V5.91778H5.36715C5.22114 5.91778 5.0966 5.97146 4.99354 6.07882C4.89047 6.18618 4.83894 6.31715 4.83894 6.47175V8.61035Z" fill="#FF6700"/>
</svg>
