<svg width="8" height="8" viewBox="0 0 8 8" fill="none" xmlns="http://www.w3.org/2000/svg">
<g clip-path="url(#clip0_12413_85414)">
<path d="M7 8.00008H6.33333V6.31908C6.33307 6.05775 6.22914 5.80719 6.04435 5.6224C5.85955 5.43761 5.609 5.33368 5.34767 5.33341H2.65233C2.391 5.33368 2.14045 5.43761 1.95565 5.6224C1.77086 5.80719 1.66693 6.05775 1.66667 6.31908V8.00008H1V6.31908C1.00053 5.88102 1.17478 5.46105 1.48454 5.15129C1.7943 4.84153 2.21427 4.66728 2.65233 4.66675H5.34767C5.78573 4.66728 6.2057 4.84153 6.51546 5.15129C6.82522 5.46105 6.99947 5.88102 7 6.31908V8.00008Z" fill="#D3DAE1"/>
<path d="M4 4C3.60444 4 3.21776 3.8827 2.88886 3.66294C2.55996 3.44318 2.30362 3.13082 2.15224 2.76537C2.00087 2.39992 1.96126 1.99778 2.03843 1.60982C2.1156 1.22186 2.30608 0.865492 2.58579 0.585787C2.86549 0.306082 3.22186 0.115601 3.60982 0.0384303C3.99778 -0.0387401 4.39992 0.000866572 4.76537 0.152242C5.13082 0.303617 5.44318 0.559962 5.66294 0.88886C5.8827 1.21776 6 1.60444 6 2C5.99947 2.53027 5.78859 3.03867 5.41363 3.41363C5.03867 3.78859 4.53027 3.99947 4 4ZM4 0.666667C3.73629 0.666667 3.47851 0.744866 3.25924 0.891375C3.03998 1.03788 2.86908 1.24612 2.76816 1.48976C2.66724 1.73339 2.64084 2.00148 2.69229 2.26012C2.74373 2.51876 2.87072 2.75634 3.05719 2.94281C3.24366 3.12928 3.48124 3.25627 3.73988 3.30771C3.99852 3.35916 4.26661 3.33276 4.51025 3.23184C4.75388 3.13092 4.96212 2.96003 5.10863 2.74076C5.25514 2.5215 5.33333 2.26371 5.33333 2C5.33333 1.64638 5.19286 1.30724 4.94281 1.05719C4.69276 0.807143 4.35362 0.666667 4 0.666667Z" fill="#D3DAE1"/>
</g>
<defs>
<clipPath id="clip0_12413_85414">
<rect width="8" height="8" fill="white"/>
</clipPath>
</defs>
</svg>
