<svg width="8" height="8" viewBox="0 0 8 8" fill="none" xmlns="http://www.w3.org/2000/svg">
<path d="M7.90651 7.43556L5.91847 5.44753C6.46024 4.78494 6.7266 3.93946 6.66248 3.08599C6.59835 2.23251 6.20864 1.43633 5.57395 0.862135C4.93926 0.287936 4.10816 -0.0203497 3.25254 0.00104334C2.39693 0.0224364 1.58227 0.371872 0.977071 0.977071C0.371872 1.58227 0.0224364 2.39693 0.00104334 3.25254C-0.0203497 4.10816 0.287936 4.93926 0.862135 5.57395C1.43633 6.20864 2.23251 6.59835 3.08599 6.66248C3.93946 6.7266 4.78494 6.46024 5.44753 5.91847L7.43556 7.90651C7.49838 7.96718 7.58251 8.00075 7.66983 7.99999C7.75716 7.99923 7.8407 7.9642 7.90245 7.90245C7.9642 7.8407 7.99923 7.75716 7.99999 7.66983C8.00075 7.58251 7.96718 7.49838 7.90651 7.43556ZM3.34126 6.00573C2.81427 6.00573 2.29912 5.84947 1.86095 5.55669C1.42278 5.26391 1.08127 4.84778 0.879601 4.36091C0.677933 3.87404 0.625168 3.3383 0.727977 2.82144C0.830787 2.30459 1.08455 1.82982 1.45719 1.45719C1.82982 1.08455 2.30459 0.830787 2.82144 0.727977C3.3383 0.625168 3.87404 0.677933 4.36091 0.879601C4.84778 1.08127 5.26391 1.42278 5.55669 1.86095C5.84947 2.29912 6.00573 2.81427 6.00573 3.34126C6.00494 4.04768 5.72397 4.72494 5.22445 5.22445C4.72494 5.72397 4.04768 6.00494 3.34126 6.00573Z" fill="#FF6700"/>
</svg>
