<svg width="8" height="8" viewBox="0 0 8 8" fill="none" xmlns="http://www.w3.org/2000/svg">
<g clip-path="url(#clip0_12413_85437)">
<path d="M2.33317 8.00008C2.70136 8.00008 2.99984 7.7016 2.99984 7.33341C2.99984 6.96522 2.70136 6.66675 2.33317 6.66675C1.96498 6.66675 1.6665 6.96522 1.6665 7.33341C1.6665 7.7016 1.96498 8.00008 2.33317 8.00008Z" fill="#D3DAE1"/>
<path d="M5.66618 8.00008C6.03437 8.00008 6.33284 7.7016 6.33284 7.33341C6.33284 6.96522 6.03437 6.66675 5.66618 6.66675C5.29799 6.66675 4.99951 6.96522 4.99951 7.33341C4.99951 7.7016 5.29799 8.00008 5.66618 8.00008Z" fill="#D3DAE1"/>
<path d="M7.3 3.00533C7.2569 2.99755 7.21269 2.99833 7.1699 3.00764C7.1271 3.01694 7.08656 3.03459 7.05059 3.05957C7.01462 3.08455 6.98393 3.11638 6.96026 3.15323C6.93659 3.19008 6.92042 3.23123 6.91267 3.27433L6.87 3.51067C6.82842 3.74144 6.70706 3.95026 6.52713 4.10064C6.34721 4.25101 6.12016 4.33338 5.88567 4.33333H1.806L1.49267 1.66667C1.414 1 1.4997 1.72656 1.414 1L1.4 0.882667C1.37127 0.639533 1.25435 0.415385 1.0714 0.252701C0.888439 0.0900181 0.652158 0.000104279 0.407333 0L0.333333 0C0.244928 0 0.160143 0.035119 0.0976311 0.0976311C0.035119 0.160143 0 0.244928 0 0.333333C0 0.421739 0.035119 0.506523 0.0976311 0.569036C0.160143 0.631548 0.244928 0.666667 0.333333 0.666667H0.407333C0.488978 0.666677 0.567779 0.696652 0.628791 0.750905C0.689802 0.805158 0.728781 0.879916 0.738333 0.961L1.197 4.861C1.24462 5.2666 1.43949 5.64059 1.74464 5.912C2.04978 6.18341 2.44395 6.33334 2.85233 6.33333H6.33333C6.42174 6.33333 6.50652 6.29821 6.56904 6.2357C6.63155 6.17319 6.66667 6.08841 6.66667 6C6.66667 5.91159 6.63155 5.82681 6.56904 5.7643C6.50652 5.70179 6.42174 5.66667 6.33333 5.66667H2.85233C2.64551 5.66671 2.44376 5.60261 2.27487 5.48322C2.10599 5.36382 1.97828 5.195 1.90933 5H5.88567C6.27643 5.00002 6.65478 4.86274 6.95461 4.61215C7.25444 4.36155 7.45668 4.01357 7.526 3.629L7.56867 3.39233C7.5843 3.30539 7.56479 3.2158 7.51441 3.14324C7.46404 3.07068 7.38692 3.02108 7.3 3.00533Z" fill="#D3DAE1"/>
<path d="M4.49755 3.37337C4.30821 3.37337 4.14688 3.34537 4.01355 3.28937C3.88021 3.23337 3.77088 3.15604 3.68555 3.05737C3.60021 2.95871 3.53621 2.84537 3.49355 2.71737C3.45088 2.58671 3.42555 2.44804 3.41755 2.30137C3.41488 2.22937 3.41221 2.15071 3.40955 2.06537C3.40955 1.97737 3.40955 1.88937 3.40955 1.80137C3.41221 1.71337 3.41488 1.63204 3.41755 1.55737C3.42288 1.41071 3.44821 1.27337 3.49355 1.14537C3.53888 1.01471 3.60421 0.901374 3.68955 0.805374C3.77755 0.709374 3.88821 0.633374 4.02155 0.577374C4.15488 0.521374 4.31355 0.493374 4.49755 0.493374C4.68421 0.493374 4.84421 0.521374 4.97755 0.577374C5.11088 0.633374 5.22021 0.709374 5.30555 0.805374C5.39355 0.901374 5.45888 1.01471 5.50155 1.14537C5.54688 1.27337 5.57221 1.41071 5.57755 1.55737C5.58288 1.63204 5.58555 1.71337 5.58555 1.80137C5.58555 1.88937 5.58555 1.97737 5.58555 2.06537C5.58555 2.15071 5.58288 2.22937 5.57755 2.30137C5.57221 2.44804 5.54821 2.58671 5.50555 2.71737C5.46288 2.84537 5.39888 2.95871 5.31355 3.05737C5.22821 3.15604 5.11755 3.23337 4.98155 3.28937C4.84821 3.34537 4.68688 3.37337 4.49755 3.37337ZM4.49755 2.91337C4.67088 2.91337 4.79755 2.85737 4.87755 2.74537C4.96021 2.63071 5.00288 2.47604 5.00555 2.28137C5.01088 2.20404 5.01355 2.12671 5.01355 2.04937C5.01355 1.96937 5.01355 1.88937 5.01355 1.80937C5.01355 1.72937 5.01088 1.65337 5.00555 1.58137C5.00288 1.39204 4.96021 1.24004 4.87755 1.12537C4.79755 1.00804 4.67088 0.949374 4.49755 0.949374C4.32688 0.949374 4.20021 1.00804 4.11755 1.12537C4.03755 1.24004 3.99488 1.39204 3.98955 1.58137C3.98955 1.65337 3.98821 1.72937 3.98555 1.80937C3.98555 1.88937 3.98555 1.96937 3.98555 2.04937C3.98821 2.12671 3.98955 2.20404 3.98955 2.28137C3.99488 2.47604 4.03888 2.63071 4.12155 2.74537C4.20421 2.85737 4.32955 2.91337 4.49755 2.91337Z" fill="#D3DAE1"/>
</g>
<defs>
<clipPath id="clip0_12413_85437">
<rect width="8" height="8" fill="white"/>
</clipPath>
</defs>
</svg>
