<svg width="172" height="63" viewBox="0 0 172 63" fill="none" xmlns="http://www.w3.org/2000/svg">
<rect width="171.31" height="10.9638" fill="#002953"/>
<path d="M4.83157 7.48193C4.79319 7.48193 4.76122 7.46914 4.73563 7.44356C4.71005 7.41371 4.69726 7.3796 4.69726 7.34123C4.69726 7.31991 4.69939 7.30286 4.70366 7.29007C4.71218 7.27728 4.71858 7.26662 4.72284 7.25809L5.66299 5.95979C5.57772 5.98111 5.48818 5.98964 5.39438 5.98537C5.18119 5.98111 4.9808 5.9406 4.79319 5.86386C4.60986 5.78285 4.44783 5.67625 4.30713 5.54408C4.17069 5.40764 4.06197 5.25202 3.98096 5.0772C3.90421 4.89813 3.86584 4.70413 3.86584 4.49521C3.86584 4.30334 3.90208 4.11574 3.97456 3.9324C4.04705 3.7448 4.15364 3.57638 4.29434 3.42715C4.43931 3.27792 4.61838 3.16067 4.83157 3.07539C5.04902 2.98586 5.30271 2.94109 5.59264 2.94109C5.87831 2.94109 6.12987 2.98159 6.34732 3.0626C6.56476 3.14361 6.74597 3.2566 6.89094 3.40157C7.04017 3.54227 7.15102 3.70429 7.22351 3.88763C7.30025 4.07097 7.33863 4.26497 7.33863 4.46963C7.33863 4.65297 7.30878 4.82351 7.24909 4.98127C7.1894 5.13903 7.11478 5.28399 7.02524 5.41617C6.93997 5.54408 6.8547 5.66986 6.76942 5.79351L5.6438 7.35402C5.62675 7.37534 5.60117 7.40306 5.56706 7.43716C5.53721 7.46701 5.49031 7.48193 5.42635 7.48193H4.83157ZM5.59903 5.30744C5.75253 5.30744 5.8911 5.27547 6.01475 5.21151C6.14266 5.14329 6.24285 5.04949 6.31534 4.93011C6.39208 4.80646 6.43046 4.66149 6.43046 4.49521C6.43046 4.32466 6.39208 4.17969 6.31534 4.06031C6.24285 3.93666 6.14266 3.84286 6.01475 3.77891C5.88683 3.71069 5.74826 3.67658 5.59903 3.67658C5.44554 3.67658 5.30484 3.71069 5.17693 3.77891C5.05328 3.84286 4.95308 3.93666 4.87634 4.06031C4.80385 4.17969 4.76761 4.32466 4.76761 4.49521C4.76761 4.66149 4.80385 4.80646 4.87634 4.93011C4.95308 5.04949 5.05328 5.14329 5.17693 5.21151C5.30484 5.27547 5.44554 5.30744 5.59903 5.30744ZM8.15846 5.24349C8.11582 5.24349 8.07958 5.22857 8.04973 5.19872C8.01989 5.16887 8.00496 5.13263 8.00496 5.09V4.48242C8.00496 4.43552 8.01989 4.39714 8.04973 4.3673C8.07958 4.33745 8.11582 4.32253 8.15846 4.32253H8.79162C8.83852 4.32253 8.87689 4.33745 8.90674 4.3673C8.93658 4.39714 8.95151 4.43552 8.95151 4.48242V5.09C8.95151 5.13263 8.93658 5.16887 8.90674 5.19872C8.87689 5.22857 8.83852 5.24349 8.79162 5.24349H8.15846ZM8.15846 7.48193C8.11582 7.48193 8.07958 7.46701 8.04973 7.43716C8.01989 7.40732 8.00496 7.37108 8.00496 7.32844V6.72086C8.00496 6.67396 8.01989 6.63559 8.04973 6.60574C8.07958 6.5759 8.11582 6.56097 8.15846 6.56097H8.79162C8.83852 6.56097 8.87689 6.5759 8.90674 6.60574C8.93658 6.63559 8.95151 6.67396 8.95151 6.72086V7.32844C8.95151 7.37108 8.93658 7.40732 8.90674 7.43716C8.87689 7.46701 8.83852 7.48193 8.79162 7.48193H8.15846ZM11.8833 7.48193C11.8407 7.48193 11.8044 7.46701 11.7746 7.43716C11.7447 7.40732 11.7298 7.37108 11.7298 7.32844V6.50981H9.70243C9.65553 6.50981 9.61716 6.49489 9.58731 6.46504C9.56173 6.43519 9.54894 6.39895 9.54894 6.35632V5.92142C9.54894 5.89584 9.5532 5.86599 9.56173 5.83188C9.57452 5.79351 9.59371 5.7594 9.61929 5.72955L11.506 3.11377C11.5614 3.04128 11.6403 3.00504 11.7426 3.00504H12.4397C12.4824 3.00504 12.5186 3.01997 12.5485 3.04981C12.5783 3.07966 12.5932 3.1159 12.5932 3.15854V5.75513H13.1624C13.2136 5.75513 13.252 5.77006 13.2776 5.7999C13.3074 5.82548 13.3223 5.86173 13.3223 5.90863V6.35632C13.3223 6.39895 13.3074 6.43519 13.2776 6.46504C13.2477 6.49489 13.2115 6.50981 13.1688 6.50981H12.5932V7.32844C12.5932 7.37108 12.5783 7.40732 12.5485 7.43716C12.5186 7.46701 12.4824 7.48193 12.4397 7.48193H11.8833ZM10.4379 5.78072H11.749V3.9324L10.4379 5.78072ZM15.1571 7.48193C15.1102 7.48193 15.0718 7.46701 15.042 7.43716C15.0164 7.40732 15.0036 7.37108 15.0036 7.32844V4.01554L14.0315 4.76382C13.9931 4.7894 13.9547 4.80006 13.9164 4.7958C13.878 4.78727 13.8439 4.76382 13.814 4.72545L13.5454 4.38009C13.5198 4.34171 13.5092 4.30121 13.5134 4.25857C13.522 4.21594 13.5454 4.18183 13.5838 4.15624L15.0164 3.04981C15.042 3.02849 15.0676 3.0157 15.0931 3.01144C15.1187 3.00717 15.1464 3.00504 15.1763 3.00504H15.7391C15.7817 3.00504 15.818 3.01997 15.8478 3.04981C15.8777 3.07966 15.8926 3.1159 15.8926 3.15854V7.32844C15.8926 7.37108 15.8777 7.40732 15.8478 7.43716C15.818 7.46701 15.7817 7.48193 15.7391 7.48193H15.1571Z" fill="white" fill-opacity="0.4"/>
<path fill-rule="evenodd" clip-rule="evenodd" d="M144.512 3.04553H144.055C143.803 3.04553 143.598 3.25006 143.598 3.50236V7.46151C143.598 7.71381 143.803 7.91834 144.055 7.91834H144.512C144.764 7.91834 144.969 7.71381 144.969 7.46151V3.50236C144.969 3.25006 144.764 3.04553 144.512 3.04553ZM141.923 4.11146H142.38C142.632 4.11146 142.837 4.31599 142.837 4.56829V7.46152C142.837 7.71381 142.632 7.91834 142.38 7.91834H141.923C141.671 7.91834 141.466 7.71381 141.466 7.46152V4.56829C141.466 4.31599 141.671 4.11146 141.923 4.11146ZM140.248 5.17738H139.791C139.539 5.17738 139.334 5.38191 139.334 5.63421V7.46151C139.334 7.71381 139.539 7.91833 139.791 7.91833H140.248C140.5 7.91833 140.705 7.71381 140.705 7.46151V5.63421C140.705 5.38191 140.5 5.17738 140.248 5.17738ZM138.116 6.09103H137.659C137.407 6.09103 137.203 6.29556 137.203 6.54786V7.46151C137.203 7.71381 137.407 7.91833 137.659 7.91833H138.116C138.369 7.91833 138.573 7.71381 138.573 7.46151V6.54786C138.573 6.29556 138.369 6.09103 138.116 6.09103Z" fill="white" fill-opacity="0.4"/>
<path fill-rule="evenodd" clip-rule="evenodd" d="M150.755 4.01297C151.771 4.01301 152.749 4.40319 153.485 5.10286C153.541 5.15688 153.629 5.1562 153.684 5.10134L154.214 4.5667C154.242 4.53887 154.257 4.50118 154.257 4.46196C154.257 4.42274 154.241 4.38523 154.213 4.35773C152.28 2.50657 149.23 2.50657 147.297 4.35773C147.269 4.38521 147.253 4.42271 147.252 4.46193C147.252 4.50115 147.268 4.53885 147.295 4.5667L147.826 5.10134C147.88 5.15628 147.969 5.15696 148.024 5.10286C148.761 4.40315 149.739 4.01297 150.755 4.01297ZM150.755 5.75237C151.313 5.75233 151.852 5.95971 152.266 6.33421C152.322 6.38736 152.41 6.3862 152.465 6.33161L152.994 5.79697C153.022 5.76893 153.038 5.73089 153.037 5.69135C153.037 5.65182 153.021 5.6141 152.992 5.58663C151.732 4.41514 149.78 4.41514 148.519 5.58663C148.491 5.6141 148.474 5.65184 148.474 5.69139C148.474 5.73093 148.489 5.76897 148.517 5.79697L149.047 6.33161C149.101 6.3862 149.189 6.38736 149.245 6.33421C149.659 5.95996 150.197 5.7526 150.755 5.75237ZM151.816 6.92268C151.817 6.96233 151.801 7.00055 151.773 7.02832L150.857 7.95202C150.83 7.97917 150.793 7.99444 150.755 7.99444C150.717 7.99444 150.68 7.97917 150.654 7.95202L149.737 7.02832C149.709 7.00053 149.693 6.96229 149.694 6.92265C149.695 6.88301 149.712 6.84547 149.742 6.81889C150.327 6.32449 151.184 6.32449 151.769 6.81889C151.798 6.84549 151.815 6.88304 151.816 6.92268Z" fill="white" fill-opacity="0.4"/>
<rect opacity="0.35" x="156.77" y="3.1216" width="9.59334" height="4.72053" rx="0.989789" stroke="white" stroke-opacity="0.4" stroke-width="0.456826"/>
<path opacity="0.4" d="M167.048 4.56824V6.39554C167.416 6.24078 167.655 5.88076 167.655 5.48189C167.655 5.08302 167.416 4.723 167.048 4.56824Z" fill="white" fill-opacity="0.4"/>
<rect x="157.455" y="3.80688" width="8.22286" height="3.35005" rx="0.609101" fill="white" fill-opacity="0.4"/>
<rect width="171.31" height="18.273" transform="translate(0 10.9639)" fill="#002953"/>
<g clip-path="url(#clip0_12413_92397)">
<path d="M9.07943 24.0613H9.77636C9.91234 24.0613 10.0143 23.9763 10.0143 23.8573C10.0143 23.7383 9.91234 23.6533 9.77636 23.6533H8.68848V24.4862L8.87546 24.1803C8.92645 24.1123 8.99444 24.0613 9.07943 24.0613Z" fill="white"/>
<path d="M9.07943 23.2446H9.79336C9.91234 23.2446 10.0313 23.1936 10.0313 23.0916C10.0313 22.9896 9.92934 22.9386 9.79336 22.9386H8.68848V23.6695L8.87546 23.3636C8.92645 23.2786 8.99444 23.2446 9.07943 23.2446Z" fill="white"/>
<path d="M7.31104 12.7911V27.4096H21.9295V12.7911H7.31104ZM12.4275 15.7148H15.0452C15.7251 15.7148 16.813 15.8168 16.813 16.8707C16.813 17.3806 16.439 17.7376 15.9971 17.8736C16.541 18.0606 16.813 18.4345 16.813 18.9275C16.813 19.9984 15.7761 20.1003 15.0452 20.1003H14.1613V19.4034C14.1613 19.0295 14.4843 19.0295 14.4843 19.0295H15.2832C15.4702 19.0295 15.5381 18.8765 15.5381 18.8765L15.8271 18.3155H14.5013C14.1953 18.3495 14.1783 18.7065 14.1783 18.7065V17.7886C14.1783 17.3806 14.5183 17.3636 14.5183 17.3636H15.5211C15.7251 17.3636 15.7931 17.2447 15.7931 17.2447L16.0991 16.6667H13.3794V20.1003H13.0054H12.4615V15.7148H12.4275ZM9.79277 24.4859H8.68789H8.05895V22.5141H9.79277C10.1497 22.5141 10.7277 22.5651 10.7277 23.024C10.7277 23.262 10.5237 23.415 10.2857 23.483C10.5747 23.568 10.7277 23.738 10.7277 23.9589C10.7277 24.4349 10.1837 24.4689 9.79277 24.4859ZM13.1414 24.4859L12.9374 24.1289H11.8155L12.0025 23.8229C12.0535 23.755 12.1215 23.721 12.2065 23.721H12.6825L12.2745 22.99L11.4076 24.4859H10.6597L11.8665 22.5141H12.6825L13.8893 24.4859H13.1414ZM15.3172 24.4859H14.2463C14.1613 24.4859 14.0933 24.4519 14.0423 24.3839L13.8553 24.0779H15.0622C15.2152 24.0779 15.3172 24.0099 15.3172 23.8569V22.5141H15.9461V23.9249C15.9631 24.3329 15.6741 24.4859 15.3172 24.4859ZM18.3768 24.4859L18.1729 24.1289H17.051L17.238 23.8229C17.289 23.755 17.3569 23.721 17.4419 23.721H17.9179L17.5099 22.99L16.643 24.4859H15.8951L17.102 22.5141H17.9179L19.1248 24.4859H18.3768ZM21.1815 23.9079C21.1815 24.3329 20.8926 24.4689 20.5356 24.4689H19.4647C19.3797 24.4689 19.3117 24.4349 19.2607 24.3669L19.0738 24.0609H20.2806C20.4336 24.0609 20.5526 23.9929 20.5526 23.8399V22.4971H21.1985V23.9079H21.1815Z" fill="white"/>
<path d="M39.5735 21.2906L40.8823 18.9279H39.9814L39.0805 20.7127L38.1626 18.9279H37.2617L38.5876 21.2906" fill="white"/>
<path d="M26.7058 18.9279H25.9409V21.2906H26.7058V18.9279Z" fill="white"/>
<path d="M28.8466 18.9279V20.2367L27.9457 18.9279H27.0278V21.2906H27.7927V19.9647L27.8097 19.9817L28.6937 21.2906H29.6116V18.9279H28.8466Z" fill="white"/>
<path d="M37.5152 21.2906L36.9713 20.3727L36.9373 20.3047C37.0563 20.2537 37.1412 20.1687 37.2092 20.0667C37.2942 19.9477 37.3282 19.8288 37.3282 19.6928C37.3282 19.5908 37.3112 19.5058 37.2772 19.4038C37.2432 19.3188 37.1922 19.2338 37.1243 19.1658C37.0563 19.0978 36.9543 19.0298 36.8693 18.9958C36.7503 18.9619 36.6483 18.9279 36.5293 18.9279H35.0845L35.2715 19.4208H36.2403C36.3083 19.4208 36.3763 19.4378 36.4273 19.4888C36.4783 19.5398 36.4953 19.5908 36.4953 19.6588C36.4953 19.7268 36.4783 19.7948 36.4273 19.8458C36.3763 19.8968 36.3083 19.9477 36.2403 19.9477H35.4584L35.6284 20.4407H36.1384L36.6313 21.3076H37.5152V21.2906Z" fill="white"/>
<path d="M32.3486 20.5425C32.3486 20.3895 32.2976 19.9476 31.6177 19.8286C31.5497 19.8116 31.4647 19.8116 31.4307 19.8116C31.3457 19.8116 31.2097 19.7946 31.0568 19.8116H31.0228C30.9378 19.8116 30.7338 19.7946 30.7338 19.6246C30.7338 19.6246 30.7168 19.4546 30.9718 19.4376H32.2806V18.9447C32.2806 18.9447 31.1587 18.9447 30.7848 18.9447C30.5298 18.9447 29.9689 18.9447 29.9009 19.4886C29.9009 19.4886 29.9009 19.4886 29.9009 19.5056V19.5226C29.9009 19.5396 29.9009 19.5906 29.9009 19.6076C29.9009 19.7266 29.9519 20.0666 30.4448 20.2026C30.4448 20.2026 30.6318 20.2706 30.9718 20.3046C30.9718 20.3046 31.2267 20.3046 31.2607 20.3046C31.2607 20.3046 31.4477 20.3046 31.4987 20.4235C31.4987 20.4235 31.6517 20.6955 31.2947 20.7805C31.2777 20.7805 31.2097 20.7975 31.1587 20.7805H30.0539V21.2904H31.2947C31.2947 21.2904 32.2636 21.3074 32.3826 20.6785C32.3486 20.6105 32.3486 20.5595 32.3486 20.5425Z" fill="white"/>
<path d="M23.3911 18.928V21.2908H23.4931H24.156V20.3389H24.819C24.9719 20.3389 25.0229 20.2369 25.0229 20.2369L25.2609 19.8459H24.173V19.6929C24.19 19.421 24.445 19.404 24.445 19.404H25.2439C25.4139 19.404 25.4649 19.319 25.4649 19.319L25.7029 18.911H23.3911V18.928Z" fill="white"/>
<path d="M33.3692 19.7098V19.8458H34.4571L34.2191 20.2367C34.2191 20.2367 34.1681 20.3387 34.0152 20.3387H33.3522V20.5597C33.3522 20.5597 33.3522 20.5767 33.3522 20.6107C33.3862 20.7297 33.5052 20.7977 33.6242 20.7977H34.5761H34.7801V21.2906H32.5703V18.9279H34.7801V19.4208H33.6242C33.4882 19.4208 33.3692 19.5398 33.3692 19.7098Z" fill="white"/>
</g>
<path d="M59.7001 22.1552C59.3822 22.1552 59.1154 22.1058 58.8997 22.0071C58.6841 21.9085 58.5178 21.7824 58.4009 21.6289C58.2876 21.4717 58.2273 21.3073 58.22 21.1355C58.22 21.1063 58.2309 21.0807 58.2529 21.0588C58.2785 21.0332 58.3077 21.0204 58.3406 21.0204H58.6202C58.664 21.0204 58.6969 21.0314 58.7188 21.0533C58.7408 21.0752 58.7554 21.1008 58.7627 21.13C58.7846 21.2178 58.8303 21.3055 58.8997 21.3932C58.9692 21.4772 59.0679 21.5485 59.1958 21.607C59.3273 21.6618 59.4954 21.6892 59.7001 21.6892C60.0144 21.6892 60.2446 21.6344 60.3908 21.5247C60.5407 21.4114 60.6156 21.2616 60.6156 21.0752C60.6156 20.9473 60.5754 20.845 60.495 20.7682C60.4182 20.6878 60.2995 20.6166 60.1387 20.5544C59.9779 20.4923 59.7695 20.4247 59.5137 20.3516C59.2469 20.2749 59.0258 20.1908 58.8504 20.0994C58.675 20.0081 58.5434 19.8948 58.4557 19.7596C58.3717 19.6243 58.3296 19.4526 58.3296 19.2443C58.3296 19.0469 58.3826 18.8715 58.4886 18.718C58.5946 18.5609 58.7481 18.4366 58.9491 18.3452C59.1501 18.2539 59.3913 18.2082 59.6727 18.2082C59.8993 18.2082 60.0966 18.2393 60.2647 18.3014C60.4365 18.3599 60.579 18.4403 60.6923 18.5426C60.8056 18.6413 60.8915 18.7491 60.95 18.866C61.0084 18.9793 61.0395 19.0908 61.0432 19.2004C61.0432 19.226 61.034 19.2516 61.0158 19.2772C60.9975 19.2991 60.9682 19.3101 60.928 19.3101H60.6375C60.6119 19.3101 60.5845 19.3027 60.5553 19.2881C60.5297 19.2735 60.5096 19.2461 60.495 19.2059C60.473 19.0561 60.389 18.93 60.2428 18.8276C60.0966 18.7253 59.9066 18.6742 59.6727 18.6742C59.4351 18.6742 59.2414 18.7198 59.0916 18.8112C58.9454 18.9026 58.8723 19.0451 58.8723 19.2388C58.8723 19.363 58.9071 19.4672 58.9765 19.5513C59.0459 19.6317 59.1556 19.7029 59.3054 19.765C59.4552 19.8272 59.6508 19.893 59.892 19.9624C60.1843 20.0428 60.4237 20.1287 60.6101 20.22C60.7965 20.3078 60.9335 20.4192 61.0212 20.5544C61.1126 20.686 61.1583 20.8559 61.1583 21.0643C61.1583 21.2945 61.098 21.4919 60.9774 21.6563C60.8568 21.8171 60.6868 21.9414 60.4676 22.0291C60.2519 22.1131 59.9961 22.1552 59.7001 22.1552ZM61.9316 22.1003C61.8951 22.1003 61.864 22.0894 61.8384 22.0675C61.8165 22.0419 61.8055 22.0108 61.8055 21.9743V19.3758C61.8055 19.3393 61.8165 19.3101 61.8384 19.2881C61.864 19.2625 61.8951 19.2498 61.9316 19.2498H62.1948C62.2313 19.2498 62.2605 19.2625 62.2825 19.2881C62.308 19.3101 62.3208 19.3393 62.3208 19.3758V21.9743C62.3208 22.0108 62.308 22.0419 62.2825 22.0675C62.2605 22.0894 62.2313 22.1003 62.1948 22.1003H61.9316ZM61.8878 18.718C61.8512 18.718 61.8202 18.707 61.7946 18.6851C61.7726 18.6595 61.7617 18.6285 61.7617 18.5919V18.2959C61.7617 18.2594 61.7726 18.2283 61.7946 18.2027C61.8202 18.1771 61.8512 18.1643 61.8878 18.1643H62.2331C62.2697 18.1643 62.3007 18.1771 62.3263 18.2027C62.3519 18.2283 62.3647 18.2594 62.3647 18.2959V18.5919C62.3647 18.6285 62.3519 18.6595 62.3263 18.6851C62.3007 18.707 62.2697 18.718 62.2331 18.718H61.8878ZM64.3008 23.3064C64.0523 23.3064 63.8477 23.2735 63.6869 23.2077C63.5297 23.1419 63.4055 23.0615 63.3141 22.9665C63.2264 22.8751 63.1624 22.7819 63.1222 22.6869C63.0857 22.5955 63.0656 22.5224 63.0619 22.4676C63.0583 22.4311 63.0692 22.4 63.0948 22.3744C63.1241 22.3489 63.1551 22.3361 63.188 22.3361H63.4511C63.484 22.3361 63.5114 22.3434 63.5334 22.358C63.5553 22.3726 63.5736 22.4037 63.5882 22.4512C63.6101 22.506 63.643 22.5663 63.6869 22.6321C63.7307 22.7015 63.7983 22.76 63.8897 22.8075C63.9811 22.8587 64.109 22.8843 64.2734 22.8843C64.4452 22.8843 64.5895 22.8605 64.7065 22.813C64.8234 22.7655 64.9112 22.6851 64.9696 22.5718C65.0318 22.4585 65.0628 22.3013 65.0628 22.1003V21.7276C64.9751 21.8409 64.86 21.9359 64.7175 22.0126C64.5749 22.0857 64.3959 22.1223 64.1802 22.1223C63.9756 22.1223 63.8002 22.0876 63.654 22.0181C63.5078 21.945 63.3872 21.8482 63.2922 21.7276C63.2008 21.6033 63.1314 21.4626 63.0839 21.3055C63.04 21.1483 63.0144 20.9839 63.0071 20.8121C63.0034 20.7098 63.0034 20.6093 63.0071 20.5106C63.0144 20.3388 63.04 20.1744 63.0839 20.0172C63.1314 19.8601 63.2008 19.7194 63.2922 19.5951C63.3872 19.4709 63.5078 19.374 63.654 19.3046C63.8002 19.2315 63.9756 19.1949 64.1802 19.1949C64.3995 19.1949 64.5804 19.2351 64.7229 19.3155C64.8691 19.3959 64.9879 19.4964 65.0793 19.617V19.3813C65.0793 19.3448 65.0902 19.3137 65.1122 19.2881C65.1377 19.2625 65.1688 19.2498 65.2053 19.2498H65.4575C65.4941 19.2498 65.5251 19.2625 65.5507 19.2881C65.5763 19.3137 65.5891 19.3448 65.5891 19.3813V22.04C65.5891 22.2849 65.5471 22.5023 65.463 22.6924C65.3826 22.8824 65.2474 23.0323 65.0573 23.1419C64.871 23.2515 64.6188 23.3064 64.3008 23.3064ZM64.2899 21.6837C64.4726 21.6837 64.6188 21.6417 64.7284 21.5576C64.8417 21.4736 64.9239 21.3676 64.9751 21.2397C65.0299 21.1118 65.0592 20.982 65.0628 20.8505C65.0665 20.7993 65.0683 20.7372 65.0683 20.6641C65.0683 20.5873 65.0665 20.5234 65.0628 20.4722C65.0592 20.3406 65.0299 20.2109 64.9751 20.083C64.9239 19.9551 64.8417 19.8491 64.7284 19.765C64.6188 19.681 64.4726 19.639 64.2899 19.639C64.1071 19.639 63.961 19.681 63.8513 19.765C63.7417 19.8455 63.6631 19.9533 63.6156 20.0885C63.5681 20.22 63.5407 20.3626 63.5334 20.5161C63.5297 20.6111 63.5297 20.7079 63.5334 20.8066C63.5407 20.9601 63.5681 21.1045 63.6156 21.2397C63.6631 21.3712 63.7417 21.4791 63.8513 21.5631C63.961 21.6435 64.1071 21.6837 64.2899 21.6837ZM66.5302 22.1003C66.4937 22.1003 66.4626 22.0894 66.437 22.0675C66.4151 22.0419 66.4041 22.0108 66.4041 21.9743V19.3758C66.4041 19.3393 66.4151 19.3101 66.437 19.2881C66.4626 19.2625 66.4937 19.2498 66.5302 19.2498H66.7879C66.8244 19.2498 66.8536 19.2625 66.8756 19.2881C66.9012 19.3101 66.9139 19.3393 66.9139 19.3758V19.617C67.009 19.4928 67.1277 19.3923 67.2703 19.3155C67.4165 19.2351 67.6028 19.1949 67.8294 19.1949C68.067 19.1949 68.268 19.2479 68.4324 19.3539C68.6005 19.4562 68.7266 19.6006 68.8107 19.787C68.8984 19.9697 68.9423 20.1835 68.9423 20.4284V21.9743C68.9423 22.0108 68.9295 22.0419 68.9039 22.0675C68.882 22.0894 68.8527 22.1003 68.8162 22.1003H68.5421C68.5055 22.1003 68.4745 22.0894 68.4489 22.0675C68.427 22.0419 68.416 22.0108 68.416 21.9743V20.4558C68.416 20.1999 68.3539 20.0008 68.2296 19.8582C68.1053 19.7121 67.9226 19.639 67.6814 19.639C67.4548 19.639 67.2721 19.7121 67.1332 19.8582C66.998 20.0008 66.9304 20.1999 66.9304 20.4558V21.9743C66.9304 22.0108 66.9176 22.0419 66.892 22.0675C66.8701 22.0894 66.8409 22.1003 66.8043 22.1003H66.5302ZM71.1984 22.1003C71.1619 22.1003 71.1308 22.0894 71.1052 22.0675C71.0833 22.0419 71.0723 22.0108 71.0723 21.9743V19.3758C71.0723 19.3393 71.0833 19.3101 71.1052 19.2881C71.1308 19.2625 71.1619 19.2498 71.1984 19.2498H71.4615C71.4981 19.2498 71.5273 19.2625 71.5492 19.2881C71.5748 19.3101 71.5876 19.3393 71.5876 19.3758V21.9743C71.5876 22.0108 71.5748 22.0419 71.5492 22.0675C71.5273 22.0894 71.4981 22.1003 71.4615 22.1003H71.1984ZM71.1545 18.718C71.118 18.718 71.0869 18.707 71.0614 18.6851C71.0394 18.6595 71.0285 18.6285 71.0285 18.5919V18.2959C71.0285 18.2594 71.0394 18.2283 71.0614 18.2027C71.0869 18.1771 71.118 18.1643 71.1545 18.1643H71.4999C71.5365 18.1643 71.5675 18.1771 71.5931 18.2027C71.6187 18.2283 71.6315 18.2594 71.6315 18.2959V18.5919C71.6315 18.6285 71.6187 18.6595 71.5931 18.6851C71.5675 18.707 71.5365 18.718 71.4999 18.718H71.1545ZM72.526 22.1003C72.4895 22.1003 72.4584 22.0894 72.4329 22.0675C72.4109 22.0419 72.4 22.0108 72.4 21.9743V19.3758C72.4 19.3393 72.4109 19.3101 72.4329 19.2881C72.4584 19.2625 72.4895 19.2498 72.526 19.2498H72.7837C72.8202 19.2498 72.8495 19.2625 72.8714 19.2881C72.897 19.3101 72.9098 19.3393 72.9098 19.3758V19.617C73.0048 19.4928 73.1236 19.3923 73.2661 19.3155C73.4123 19.2351 73.5987 19.1949 73.8253 19.1949C74.0628 19.1949 74.2638 19.2479 74.4283 19.3539C74.5964 19.4562 74.7225 19.6006 74.8065 19.787C74.8942 19.9697 74.9381 20.1835 74.9381 20.4284V21.9743C74.9381 22.0108 74.9253 22.0419 74.8997 22.0675C74.8778 22.0894 74.8485 22.1003 74.812 22.1003H74.5379C74.5014 22.1003 74.4703 22.0894 74.4447 22.0675C74.4228 22.0419 74.4118 22.0108 74.4118 21.9743V20.4558C74.4118 20.1999 74.3497 20.0008 74.2254 19.8582C74.1012 19.7121 73.9185 19.639 73.6772 19.639C73.4507 19.639 73.2679 19.7121 73.1291 19.8582C72.9938 20.0008 72.9262 20.1999 72.9262 20.4558V21.9743C72.9262 22.0108 72.9134 22.0419 72.8879 22.0675C72.8659 22.0894 72.8367 22.1003 72.8001 22.1003H72.526Z" fill="white"/>
<path d="M76.8349 21.1094C76.7735 21.1752 76.6668 21.1819 76.5966 21.1243C76.5319 21.0711 76.5208 20.9817 76.5678 20.9165L76.5808 20.9007L77.3277 20.0999L76.5808 19.2991C76.5241 19.2383 76.5258 19.1484 76.5816 19.0896L76.5966 19.0756C76.6614 19.0224 76.7573 19.024 76.8199 19.0763L76.8349 19.0905L77.6789 19.9956C77.73 20.0503 77.7342 20.1298 77.6917 20.1887L77.6789 20.2042L76.8349 21.1094Z" fill="white"/>
<g clip-path="url(#clip1_12413_92397)">
<path d="M89.5378 25.1253C89.5378 25.3776 89.3333 25.5822 89.081 25.5822C88.8287 25.5822 88.6241 25.3776 88.6241 25.1253V23.2784C88.6238 22.9202 88.4814 22.5769 88.2281 22.3236C87.9748 22.0704 87.6315 21.9279 87.2733 21.9276H83.5794C83.2213 21.9279 82.8779 22.0704 82.6246 22.3236C82.3714 22.5769 82.229 22.9202 82.2286 23.2784V25.1253C82.2286 25.3776 82.0241 25.5822 81.7718 25.5822C81.5195 25.5822 81.3149 25.3776 81.3149 25.1253V23.2784C81.3157 22.678 81.5545 22.1025 81.979 21.678C82.4035 21.2535 82.9791 21.0146 83.5794 21.0139H87.2733C87.8737 21.0146 88.4492 21.2535 88.8737 21.678C89.2983 22.1025 89.5371 22.678 89.5378 23.2784V25.1253Z" fill="white"/>
<path d="M85.426 20.1003C84.8839 20.1003 84.354 19.9396 83.9032 19.6384C83.4525 19.3372 83.1012 18.9091 82.8937 18.4083C82.6862 17.9074 82.632 17.3563 82.7377 16.8246C82.8435 16.2929 83.1045 15.8045 83.4879 15.4212C83.8712 15.0379 84.3596 14.7768 84.8913 14.6711C85.423 14.5653 85.9741 14.6196 86.4749 14.8271C86.9758 15.0345 87.4039 15.3858 87.705 15.8366C88.0062 16.2873 88.167 16.8173 88.167 17.3594C88.1662 18.0861 87.8772 18.7828 87.3634 19.2967C86.8495 19.8106 86.1527 20.0996 85.426 20.1003ZM85.426 15.5321C85.0646 15.5321 84.7113 15.6392 84.4108 15.84C84.1103 16.0408 83.8761 16.3262 83.7378 16.6601C83.5995 16.994 83.5633 17.3614 83.6338 17.7159C83.7043 18.0703 83.8784 18.3959 84.1339 18.6515C84.3895 18.907 84.7151 19.081 85.0695 19.1516C85.424 19.2221 85.7914 19.1859 86.1253 19.0476C86.4592 18.9093 86.7446 18.6751 86.9454 18.3746C87.1461 18.0741 87.2533 17.7208 87.2533 17.3594C87.2533 16.8747 87.0608 16.41 86.7181 16.0673C86.3754 15.7246 85.9106 15.5321 85.426 15.5321Z" fill="white"/>
</g>
<g clip-path="url(#clip2_12413_92397)">
<path d="M108.593 16.4809C108.465 16.3267 108.304 16.2027 108.122 16.1176C107.94 16.0326 107.742 15.9886 107.541 15.9889H100.155L100.136 15.8285C100.097 15.4952 99.9365 15.1879 99.6857 14.9649C99.435 14.7419 99.1111 14.6186 98.7755 14.6184H98.6741C98.553 14.6184 98.4368 14.6665 98.3511 14.7522C98.2654 14.8379 98.2173 14.9541 98.2173 15.0752C98.2173 15.1964 98.2654 15.3126 98.3511 15.3983C98.4368 15.4839 98.553 15.5321 98.6741 15.5321H98.7755C98.8874 15.5321 98.9954 15.5732 99.079 15.6475C99.1626 15.7219 99.2161 15.8243 99.2292 15.9354L99.8577 21.2803C99.923 21.8362 100.19 22.3487 100.608 22.7207C101.026 23.0926 101.567 23.2981 102.126 23.2981H106.897C107.018 23.2981 107.134 23.25 107.22 23.1643C107.306 23.0786 107.354 22.9624 107.354 22.8413C107.354 22.7201 107.306 22.6039 107.22 22.5182C107.134 22.4326 107.018 22.3844 106.897 22.3844H102.126C101.844 22.3836 101.568 22.2954 101.337 22.1318C101.107 21.9683 100.932 21.7374 100.838 21.4708H106.283C106.819 21.4708 107.338 21.2827 107.748 20.9392C108.159 20.5958 108.436 20.1189 108.531 19.5919L108.89 17.6028C108.926 17.4055 108.918 17.2027 108.867 17.0088C108.815 16.8149 108.722 16.6347 108.593 16.4809ZM107.993 17.4407L107.634 19.4297C107.577 19.7463 107.411 20.0327 107.164 20.2388C106.917 20.4449 106.605 20.5576 106.283 20.5571H100.693L100.263 16.9025H107.541C107.608 16.9021 107.675 16.9165 107.735 16.9447C107.796 16.9728 107.85 17.0141 107.894 17.0654C107.937 17.1168 107.968 17.1771 107.985 17.2419C108.003 17.3068 108.005 17.3746 107.993 17.4407Z" fill="white"/>
<path d="M101.415 25.5822C101.92 25.5822 102.329 25.1731 102.329 24.6685C102.329 24.1639 101.92 23.7549 101.415 23.7549C100.911 23.7549 100.501 24.1639 100.501 24.6685C100.501 25.1731 100.911 25.5822 101.415 25.5822Z" fill="white"/>
<path d="M105.983 25.5822C106.488 25.5822 106.897 25.1731 106.897 24.6685C106.897 24.1639 106.488 23.7549 105.983 23.7549C105.479 23.7549 105.07 24.1639 105.07 24.6685C105.07 25.1731 105.479 25.5822 105.983 25.5822Z" fill="white"/>
</g>
<path fill-rule="evenodd" clip-rule="evenodd" d="M117.508 16.8943C117.276 16.8943 117.088 17.0821 117.088 17.3138V22.887C117.088 23.1187 117.276 23.3065 117.508 23.3065H126.437C126.668 23.3065 126.856 23.1187 126.856 22.887V17.3138C126.856 17.0821 126.668 16.8943 126.437 16.8943H117.508ZM116.49 17.3138C116.49 16.7518 116.946 16.2963 117.508 16.2963H126.437C126.998 16.2963 127.454 16.7518 127.454 17.3138V22.887C127.454 23.4489 126.998 23.9045 126.437 23.9045H117.508C116.946 23.9045 116.49 23.4489 116.49 22.887V17.3138Z" fill="white"/>
<path fill-rule="evenodd" clip-rule="evenodd" d="M116.634 18.2689C116.634 18.1038 116.768 17.9699 116.933 17.9699H127.008C127.173 17.9699 127.307 18.1038 127.307 18.2689C127.307 18.4341 127.173 18.5679 127.008 18.5679H116.933C116.768 18.5679 116.634 18.4341 116.634 18.2689Z" fill="white"/>
<path d="M124.378 19.7644H124.433C124.436 19.773 124.438 19.7823 124.438 19.7916C124.438 19.801 124.436 19.8103 124.433 19.8188V21.8617C124.435 21.8732 124.435 21.8851 124.433 21.8966C124.426 21.904 124.417 21.9097 124.408 21.913C124.398 21.9164 124.388 21.9175 124.378 21.9161H124.068L124.033 21.8966C124.027 21.879 124.027 21.8599 124.033 21.8423V19.7994C124.03 19.7879 124.03 19.7759 124.033 19.7644C124.047 19.7498 124.066 19.7414 124.087 19.7411L124.378 19.7644Z" fill="white"/>
<path d="M121.78 19.7643H121.846C121.858 19.7749 121.867 19.7882 121.873 19.8031L122.475 20.9216L123.081 19.8031L123.104 19.7759C123.116 19.7666 123.13 19.7606 123.145 19.7585C123.16 19.7565 123.176 19.7585 123.19 19.7643H123.489C123.494 19.782 123.494 19.8009 123.489 19.8187V21.8615C123.492 21.873 123.492 21.885 123.489 21.8965C123.481 21.9035 123.472 21.9088 123.462 21.9122C123.452 21.9155 123.441 21.9168 123.43 21.9159H123.147L123.116 21.8965C123.112 21.8879 123.11 21.8787 123.11 21.8693C123.11 21.8599 123.112 21.8506 123.116 21.8421V20.541L122.681 21.3683L122.661 21.3955L122.638 21.4188C122.62 21.4314 122.598 21.4382 122.576 21.4382H122.421C122.408 21.4426 122.394 21.4426 122.382 21.4382C122.366 21.4241 122.352 21.407 122.343 21.3877L121.873 20.541V21.9042C121.868 21.9167 121.862 21.9284 121.854 21.9392C121.847 21.9463 121.838 21.9518 121.829 21.9552C121.819 21.9585 121.809 21.9597 121.799 21.9586H121.52C121.506 21.9555 121.494 21.9488 121.485 21.9392C121.477 21.9324 121.471 21.924 121.467 21.9146C121.463 21.9052 121.461 21.895 121.461 21.8848V19.842C121.462 19.8351 121.464 19.8285 121.467 19.8225C121.471 19.8165 121.475 19.8112 121.481 19.807C121.487 19.7992 121.496 19.793 121.505 19.7889C121.515 19.7849 121.525 19.7831 121.535 19.7837L121.78 19.7643Z" fill="white"/>
<path d="M120.927 19.7183C120.938 19.7155 120.959 19.73 120.97 19.7328C120.985 19.7472 120.994 19.7667 120.994 19.7872L120.992 20.0598C120.994 20.0713 120.994 20.0833 120.992 20.0948C120.985 20.1019 120.976 20.1074 120.967 20.1108C120.957 20.1141 120.947 20.1153 120.937 20.1142H119.916V20.6657H120.891C120.902 20.6627 120.914 20.6627 120.925 20.6657C120.938 20.681 120.945 20.7003 120.945 20.7201V20.9337C120.941 20.9465 120.934 20.9584 120.925 20.9686C120.907 20.9746 120.886 20.9746 120.867 20.9686H119.916V21.5357H120.984L121.019 21.5551C121.031 21.5707 121.038 21.5897 121.038 21.6095V21.8347C121.033 21.8471 121.027 21.8589 121.019 21.8697C121.011 21.8767 121.002 21.8821 120.992 21.8854C120.982 21.8887 120.971 21.89 120.96 21.8891H119.551L119.516 21.8697C119.512 21.8611 119.51 21.8519 119.51 21.8425C119.51 21.8331 119.512 21.8239 119.516 21.8153V19.7724C119.513 19.761 119.513 19.749 119.516 19.7375C119.522 19.7299 119.531 19.7238 119.54 19.7198C119.55 19.7158 119.56 19.7139 119.57 19.7142L120.927 19.7183Z" fill="white"/>
<g clip-path="url(#clip3_12413_92397)">
<path fill-rule="evenodd" clip-rule="evenodd" d="M139.37 18.4487H138.906V20.6846H139.37V18.4487ZM138.964 18.0552C139.012 18.1014 139.071 18.1245 139.143 18.1245C139.211 18.1245 139.268 18.1014 139.315 18.0552C139.362 18.009 139.386 17.9509 139.386 17.8808C139.386 17.8122 139.362 17.7549 139.315 17.7086C139.267 17.661 139.209 17.6371 139.14 17.6371C139.071 17.6371 139.012 17.661 138.964 17.7086C138.916 17.7549 138.893 17.8122 138.893 17.8808C138.893 17.9509 138.916 18.009 138.964 18.0552ZM135.228 22.9342H134.763V17.8531L135.228 18.0417V18.7774C135.302 18.6626 135.397 18.5694 135.513 18.4979C135.629 18.4264 135.766 18.3906 135.924 18.3906C136.086 18.3906 136.238 18.4211 136.38 18.4823C136.523 18.5434 136.648 18.6283 136.755 18.7371C136.862 18.8445 136.946 18.9689 137.007 19.1105C137.068 19.2521 137.099 19.4042 137.099 19.5666C137.099 19.7291 137.068 19.8819 137.007 20.025C136.946 20.1681 136.862 20.294 136.755 20.4028C136.648 20.5102 136.523 20.5944 136.38 20.6555C136.238 20.7166 136.086 20.7472 135.924 20.7472C135.766 20.7472 135.629 20.7114 135.513 20.6398C135.397 20.5668 135.302 20.4736 135.228 20.3604V22.9342ZM135.92 18.84C135.79 18.84 135.676 18.8728 135.578 18.9384C135.48 19.0039 135.403 19.0919 135.348 19.2022C135.293 19.311 135.266 19.4325 135.266 19.5666C135.266 19.7008 135.293 19.823 135.348 19.9333C135.403 20.0436 135.48 20.1316 135.578 20.1971C135.676 20.2627 135.79 20.2955 135.92 20.2955C136.048 20.2955 136.165 20.2635 136.272 20.1994C136.38 20.1338 136.465 20.0458 136.529 19.9355C136.593 19.8252 136.625 19.7023 136.625 19.5666C136.625 19.434 136.593 19.3125 136.529 19.2022C136.467 19.0919 136.382 19.0039 136.275 18.9384C136.168 18.8728 136.049 18.84 135.92 18.84ZM137.373 18.4487H137.838V18.6857C137.915 18.5933 138.01 18.5203 138.123 18.4666C138.236 18.4129 138.359 18.3861 138.489 18.3861C138.573 18.3861 138.655 18.3973 138.737 18.4197L138.552 18.8892C138.494 18.8668 138.436 18.8556 138.378 18.8556C138.28 18.8556 138.19 18.8802 138.108 18.9294C138.026 18.9771 137.96 19.0419 137.911 19.1239C137.862 19.2059 137.838 19.2968 137.838 19.3967V20.6846H137.373V18.4487ZM139.798 18.4487H140.262V18.6857C140.34 18.5933 140.434 18.5203 140.546 18.4666C140.659 18.4129 140.781 18.3861 140.912 18.3861C141.071 18.3861 141.218 18.4249 141.352 18.5024C141.486 18.5784 141.592 18.6798 141.671 18.8064C141.75 18.6798 141.855 18.5784 141.986 18.5024C142.118 18.4249 142.264 18.3861 142.424 18.3861C142.589 18.3861 142.739 18.4264 142.875 18.5068C143.01 18.5873 143.118 18.6954 143.198 18.8311C143.279 18.9667 143.319 19.1172 143.319 19.2827V20.6846H142.854V19.4012C142.854 19.3028 142.831 19.2126 142.783 19.1306C142.735 19.0487 142.671 18.9823 142.591 18.9317C142.511 18.881 142.421 18.8556 142.323 18.8556C142.225 18.8556 142.136 18.8795 142.055 18.9272C141.975 18.9749 141.911 19.0397 141.863 19.1217C141.816 19.2037 141.792 19.2968 141.792 19.4012V20.6846H141.327V19.4012C141.327 19.2968 141.303 19.2037 141.256 19.1217C141.208 19.0397 141.143 18.9749 141.062 18.9272C140.981 18.8795 140.892 18.8556 140.794 18.8556C140.697 18.8556 140.608 18.881 140.526 18.9317C140.445 18.9823 140.381 19.0487 140.334 19.1306C140.286 19.2126 140.262 19.3028 140.262 19.4012V20.6846H139.798V18.4487ZM144.053 20.5839C144.223 20.6898 144.41 20.7427 144.616 20.7427C144.839 20.7427 145.041 20.6801 145.221 20.5549C145.401 20.4282 145.535 20.2657 145.625 20.0675L145.154 19.9579C145.094 20.0578 145.017 20.136 144.924 20.1927C144.831 20.2493 144.729 20.2776 144.616 20.2776C144.508 20.2761 144.411 20.2515 144.323 20.2039C144.237 20.1561 144.165 20.0913 144.109 20.0093C144.054 19.9259 144.017 19.8327 143.997 19.7298H145.719C145.738 19.548 145.724 19.3766 145.676 19.2156C145.629 19.0531 145.554 18.91 145.453 18.7863C145.352 18.6611 145.23 18.5635 145.087 18.4934C144.944 18.4219 144.787 18.3861 144.616 18.3861C144.462 18.3861 144.318 18.4167 144.182 18.4778C144.047 18.5389 143.928 18.6238 143.825 18.7327C143.724 18.84 143.644 18.9652 143.586 19.1083C143.528 19.2499 143.499 19.4027 143.499 19.5666C143.499 19.7828 143.549 19.9803 143.649 20.1591C143.75 20.3365 143.885 20.4781 144.053 20.5839ZM145.25 19.3744H143.982C144.001 19.2655 144.04 19.1679 144.098 19.0815C144.157 18.9935 144.232 18.9242 144.321 18.8735C144.412 18.8228 144.51 18.7975 144.616 18.7975C144.723 18.7975 144.821 18.8236 144.91 18.8758C145.001 18.9264 145.076 18.9958 145.136 19.0837C145.197 19.1701 145.235 19.267 145.25 19.3744ZM145.604 21.3326H136.118L136.241 21.7022H145.727L145.604 21.3326Z" fill="white"/>
</g>
<g clip-path="url(#clip4_12413_92397)">
<path d="M163.269 21.8617L162.179 17.9316C161.946 17.0909 161.438 16.3523 160.737 15.8332C160.036 15.3142 159.182 15.0445 158.31 15.0672C157.438 15.09 156.598 15.4037 155.925 15.9586C155.252 16.5134 154.784 17.2775 154.595 18.1292L153.752 21.9246C153.711 22.1085 153.712 22.2992 153.754 22.4826C153.797 22.6661 153.881 22.8376 153.998 22.9845C154.116 23.1314 154.266 23.25 154.435 23.3315C154.605 23.413 154.791 23.4553 154.98 23.4554H156.492C156.588 23.9294 156.846 24.3556 157.22 24.6617C157.595 24.9678 158.064 25.135 158.547 25.135C159.031 25.135 159.5 24.9678 159.874 24.6617C160.249 24.3556 160.506 23.9294 160.602 23.4554H162.057C162.251 23.4553 162.442 23.4104 162.616 23.3243C162.79 23.2382 162.941 23.1131 163.058 22.9588C163.176 22.8046 163.256 22.6253 163.292 22.435C163.329 22.2447 163.321 22.0485 163.269 21.8617ZM158.547 24.2941C158.288 24.2931 158.035 24.2119 157.824 24.0618C157.613 23.9116 157.453 23.6998 157.366 23.4554H159.728C159.642 23.6998 159.482 23.9116 159.271 24.0618C159.059 24.2119 158.806 24.2931 158.547 24.2941ZM162.391 22.4509C162.352 22.5028 162.301 22.5448 162.243 22.5736C162.184 22.6023 162.12 22.6171 162.055 22.6166H154.98C154.917 22.6166 154.855 22.6025 154.798 22.5753C154.741 22.5481 154.692 22.5086 154.652 22.4596C154.613 22.4106 154.585 22.3534 154.571 22.2922C154.557 22.2311 154.557 22.1675 154.57 22.1062L155.414 18.3107C155.562 17.6423 155.93 17.0428 156.458 16.6074C156.987 16.172 157.646 15.9258 158.33 15.9078C159.015 15.8899 159.686 16.1013 160.236 16.5084C160.787 16.9155 161.185 17.495 161.369 18.1547L162.459 22.0848C162.477 22.147 162.48 22.2124 162.468 22.2759C162.456 22.3395 162.43 22.3994 162.391 22.4509Z" fill="white"/>
</g>
<rect width="171.31" height="33.3483" transform="translate(0 29.2368)" fill="#002953"/>
<rect x="7.30908" y="32.8915" width="140.245" height="19.1867" rx="1.8273" fill="white"/>
<path d="M17.2847 45.2314L15.6954 43.6421C16.1285 43.1124 16.3414 42.4365 16.2901 41.7542C16.2389 41.0719 15.9273 40.4354 15.4199 39.9763C14.9125 39.5173 14.2481 39.2708 13.5641 39.2879C12.8801 39.305 12.2288 39.5844 11.745 40.0682C11.2612 40.552 10.9818 41.2033 10.9647 41.8873C10.9476 42.5714 11.1941 43.2358 11.6531 43.7432C12.1121 44.2506 12.7486 44.5621 13.4309 44.6134C14.1132 44.6647 14.7892 44.4517 15.3189 44.0186L16.9082 45.6079C16.9584 45.6564 17.0257 45.6833 17.0955 45.6827C17.1653 45.6821 17.2321 45.654 17.2814 45.6047C17.3308 45.5553 17.3588 45.4885 17.3594 45.4187C17.36 45.3489 17.3332 45.2816 17.2847 45.2314ZM13.635 44.0884C13.2137 44.0884 12.8019 43.9634 12.4516 43.7294C12.1013 43.4953 11.8283 43.1626 11.6671 42.7734C11.5058 42.3842 11.4637 41.9559 11.5458 41.5427C11.628 41.1295 11.8309 40.75 12.1288 40.452C12.4267 40.1541 12.8063 39.9513 13.2195 39.8691C13.6327 39.7869 14.0609 39.8291 14.4502 39.9903C14.8394 40.1515 15.1721 40.4245 15.4061 40.7748C15.6402 41.1251 15.7651 41.537 15.7651 41.9583C15.7645 42.523 15.5399 43.0644 15.1405 43.4638C14.7412 43.8631 14.1998 44.0877 13.635 44.0884Z" fill="#FF6700"/>
<path d="M21.1819 44.5488C20.811 44.5488 20.4997 44.4913 20.2482 44.3761C19.9966 44.261 19.8026 44.1139 19.6662 43.9348C19.534 43.7515 19.4637 43.5596 19.4551 43.3592C19.4551 43.3251 19.4679 43.2953 19.4935 43.2697C19.5234 43.2399 19.5575 43.2249 19.5958 43.2249H19.922C19.9732 43.2249 20.0116 43.2377 20.0371 43.2633C20.0627 43.2889 20.0798 43.3187 20.0883 43.3528C20.1139 43.4552 20.1672 43.5575 20.2482 43.6598C20.3292 43.7579 20.4443 43.841 20.5935 43.9093C20.747 43.9732 20.9432 44.0052 21.1819 44.0052C21.5486 44.0052 21.8172 43.9412 21.9878 43.8133C22.1626 43.6812 22.25 43.5063 22.25 43.2889C22.25 43.1397 22.2031 43.0203 22.1093 42.9307C22.0198 42.8369 21.8812 42.7538 21.6936 42.6813C21.506 42.6088 21.2629 42.53 20.9645 42.4447C20.6532 42.3551 20.3953 42.2571 20.1906 42.1505C19.986 42.0439 19.8325 41.9117 19.7301 41.754C19.6321 41.5962 19.583 41.3958 19.583 41.1528C19.583 40.9225 19.6449 40.7179 19.7685 40.5388C19.8922 40.3555 20.0712 40.2105 20.3057 40.1039C20.5402 39.9973 20.8217 39.944 21.15 39.944C21.4143 39.944 21.6445 39.9803 21.8407 40.0527C22.0411 40.121 22.2074 40.2148 22.3395 40.3341C22.4717 40.4493 22.5719 40.575 22.6401 40.7115C22.7083 40.8437 22.7446 40.9737 22.7488 41.1016C22.7488 41.1315 22.7382 41.1613 22.7169 41.1912C22.6956 41.2167 22.6614 41.2295 22.6145 41.2295H22.2756C22.2457 41.2295 22.2138 41.221 22.1796 41.2039C22.1498 41.1869 22.1263 41.1549 22.1093 41.108C22.0837 40.9332 21.9856 40.7861 21.8151 40.6667C21.6445 40.5473 21.4228 40.4876 21.15 40.4876C20.8728 40.4876 20.6468 40.5409 20.472 40.6475C20.3015 40.7541 20.2162 40.9204 20.2162 41.1464C20.2162 41.2913 20.2567 41.4129 20.3377 41.5109C20.4187 41.6047 20.5466 41.6879 20.7215 41.7604C20.8963 41.8328 21.1244 41.9096 21.4058 41.9906C21.7469 42.0844 22.0262 42.1846 22.2436 42.2912C22.461 42.3935 22.6209 42.5236 22.7233 42.6813C22.8299 42.8348 22.8832 43.0331 22.8832 43.2761C22.8832 43.5447 22.8128 43.775 22.6721 43.9668C22.5314 44.1544 22.3331 44.2994 22.0773 44.4017C21.8258 44.4998 21.5273 44.5488 21.1819 44.5488ZM24.9686 44.5488C24.5251 44.5488 24.1734 44.4145 23.9133 44.1459C23.6532 43.873 23.5104 43.5021 23.4848 43.0331C23.4805 42.9776 23.4784 42.9073 23.4784 42.822C23.4784 42.7325 23.4805 42.66 23.4848 42.6046C23.5018 42.3018 23.5722 42.0375 23.6958 41.8115C23.8195 41.5813 23.9879 41.4043 24.2011 41.2807C24.4185 41.157 24.6722 41.0952 24.9622 41.0952C25.2862 41.0952 25.5569 41.1634 25.7744 41.2999C25.9961 41.4363 26.1645 41.6303 26.2796 41.8819C26.3948 42.1334 26.4523 42.4276 26.4523 42.7645V42.8732C26.4523 42.9201 26.4374 42.9563 26.4076 42.9819C26.382 43.0075 26.3479 43.0203 26.3052 43.0203H24.0924C24.0924 43.0245 24.0924 43.0331 24.0924 43.0459C24.0924 43.0587 24.0924 43.0693 24.0924 43.0778C24.1009 43.2527 24.1393 43.4168 24.2075 43.5703C24.2757 43.7195 24.3738 43.841 24.5017 43.9348C24.6339 44.0286 24.7873 44.0755 24.9622 44.0755C25.1157 44.0755 25.2436 44.0521 25.3459 44.0052C25.4482 43.9583 25.5314 43.9071 25.5953 43.8517C25.6593 43.792 25.7019 43.7451 25.7232 43.711C25.7616 43.6598 25.7915 43.63 25.8128 43.6215C25.8341 43.6087 25.8682 43.6023 25.9151 43.6023H26.2285C26.2669 43.6023 26.2988 43.6151 26.3244 43.6406C26.3543 43.662 26.3671 43.6939 26.3628 43.7366C26.3585 43.8005 26.3244 43.8794 26.2605 43.9732C26.1965 44.0628 26.1048 44.1523 25.9855 44.2418C25.8703 44.3314 25.7254 44.406 25.5506 44.4657C25.38 44.5211 25.186 44.5488 24.9686 44.5488ZM24.0924 42.579H25.8447V42.5598C25.8447 42.3679 25.8085 42.1974 25.736 42.0482C25.6678 41.8989 25.5676 41.7817 25.4354 41.6964C25.3033 41.6069 25.1455 41.5621 24.9622 41.5621C24.7788 41.5621 24.6211 41.6069 24.4889 41.6964C24.361 41.7817 24.2629 41.8989 24.1947 42.0482C24.1265 42.1974 24.0924 42.3679 24.0924 42.5598V42.579ZM28.1444 44.5488C27.9312 44.5488 27.7372 44.5062 27.5624 44.4209C27.3876 44.3356 27.2469 44.2205 27.1403 44.0755C27.0337 43.9306 26.9804 43.7664 26.9804 43.5831C26.9804 43.2889 27.0998 43.0544 27.3386 42.8796C27.5773 42.7048 27.8886 42.5896 28.2723 42.5342L29.2252 42.3999V42.2144C29.2252 42.0098 29.1656 41.8499 29.0462 41.7348C28.9311 41.6197 28.7413 41.5621 28.477 41.5621C28.3363 41.5621 28.2169 41.5834 28.1188 41.626C28.025 41.6687 27.9483 41.7199 27.8886 41.7795C27.8289 41.8392 27.782 41.8989 27.7479 41.9586C27.7308 41.997 27.7116 42.0247 27.6903 42.0418C27.6733 42.0588 27.6498 42.0673 27.62 42.0673H27.345C27.3066 42.0673 27.2725 42.0546 27.2426 42.029C27.217 41.9991 27.2043 41.965 27.2043 41.9266C27.2043 41.8627 27.2277 41.7838 27.2746 41.69C27.3258 41.5962 27.4025 41.5045 27.5048 41.415C27.6072 41.3255 27.7372 41.2508 27.895 41.1912C28.057 41.1272 28.2531 41.0952 28.4834 41.0952C28.7392 41.0952 28.9545 41.1293 29.1293 41.1975C29.3041 41.2615 29.4406 41.3489 29.5386 41.4598C29.641 41.5706 29.7134 41.6964 29.7561 41.8371C29.803 41.9778 29.8264 42.1206 29.8264 42.2656V44.3378C29.8264 44.3804 29.8115 44.4166 29.7817 44.4465C29.7561 44.4721 29.722 44.4849 29.6793 44.4849H29.3851C29.3382 44.4849 29.302 44.4721 29.2764 44.4465C29.2508 44.4166 29.238 44.3804 29.238 44.3378V44.0628C29.1826 44.1395 29.108 44.2162 29.0142 44.293C28.9204 44.3655 28.8031 44.4273 28.6624 44.4785C28.5217 44.5254 28.3491 44.5488 28.1444 44.5488ZM28.2787 44.0692C28.4535 44.0692 28.6134 44.0329 28.7584 43.9604C28.9033 43.8837 29.0163 43.7664 29.0973 43.6087C29.1826 43.4509 29.2252 43.2527 29.2252 43.0139V42.8348L28.4834 42.9435C28.1806 42.9862 27.9525 43.0587 27.799 43.161C27.6455 43.259 27.5688 43.3848 27.5688 43.5383C27.5688 43.6577 27.6029 43.7579 27.6711 43.8389C27.7436 43.9157 27.8332 43.9732 27.9397 44.0116C28.0506 44.05 28.1636 44.0692 28.2787 44.0692ZM30.8929 44.4849C30.8503 44.4849 30.8141 44.4721 30.7842 44.4465C30.7586 44.4166 30.7458 44.3804 30.7458 44.3378V41.3127C30.7458 41.27 30.7586 41.2338 30.7842 41.2039C30.8141 41.1741 30.8503 41.1592 30.8929 41.1592H31.1871C31.2298 41.1592 31.266 41.1741 31.2959 41.2039C31.3257 41.2338 31.3406 41.27 31.3406 41.3127V41.5941C31.4259 41.4491 31.5432 41.3404 31.6924 41.2679C31.8416 41.1954 32.0228 41.1592 32.236 41.1592H32.4854C32.5281 41.1592 32.5622 41.1741 32.5878 41.2039C32.6176 41.2295 32.6325 41.2636 32.6325 41.3063V41.5685C32.6325 41.6111 32.6176 41.6452 32.5878 41.6708C32.5622 41.6964 32.5281 41.7092 32.4854 41.7092H32.1017C31.8715 41.7092 31.6903 41.7774 31.5581 41.9138C31.4259 42.046 31.3598 42.2272 31.3598 42.4575V44.3378C31.3598 44.3804 31.3449 44.4166 31.315 44.4465C31.2852 44.4721 31.249 44.4849 31.2063 44.4849H30.8929ZM34.456 44.5488C34.1533 44.5488 33.8911 44.4913 33.6694 44.3761C33.4519 44.2568 33.2835 44.0883 33.1641 43.8709C33.0447 43.6492 32.9808 43.3848 32.9722 43.0778C32.968 43.0139 32.9659 42.9286 32.9659 42.822C32.9659 42.7154 32.968 42.6302 32.9722 42.5662C32.9808 42.2592 33.0447 41.997 33.1641 41.7795C33.2835 41.5578 33.4519 41.3894 33.6694 41.2743C33.8911 41.1549 34.1533 41.0952 34.456 41.0952C34.7033 41.0952 34.9144 41.1293 35.0892 41.1975C35.2683 41.2658 35.4154 41.3532 35.5305 41.4598C35.6456 41.5664 35.7309 41.6815 35.7863 41.8051C35.846 41.9288 35.878 42.046 35.8822 42.1569C35.8865 42.1995 35.8737 42.2336 35.8439 42.2592C35.814 42.2848 35.7778 42.2976 35.7351 42.2976H35.4281C35.3855 42.2976 35.3535 42.2891 35.3322 42.272C35.3109 42.2507 35.2896 42.2166 35.2683 42.1697C35.1915 41.9607 35.087 41.8137 34.9549 41.7284C34.8227 41.6431 34.6585 41.6005 34.4624 41.6005C34.2066 41.6005 33.9977 41.6793 33.8356 41.8371C33.6779 41.9949 33.5926 42.2485 33.5798 42.5982C33.5756 42.7517 33.5756 42.9009 33.5798 43.0459C33.5926 43.3998 33.6779 43.6556 33.8356 43.8133C33.9977 43.9668 34.2066 44.0436 34.4624 44.0436C34.6585 44.0436 34.8227 44.0009 34.9549 43.9157C35.087 43.8304 35.1915 43.6833 35.2683 43.4744C35.2896 43.4275 35.3109 43.3934 35.3322 43.372C35.3535 43.3507 35.3855 43.3401 35.4281 43.3401H35.7351C35.7778 43.3401 35.814 43.355 35.8439 43.3848C35.8737 43.4104 35.8865 43.4445 35.8822 43.4872C35.878 43.5767 35.8588 43.6684 35.8247 43.7622C35.7906 43.856 35.7351 43.9519 35.6584 44.05C35.5859 44.1438 35.4942 44.229 35.3834 44.3058C35.2725 44.3783 35.1403 44.438 34.9868 44.4849C34.8334 44.5275 34.6564 44.5488 34.456 44.5488ZM36.7952 44.4849C36.7526 44.4849 36.7164 44.4721 36.6865 44.4465C36.6609 44.4166 36.6481 44.3804 36.6481 44.3378V40.0911C36.6481 40.0485 36.6609 40.0144 36.6865 39.9888C36.7164 39.9589 36.7526 39.944 36.7952 39.944H37.115C37.1619 39.944 37.1982 39.9589 37.2237 39.9888C37.2493 40.0144 37.2621 40.0485 37.2621 40.0911V41.5813C37.3772 41.4363 37.5179 41.3191 37.6842 41.2295C37.8505 41.14 38.0616 41.0952 38.3174 41.0952C38.5945 41.0952 38.829 41.157 39.0209 41.2807C39.217 41.4001 39.3641 41.5685 39.4622 41.7859C39.5645 41.9991 39.6157 42.2485 39.6157 42.5342V44.3378C39.6157 44.3804 39.6029 44.4166 39.5773 44.4465C39.5517 44.4721 39.5155 44.4849 39.4686 44.4849H39.1488C39.1062 44.4849 39.0699 44.4721 39.0401 44.4465C39.0145 44.4166 39.0017 44.3804 39.0017 44.3378V42.5662C39.0017 42.2677 38.9292 42.0354 38.7843 41.8691C38.6393 41.6985 38.4261 41.6133 38.1447 41.6133C37.8804 41.6133 37.6672 41.6985 37.5051 41.8691C37.3431 42.0354 37.2621 42.2677 37.2621 42.5662V44.3378C37.2621 44.3804 37.2493 44.4166 37.2237 44.4465C37.1982 44.4721 37.1619 44.4849 37.115 44.4849H36.7952ZM42.4677 44.4849C42.4251 44.4849 42.3888 44.4721 42.359 44.4465C42.3334 44.4166 42.3206 44.3804 42.3206 44.3378V41.6708H41.777C41.7343 41.6708 41.6981 41.658 41.6683 41.6324C41.6427 41.6026 41.6299 41.5664 41.6299 41.5237V41.3063C41.6299 41.2636 41.6427 41.2295 41.6683 41.2039C41.6981 41.1741 41.7343 41.1592 41.777 41.1592H42.3206V40.8394C42.3206 40.6219 42.3568 40.4322 42.4293 40.2702C42.5018 40.1039 42.6169 39.976 42.7747 39.8865C42.9367 39.7969 43.152 39.7522 43.4206 39.7522H43.8044C43.847 39.7522 43.8811 39.7671 43.9067 39.7969C43.9365 39.8225 43.9515 39.8566 43.9515 39.8992V40.1167C43.9515 40.1593 43.9365 40.1956 43.9067 40.2254C43.8811 40.251 43.847 40.2638 43.8044 40.2638H43.4334C43.233 40.2638 43.0966 40.3171 43.0241 40.4237C42.9516 40.526 42.9154 40.6752 42.9154 40.8714V41.1592H43.7404C43.7831 41.1592 43.8172 41.1741 43.8427 41.2039C43.8726 41.2295 43.8875 41.2636 43.8875 41.3063V41.5237C43.8875 41.5664 43.8726 41.6026 43.8427 41.6324C43.8172 41.658 43.7831 41.6708 43.7404 41.6708H42.9154V44.3378C42.9154 44.3804 42.9005 44.4166 42.8706 44.4465C42.845 44.4721 42.8109 44.4849 42.7683 44.4849H42.4677ZM45.7486 44.5488C45.4246 44.5488 45.1538 44.487 44.9364 44.3633C44.7189 44.2397 44.5527 44.0692 44.4375 43.8517C44.3224 43.63 44.2585 43.3784 44.2457 43.097C44.2414 43.0245 44.2393 42.9329 44.2393 42.822C44.2393 42.7069 44.2414 42.6152 44.2457 42.547C44.2585 42.2613 44.3224 42.0098 44.4375 41.7923C44.5569 41.5749 44.7253 41.4043 44.9428 41.2807C45.1602 41.157 45.4288 41.0952 45.7486 41.0952C46.0684 41.0952 46.337 41.157 46.5545 41.2807C46.7719 41.4043 46.9382 41.5749 47.0533 41.7923C47.1727 42.0098 47.2388 42.2613 47.2516 42.547C47.2558 42.6152 47.258 42.7069 47.258 42.822C47.258 42.9329 47.2558 43.0245 47.2516 43.097C47.2388 43.3784 47.1748 43.63 47.0597 43.8517C46.9446 44.0692 46.7783 44.2397 46.5609 44.3633C46.3434 44.487 46.0727 44.5488 45.7486 44.5488ZM45.7486 44.0564C46.013 44.0564 46.224 43.9732 46.3818 43.8069C46.5395 43.6364 46.6248 43.3891 46.6376 43.065C46.6419 43.0011 46.644 42.9201 46.644 42.822C46.644 42.724 46.6419 42.6429 46.6376 42.579C46.6248 42.2549 46.5395 42.0098 46.3818 41.8435C46.224 41.6729 46.013 41.5877 45.7486 41.5877C45.4843 41.5877 45.2711 41.6729 45.1091 41.8435C44.9513 42.0098 44.8682 42.2549 44.8596 42.579C44.8554 42.6429 44.8532 42.724 44.8532 42.822C44.8532 42.9201 44.8554 43.0011 44.8596 43.065C44.8682 43.3891 44.9513 43.6364 45.1091 43.8069C45.2711 43.9732 45.4843 44.0564 45.7486 44.0564ZM48.2059 44.4849C48.1633 44.4849 48.127 44.4721 48.0972 44.4465C48.0716 44.4166 48.0588 44.3804 48.0588 44.3378V41.3127C48.0588 41.27 48.0716 41.2338 48.0972 41.2039C48.127 41.1741 48.1633 41.1592 48.2059 41.1592H48.5001C48.5427 41.1592 48.579 41.1741 48.6088 41.2039C48.6387 41.2338 48.6536 41.27 48.6536 41.3127V41.5941C48.7389 41.4491 48.8561 41.3404 49.0054 41.2679C49.1546 41.1954 49.3358 41.1592 49.549 41.1592H49.7984C49.841 41.1592 49.8752 41.1741 49.9007 41.2039C49.9306 41.2295 49.9455 41.2636 49.9455 41.3063V41.5685C49.9455 41.6111 49.9306 41.6452 49.9007 41.6708C49.8752 41.6964 49.841 41.7092 49.7984 41.7092H49.4147C49.1844 41.7092 49.0032 41.7774 48.8711 41.9138C48.7389 42.046 48.6728 42.2272 48.6728 42.4575V44.3378C48.6728 44.3804 48.6579 44.4166 48.628 44.4465C48.5982 44.4721 48.5619 44.4849 48.5193 44.4849H48.2059ZM52.0596 44.4849C52.017 44.4849 51.9808 44.4721 51.9509 44.4465C51.9253 44.4166 51.9125 44.3804 51.9125 44.3378V40.0911C51.9125 40.0485 51.9253 40.0144 51.9509 39.9888C51.9808 39.9589 52.017 39.944 52.0596 39.944H52.3602C52.4071 39.944 52.4434 39.9589 52.469 39.9888C52.4945 40.0144 52.5073 40.0485 52.5073 40.0911V44.3378C52.5073 44.3804 52.4945 44.4166 52.469 44.4465C52.4434 44.4721 52.4071 44.4849 52.3602 44.4849H52.0596ZM54.8236 44.5488C54.4995 44.5488 54.2288 44.487 54.0113 44.3633C53.7939 44.2397 53.6276 44.0692 53.5125 43.8517C53.3974 43.63 53.3334 43.3784 53.3206 43.097C53.3164 43.0245 53.3142 42.9329 53.3142 42.822C53.3142 42.7069 53.3164 42.6152 53.3206 42.547C53.3334 42.2613 53.3974 42.0098 53.5125 41.7923C53.6319 41.5749 53.8003 41.4043 54.0177 41.2807C54.2352 41.157 54.5038 41.0952 54.8236 41.0952C55.1433 41.0952 55.412 41.157 55.6294 41.2807C55.8469 41.4043 56.0131 41.5749 56.1283 41.7923C56.2476 42.0098 56.3137 42.2613 56.3265 42.547C56.3308 42.6152 56.3329 42.7069 56.3329 42.822C56.3329 42.9329 56.3308 43.0245 56.3265 43.097C56.3137 43.3784 56.2498 43.63 56.1347 43.8517C56.0195 44.0692 55.8533 44.2397 55.6358 44.3633C55.4184 44.487 55.1476 44.5488 54.8236 44.5488ZM54.8236 44.0564C55.0879 44.0564 55.299 43.9732 55.4567 43.8069C55.6145 43.6364 55.6998 43.3891 55.7126 43.065C55.7168 43.0011 55.7189 42.9201 55.7189 42.822C55.7189 42.724 55.7168 42.6429 55.7126 42.579C55.6998 42.2549 55.6145 42.0098 55.4567 41.8435C55.299 41.6729 55.0879 41.5877 54.8236 41.5877C54.5592 41.5877 54.346 41.6729 54.184 41.8435C54.0263 42.0098 53.9431 42.2549 53.9346 42.579C53.9303 42.6429 53.9282 42.724 53.9282 42.822C53.9282 42.9201 53.9303 43.0011 53.9346 43.065C53.9431 43.3891 54.0263 43.6364 54.184 43.8069C54.346 43.9732 54.5592 44.0564 54.8236 44.0564ZM58.0611 44.5488C57.8479 44.5488 57.6539 44.5062 57.4791 44.4209C57.3043 44.3356 57.1636 44.2205 57.057 44.0755C56.9504 43.9306 56.8971 43.7664 56.8971 43.5831C56.8971 43.2889 57.0165 43.0544 57.2553 42.8796C57.494 42.7048 57.8053 42.5896 58.189 42.5342L59.142 42.3999V42.2144C59.142 42.0098 59.0823 41.8499 58.9629 41.7348C58.8478 41.6197 58.658 41.5621 58.3937 41.5621C58.253 41.5621 58.1336 41.5834 58.0355 41.626C57.9417 41.6687 57.865 41.7199 57.8053 41.7795C57.7456 41.8392 57.6987 41.8989 57.6646 41.9586C57.6475 41.997 57.6284 42.0247 57.607 42.0418C57.59 42.0588 57.5665 42.0673 57.5367 42.0673H57.2617C57.2233 42.0673 57.1892 42.0546 57.1593 42.029C57.1338 41.9991 57.121 41.965 57.121 41.9266C57.121 41.8627 57.1444 41.7838 57.1913 41.69C57.2425 41.5962 57.3192 41.5045 57.4216 41.415C57.5239 41.3255 57.6539 41.2508 57.8117 41.1912C57.9737 41.1272 58.1698 41.0952 58.4001 41.0952C58.6559 41.0952 58.8712 41.1293 59.046 41.1975C59.2208 41.2615 59.3573 41.3489 59.4554 41.4598C59.5577 41.5706 59.6302 41.6964 59.6728 41.8371C59.7197 41.9778 59.7432 42.1206 59.7432 42.2656V44.3378C59.7432 44.3804 59.7282 44.4166 59.6984 44.4465C59.6728 44.4721 59.6387 44.4849 59.5961 44.4849H59.3019C59.255 44.4849 59.2187 44.4721 59.1931 44.4465C59.1676 44.4166 59.1548 44.3804 59.1548 44.3378V44.0628C59.0993 44.1395 59.0247 44.2162 58.9309 44.293C58.8371 44.3655 58.7199 44.4273 58.5792 44.4785C58.4385 44.5254 58.2658 44.5488 58.0611 44.5488ZM58.1954 44.0692C58.3702 44.0692 58.5301 44.0329 58.6751 43.9604C58.8201 43.8837 58.933 43.7664 59.0141 43.6087C59.0993 43.4509 59.142 43.2527 59.142 43.0139V42.8348L58.4001 42.9435C58.0974 42.9862 57.8693 43.0587 57.7158 43.161C57.5623 43.259 57.4855 43.3848 57.4855 43.5383C57.4855 43.6577 57.5196 43.7579 57.5878 43.8389C57.6603 43.9157 57.7499 43.9732 57.8565 44.0116C57.9673 44.05 58.0803 44.0692 58.1954 44.0692ZM60.8097 44.4849C60.767 44.4849 60.7308 44.4721 60.7009 44.4465C60.6754 44.4166 60.6626 44.3804 60.6626 44.3378V41.3063C60.6626 41.2636 60.6754 41.2295 60.7009 41.2039C60.7308 41.1741 60.767 41.1592 60.8097 41.1592H61.1103C61.1529 41.1592 61.187 41.1741 61.2126 41.2039C61.2424 41.2295 61.2574 41.2636 61.2574 41.3063V41.5877C61.3682 41.4427 61.5068 41.3255 61.6731 41.2359C61.8436 41.1421 62.0611 41.0952 62.3254 41.0952C62.6026 41.0952 62.8371 41.157 63.0289 41.2807C63.2251 41.4001 63.3721 41.5685 63.4702 41.7859C63.5725 41.9991 63.6237 42.2485 63.6237 42.5342V44.3378C63.6237 44.3804 63.6088 44.4166 63.5789 44.4465C63.5534 44.4721 63.5192 44.4849 63.4766 44.4849H63.1568C63.1142 44.4849 63.078 44.4721 63.0481 44.4465C63.0225 44.4166 63.0097 44.3804 63.0097 44.3378V42.5662C63.0097 42.2677 62.9373 42.0354 62.7923 41.8691C62.6473 41.6985 62.4341 41.6133 62.1527 41.6133C61.8884 41.6133 61.6752 41.6985 61.5132 41.8691C61.3554 42.0354 61.2765 42.2677 61.2765 42.5662V44.3378C61.2765 44.3804 61.2616 44.4166 61.2318 44.4465C61.2062 44.4721 61.1721 44.4849 61.1294 44.4849H60.8097ZM65.6923 44.5488C65.4536 44.5488 65.2489 44.519 65.0783 44.4593C64.9078 44.3996 64.7692 44.3271 64.6626 44.2418C64.556 44.1566 64.475 44.0713 64.4196 43.986C64.3684 43.9007 64.3407 43.8325 64.3365 43.7814C64.3322 43.7345 64.3471 43.6982 64.3812 43.6726C64.4153 43.647 64.4494 43.6343 64.4836 43.6343H64.7714C64.7927 43.6343 64.8097 43.6385 64.8225 43.647C64.8396 43.6513 64.8609 43.6684 64.8865 43.6982C64.9419 43.7579 65.0037 43.8176 65.072 43.8773C65.1402 43.937 65.2233 43.986 65.3214 44.0244C65.4237 44.0628 65.5495 44.0819 65.6987 44.0819C65.9162 44.0819 66.0952 44.0414 66.2359 43.9604C66.3766 43.8752 66.447 43.7515 66.447 43.5895C66.447 43.4829 66.4171 43.3976 66.3575 43.3337C66.302 43.2697 66.1997 43.2121 66.0505 43.161C65.9055 43.1098 65.7051 43.0565 65.4493 43.0011C65.1935 42.9414 64.9909 42.8689 64.8417 42.7836C64.6925 42.6941 64.5859 42.5896 64.5219 42.4703C64.458 42.3466 64.426 42.208 64.426 42.0546C64.426 41.8968 64.4729 41.7454 64.5667 41.6005C64.6605 41.4512 64.7969 41.3297 64.976 41.2359C65.1594 41.1421 65.3875 41.0952 65.6603 41.0952C65.8821 41.0952 66.0718 41.1229 66.2295 41.1784C66.3873 41.2338 66.5173 41.3041 66.6197 41.3894C66.722 41.4704 66.7988 41.5514 66.8499 41.6324C66.9011 41.7135 66.9288 41.7817 66.9331 41.8371C66.9373 41.8797 66.9245 41.916 66.8947 41.9458C66.8648 41.9714 66.8307 41.9842 66.7924 41.9842H66.5237C66.4939 41.9842 66.4683 41.9778 66.447 41.965C66.4299 41.9522 66.4129 41.9373 66.3958 41.9202C66.3532 41.8648 66.302 41.8094 66.2423 41.754C66.1869 41.6985 66.1123 41.6538 66.0185 41.6197C65.929 41.5813 65.8096 41.5621 65.6603 41.5621C65.4472 41.5621 65.2873 41.6069 65.1807 41.6964C65.0741 41.7859 65.0208 41.8989 65.0208 42.0354C65.0208 42.1164 65.0442 42.1889 65.0911 42.2528C65.138 42.3168 65.2276 42.3743 65.3598 42.4255C65.4919 42.4767 65.6881 42.5321 65.9481 42.5918C66.2295 42.6472 66.4513 42.7218 66.6133 42.8156C66.7753 42.9094 66.8904 43.0181 66.9586 43.1418C67.0269 43.2654 67.061 43.4083 67.061 43.5703C67.061 43.7494 67.0098 43.9135 66.9075 44.0628C66.8051 44.212 66.6517 44.3314 66.447 44.4209C66.2423 44.5062 65.9908 44.5488 65.6923 44.5488Z" fill="#666666"/>
<g clip-path="url(#clip5_12413_92397)">
<path d="M126.084 42.4841C126.084 41.2245 125.059 40.2 123.8 40.2C122.54 40.2 121.516 41.2245 121.516 42.4841C121.516 43.7438 122.54 44.7683 123.8 44.7683C125.059 44.7683 126.084 43.7438 126.084 42.4841ZM123.8 44.0069C122.96 44.0069 122.277 43.3239 122.277 42.4841C122.277 41.6444 122.96 40.9614 123.8 40.9614C124.639 40.9614 125.322 41.6444 125.322 42.4841C125.322 43.3239 124.639 44.0069 123.8 44.0069ZM122.277 46.6717C122.277 46.8822 122.107 47.0524 121.896 47.0524H121.135C120.085 47.0524 119.231 46.1985 119.231 45.149V44.3876C119.231 44.1771 119.402 44.0069 119.612 44.0069C119.823 44.0069 119.993 44.1771 119.993 44.3876V45.149C119.993 45.7786 120.505 46.291 121.135 46.291H121.896C122.107 46.291 122.277 46.4612 122.277 46.6717ZM128.368 44.3876V45.149C128.368 46.1985 127.514 47.0524 126.465 47.0524H125.703C125.493 47.0524 125.322 46.8822 125.322 46.6717C125.322 46.4612 125.493 46.291 125.703 46.291H126.465C127.094 46.291 127.607 45.7786 127.607 45.149V44.3876C127.607 44.1771 127.777 44.0069 127.987 44.0069C128.198 44.0069 128.368 44.1771 128.368 44.3876ZM128.368 39.8193V40.5807C128.368 40.7912 128.198 40.9614 127.987 40.9614C127.777 40.9614 127.607 40.7912 127.607 40.5807V39.8193C127.607 39.1897 127.094 38.6773 126.465 38.6773H125.703C125.493 38.6773 125.322 38.5071 125.322 38.2966C125.322 38.0861 125.493 37.9159 125.703 37.9159H126.465C127.514 37.9159 128.368 38.7698 128.368 39.8193ZM119.231 40.5807V39.8193C119.231 38.7698 120.085 37.9159 121.135 37.9159H121.896C122.107 37.9159 122.277 38.0861 122.277 38.2966C122.277 38.5071 122.107 38.6773 121.896 38.6773H121.135C120.505 38.6773 119.993 39.1897 119.993 39.8193V40.5807C119.993 40.7912 119.823 40.9614 119.612 40.9614C119.402 40.9614 119.231 40.7912 119.231 40.5807Z" fill="#666666"/>
</g>
<path fill-rule="evenodd" clip-rule="evenodd" d="M136.712 39.5172C136.712 38.6346 137.478 37.9166 138.419 37.9166C139.359 37.9166 140.125 38.6346 140.125 39.5172V42.6738C140.125 43.5503 139.359 44.2633 138.419 44.2633C137.478 44.2633 136.712 43.5453 136.712 42.6629V39.5172ZM138.419 43.5963C138.967 43.5963 139.414 43.1824 139.414 42.6738V39.5172C139.414 39.0023 138.967 38.5835 138.419 38.5835C137.87 38.5835 137.423 39.0023 137.423 39.5172V42.6628C137.423 43.1776 137.87 43.5963 138.419 43.5963Z" fill="#666666"/>
<path d="M140.753 42.4405C140.753 42.2564 140.912 42.1071 141.109 42.1071C141.305 42.1071 141.464 42.2564 141.464 42.4405V42.7073C141.464 44.1696 140.286 45.3788 138.774 45.5445V46.3862H139.355C139.551 46.3862 139.71 46.5355 139.71 46.7197C139.71 46.9039 139.551 47.0531 139.355 47.0531H137.482C137.286 47.0531 137.127 46.9039 137.127 46.7197C137.127 46.5355 137.286 46.3862 137.482 46.3862H138.063V45.5445C136.551 45.3789 135.373 44.1696 135.373 42.7073V42.4405C135.373 42.2564 135.532 42.1071 135.729 42.1071C135.925 42.1071 136.084 42.2564 136.084 42.4405V42.7073C136.084 43.9146 137.131 44.897 138.419 44.897C139.706 44.897 140.753 43.9146 140.753 42.7073V42.4405Z" fill="#666666"/>
<g clip-path="url(#clip6_12413_92397)">
<path d="M157.187 39.4395H156.425C155.901 39.4395 155.473 39.8666 155.473 40.3912V41.1526C155.473 41.6772 155.901 42.1043 156.425 42.1043H157.187C157.711 42.1043 158.138 41.6772 158.138 41.1526V40.3912C158.138 39.8666 157.711 39.4395 157.187 39.4395ZM157.377 41.1526C157.377 41.2577 157.292 41.3429 157.187 41.3429H156.425C156.32 41.3429 156.235 41.2577 156.235 41.1526V40.3912C156.235 40.2861 156.32 40.2009 156.425 40.2009H157.187C157.292 40.2009 157.377 40.2861 157.377 40.3912V41.1526ZM159.851 42.1043H160.613C161.137 42.1043 161.564 41.6772 161.564 41.1526V40.3912C161.564 39.8666 161.137 39.4395 160.613 39.4395H159.851C159.327 39.4395 158.9 39.8666 158.9 40.3912V41.1526C158.9 41.6772 159.327 42.1043 159.851 42.1043ZM159.661 40.3912C159.661 40.2861 159.746 40.2009 159.851 40.2009H160.613C160.718 40.2009 160.803 40.2861 160.803 40.3912V41.1526C160.803 41.2577 160.718 41.3429 160.613 41.3429H159.851C159.746 41.3429 159.661 41.2577 159.661 41.1526V40.3912ZM157.187 42.8657H156.425C155.901 42.8657 155.473 43.2928 155.473 43.8174V44.5788C155.473 45.1034 155.901 45.5305 156.425 45.5305H157.187C157.711 45.5305 158.138 45.1034 158.138 44.5788V43.8174C158.138 43.2928 157.711 42.8657 157.187 42.8657ZM157.377 44.5788C157.377 44.6839 157.292 44.7691 157.187 44.7691H156.425C156.32 44.7691 156.235 44.6839 156.235 44.5788V43.8174C156.235 43.7123 156.32 43.6271 156.425 43.6271H157.187C157.292 43.6271 157.377 43.7123 157.377 43.8174V44.5788ZM156.996 46.6726C156.996 46.8827 156.826 47.0533 156.615 47.0533H155.854C154.805 47.0533 153.951 46.1994 153.951 45.1498V44.3884C153.951 44.1783 154.121 44.0078 154.331 44.0078C154.542 44.0078 154.712 44.1783 154.712 44.3884V45.1498C154.712 45.7795 155.224 46.2919 155.854 46.2919H156.615C156.826 46.2919 156.996 46.4624 156.996 46.6726ZM163.087 44.3884V45.1498C163.087 46.1994 162.233 47.0533 161.184 47.0533H160.422C160.212 47.0533 160.042 46.8827 160.042 46.6726C160.042 46.4624 160.212 46.2919 160.422 46.2919H161.184C161.813 46.2919 162.326 45.7795 162.326 45.1498V44.3884C162.326 44.1783 162.496 44.0078 162.707 44.0078C162.917 44.0078 163.087 44.1783 163.087 44.3884ZM163.087 39.8202V40.5816C163.087 40.7917 162.917 40.9623 162.707 40.9623C162.496 40.9623 162.326 40.7917 162.326 40.5816V39.8202C162.326 39.1905 161.813 38.6781 161.184 38.6781H160.422C160.212 38.6781 160.042 38.5076 160.042 38.2974C160.042 38.0873 160.212 37.9167 160.422 37.9167H161.184C162.233 37.9167 163.087 38.7706 163.087 39.8202ZM153.951 40.5816V39.8202C153.951 38.7706 154.805 37.9167 155.854 37.9167H156.615C156.826 37.9167 156.996 38.0873 156.996 38.2974C156.996 38.5076 156.826 38.6781 156.615 38.6781H155.854C155.224 38.6781 154.712 39.1905 154.712 39.8202V40.5816C154.712 40.7917 154.542 40.9623 154.331 40.9623C154.121 40.9623 153.951 40.7917 153.951 40.5816ZM160.042 44.9595C160.042 45.2747 159.786 45.5305 159.471 45.5305C159.155 45.5305 158.9 45.2747 158.9 44.9595C158.9 44.6443 159.155 44.3884 159.471 44.3884C159.786 44.3884 160.042 44.6443 160.042 44.9595ZM160.993 42.8657C161.309 42.8657 161.564 43.1215 161.564 43.4367C161.564 43.7519 161.309 44.0078 160.993 44.0078C160.678 44.0078 160.422 43.7519 160.422 43.4367C160.422 43.1215 160.678 42.8657 160.993 42.8657ZM158.9 43.4367C158.9 43.1215 159.155 42.8657 159.471 42.8657C159.786 42.8657 160.042 43.1215 160.042 43.4367C160.042 43.7519 159.786 44.0078 159.471 44.0078C159.155 44.0078 158.9 43.7519 158.9 43.4367Z" fill="white"/>
</g>
<path d="M59.0734 58.894C59.037 58.894 59.0007 58.894 59.0007 58.8576C59.0007 58.8213 58.9644 58.8213 58.9644 58.785V55.9506C58.9644 55.9142 58.9644 55.8779 59.0007 55.8779C59.037 55.8779 59.037 55.8416 59.0734 55.8416H60.4179C60.6723 55.8416 60.8903 55.8779 61.0356 55.9506C61.181 56.0232 61.3263 56.1323 61.399 56.2413C61.4717 56.3866 61.508 56.532 61.508 56.7137C61.508 56.8227 61.4717 56.8954 61.4354 57.0044C61.399 57.0771 61.3627 57.1497 61.29 57.1861C61.2173 57.2224 61.181 57.2587 61.1447 57.2951C61.2537 57.3314 61.3627 57.4404 61.4354 57.5495C61.508 57.6585 61.5807 57.8038 61.5807 57.9855C61.5807 58.1672 61.5444 58.3489 61.4354 58.4943C61.3627 58.6396 61.2173 58.7486 61.072 58.8213C60.8903 58.894 60.7086 58.9303 60.4542 58.9303H59.0734V58.894ZM59.7638 57.0771H60.3452C60.4542 57.0771 60.5632 57.0407 60.5996 56.968C60.6359 56.8954 60.6723 56.8227 60.6723 56.75C60.6723 56.6773 60.6359 56.5683 60.5996 56.4956C60.5269 56.4593 60.4542 56.423 60.3089 56.423H59.7638V57.0771ZM59.7638 58.3489H60.3816C60.4906 58.3489 60.5996 58.3126 60.6723 58.2399C60.7449 58.1672 60.7813 58.0945 60.7813 57.9855C60.7449 57.8765 60.7086 57.8038 60.6359 57.7311C60.5632 57.6585 60.4906 57.6221 60.3452 57.6221H59.7638V58.3489Z" fill="white"/>
<path d="M61.8351 58.8941C61.7988 58.8941 61.7988 58.8941 61.7624 58.8578C61.7261 58.8578 61.7261 58.8215 61.7261 58.8215V58.7851L62.7435 55.9871C62.7435 55.9507 62.7799 55.9144 62.7799 55.9144C62.7799 55.9144 62.8526 55.8781 62.8889 55.8781H63.543C63.5793 55.8781 63.6157 55.8781 63.652 55.9144C63.6883 55.9507 63.6883 55.9507 63.7247 55.9871L64.7422 58.7851V58.8215C64.7422 58.8578 64.7422 58.8578 64.7058 58.8941C64.6695 58.9305 64.6695 58.9305 64.6331 58.9305H64.0881C64.0517 58.9305 64.0154 58.9305 63.9791 58.8941C63.9427 58.8578 63.9427 58.8578 63.9427 58.8215L63.761 58.3854H62.5982L62.4892 58.8215C62.4892 58.8215 62.4528 58.8578 62.4528 58.8941C62.4528 58.9305 62.3802 58.9305 62.3438 58.9305H61.8351V58.8941ZM62.8526 57.7313H63.652L63.2523 56.5685L62.8526 57.7313Z" fill="white"/>
<path d="M66.1229 58.9303C65.9412 58.9303 65.7959 58.894 65.6505 58.8576C65.5052 58.8213 65.3598 58.7486 65.2508 58.6759C65.1418 58.6033 65.0328 58.4943 64.9601 58.3489C64.8874 58.2399 64.8511 58.0945 64.8511 57.9128C64.8511 57.8765 64.8511 57.8765 64.8874 57.8402C64.8874 57.8038 64.9238 57.8038 64.9601 57.8038H65.5415C65.5778 57.8038 65.6142 57.8038 65.6505 57.8402C65.6869 57.8765 65.6869 57.8765 65.7232 57.9492C65.7232 58.0219 65.7595 58.0945 65.7959 58.1309C65.8322 58.1672 65.8685 58.2035 65.9412 58.2399C66.0139 58.2762 66.0866 58.2762 66.1593 58.2762C66.3046 58.2762 66.4136 58.2399 66.4863 58.1309C66.559 58.0219 66.5953 57.9128 66.5953 57.7311V56.4956H65.1781C65.1418 56.4956 65.1054 56.4956 65.1054 56.4593C65.0691 56.423 65.0691 56.423 65.0691 56.3866V55.9506C65.0691 55.9142 65.0691 55.8779 65.1054 55.8779C65.1418 55.8416 65.1418 55.8416 65.1781 55.8416H67.2857C67.3221 55.8416 67.3584 55.8416 67.3584 55.8779C67.3948 55.9142 67.4311 55.9142 67.4311 55.9506V57.7675C67.4311 58.0219 67.3584 58.2399 67.2494 58.4216C67.1404 58.6033 66.995 58.7123 66.8133 58.8213C66.5953 58.894 66.3773 58.9303 66.1229 58.9303Z" fill="white"/>
<path d="M67.7584 58.894C67.7221 58.894 67.7221 58.894 67.6858 58.8576C67.6494 58.8213 67.6494 58.8213 67.6494 58.785V58.7486L68.6669 55.9506C68.6669 55.9142 68.7032 55.8779 68.7032 55.8779C68.7032 55.8779 68.7759 55.8416 68.8122 55.8416H69.4663C69.5027 55.8416 69.539 55.8416 69.5753 55.8779C69.6117 55.9142 69.6117 55.9142 69.648 55.9506L70.6655 58.7486V58.785C70.6655 58.8213 70.6655 58.8213 70.6292 58.8576C70.5928 58.894 70.5928 58.894 70.5565 58.894H70.0841C70.0477 58.894 70.0114 58.894 69.9751 58.8576C69.9387 58.8213 69.9387 58.8213 69.9387 58.785L69.757 58.3489H68.5942L68.4489 58.8213C68.4489 58.8213 68.4125 58.8576 68.4125 58.894C68.4125 58.9303 68.3398 58.9303 68.3035 58.9303H67.7584V58.894ZM68.7759 57.7311H69.5753L69.1756 56.5683L68.7759 57.7311Z" fill="white"/>
<path d="M72.0824 58.9303C71.9007 58.9303 71.7553 58.894 71.61 58.8576C71.4646 58.8213 71.3193 58.7486 71.2103 58.6759C71.1013 58.6033 70.9922 58.4943 70.9196 58.3489C70.8469 58.2399 70.8105 58.0945 70.8105 57.9492C70.8105 57.9128 70.8105 57.9128 70.8469 57.8765C70.8469 57.8402 70.8832 57.8402 70.9196 57.8402H71.501C71.5373 57.8402 71.5737 57.8402 71.61 57.8765C71.6463 57.9128 71.6463 57.9128 71.6827 57.9855C71.6827 58.0582 71.719 58.1309 71.7553 58.1672C71.7917 58.2035 71.828 58.2399 71.9007 58.2762C71.9734 58.3126 72.0461 58.3126 72.1187 58.3126C72.2641 58.3126 72.3731 58.2762 72.4458 58.1672C72.5185 58.0582 72.5548 57.9492 72.5548 57.7675V56.4956H71.1376C71.1013 56.4956 71.0649 56.4956 71.0649 56.4593C71.0286 56.423 71.0286 56.423 71.0286 56.3866V55.9506C71.0286 55.9142 71.0286 55.8779 71.0649 55.8779C71.1013 55.8416 71.1013 55.8416 71.1376 55.8416H73.2452C73.2816 55.8416 73.3179 55.8416 73.3179 55.8779C73.3542 55.9142 73.3542 55.9142 73.3542 55.9506V57.7675C73.3542 58.0219 73.2816 58.2399 73.1725 58.4216C73.0635 58.6033 72.9182 58.7123 72.7365 58.8213C72.5548 58.894 72.3004 58.9303 72.0824 58.9303Z" fill="white"/>
<path d="M74.9894 58.894C74.953 58.894 74.9167 58.894 74.9167 58.8576C74.9167 58.8213 74.8804 58.8213 74.8804 58.785V55.9506C74.8804 55.9142 74.8804 55.8779 74.9167 55.8779C74.953 55.8779 74.953 55.8416 74.9894 55.8416H76.988C77.0243 55.8416 77.0607 55.8416 77.0607 55.8779C77.0607 55.9142 77.097 55.9142 77.097 55.9506V56.3866C77.097 56.423 77.097 56.4593 77.0607 56.4593C77.0243 56.4593 77.0243 56.4956 76.988 56.4956H75.6435V57.1497H76.9153C76.9517 57.1497 76.988 57.1497 76.988 57.1861C76.988 57.2224 76.988 57.2224 76.988 57.2587V57.6948C76.988 57.7311 76.988 57.7311 76.9517 57.7675C76.9153 57.8038 76.9153 57.8038 76.879 57.8038H75.6071V58.785C75.6071 58.8213 75.6071 58.8213 75.5708 58.8576C75.5345 58.894 75.5345 58.894 75.4981 58.894H74.9894Z" fill="white"/>
<path d="M77.6784 58.894C77.642 58.894 77.6057 58.894 77.6057 58.8576C77.6057 58.8213 77.5693 58.8213 77.5693 58.785V55.9506C77.5693 55.9142 77.5693 55.8779 77.6057 55.8779C77.642 55.8779 77.642 55.8416 77.6784 55.8416H78.2598C78.2961 55.8416 78.3324 55.8416 78.3324 55.8779C78.3688 55.9142 78.3688 55.9142 78.3688 55.9506V58.785C78.3688 58.8213 78.3688 58.8213 78.3324 58.8576C78.2961 58.894 78.2961 58.894 78.2598 58.894H77.6784Z" fill="white"/>
<path d="M79.0958 58.894C79.0595 58.894 79.0232 58.894 79.0232 58.8576C79.0232 58.8213 78.9868 58.8213 78.9868 58.785V55.9506C78.9868 55.9142 78.9868 55.8779 79.0232 55.8779C79.0595 55.8779 79.0595 55.8416 79.0958 55.8416H79.5319C79.5682 55.8416 79.6046 55.8416 79.6409 55.8779C79.6772 55.9142 79.6772 55.9142 79.6772 55.9142L80.7311 57.5858V55.9506C80.7311 55.9142 80.7311 55.8779 80.7674 55.8779C80.8037 55.8779 80.8037 55.8416 80.8401 55.8416H81.3488C81.3851 55.8416 81.4215 55.8416 81.4215 55.8779C81.4942 55.9142 81.4942 55.9142 81.4942 55.9506V58.785C81.4942 58.8213 81.4942 58.8576 81.4578 58.8576C81.4215 58.894 81.4215 58.894 81.3851 58.894H80.9128C80.8764 58.894 80.8401 58.894 80.8037 58.8576C80.7674 58.8213 80.7674 58.8213 80.7674 58.8213L79.7136 57.2224V58.8213C79.7136 58.8576 79.7136 58.8576 79.6772 58.894C79.6409 58.9303 79.6409 58.9303 79.6046 58.9303H79.0958V58.894Z" fill="white"/>
<path d="M81.9303 58.894C81.894 58.894 81.894 58.894 81.8576 58.8576C81.8213 58.8213 81.8213 58.8213 81.8213 58.785V58.7486L82.8388 55.9506C82.8388 55.9142 82.8751 55.8779 82.8751 55.8779C82.8751 55.8779 82.9478 55.8416 82.9841 55.8416H83.6382C83.6745 55.8416 83.7109 55.8416 83.7472 55.8779C83.7836 55.9142 83.7836 55.9142 83.8199 55.9506L84.8374 58.7486V58.785C84.8374 58.8213 84.8374 58.8213 84.801 58.8576C84.7647 58.894 84.7647 58.894 84.7284 58.894H84.256C84.2196 58.894 84.1833 58.894 84.1469 58.8576C84.1106 58.8213 84.1106 58.8213 84.1106 58.785L83.9289 58.3489H82.7661L82.6207 58.8213C82.6207 58.8213 82.5844 58.8576 82.5844 58.894C82.5844 58.9303 82.5117 58.9303 82.4754 58.9303H81.9303V58.894ZM82.9478 57.7311H83.7472L83.3475 56.5683L82.9478 57.7311Z" fill="white"/>
<path d="M85.3458 58.894C85.3095 58.894 85.2732 58.894 85.2732 58.8576C85.2732 58.8213 85.2368 58.8213 85.2368 58.785V55.9506C85.2368 55.9142 85.2368 55.8779 85.2732 55.8779C85.3095 55.8779 85.3095 55.8416 85.3458 55.8416H85.8182C85.8546 55.8416 85.8909 55.8416 85.9272 55.8779C85.9636 55.9142 85.9636 55.9142 85.9636 55.9142L87.0174 57.5858V55.9506C87.0174 55.9142 87.0174 55.8779 87.0537 55.8779C87.0901 55.8416 87.0901 55.8416 87.1264 55.8416H87.6352C87.6715 55.8416 87.7078 55.8416 87.7078 55.8779C87.7442 55.9142 87.7442 55.9142 87.7442 55.9506V58.785C87.7442 58.8213 87.7442 58.8576 87.7078 58.8576C87.6715 58.894 87.6715 58.894 87.6352 58.894H87.1628C87.1264 58.894 87.0901 58.894 87.0537 58.8576C87.0174 58.8213 87.0174 58.8213 87.0174 58.8213L85.9636 57.2224V58.8213C85.9636 58.8576 85.9636 58.8576 85.9272 58.894C85.8909 58.9303 85.8909 58.9303 85.8546 58.9303H85.3458V58.894Z" fill="white"/>
<path d="M89.5974 58.9304C89.3067 58.9304 89.0887 58.8941 88.907 58.7851C88.7253 58.6761 88.5436 58.5671 88.4346 58.3854C88.3256 58.2037 88.2529 57.9856 88.2529 57.7313C88.2529 57.6223 88.2529 57.4769 88.2529 57.3316C88.2529 57.1862 88.2529 57.0772 88.2529 56.9318C88.2529 56.6775 88.3256 56.4594 88.4346 56.2777C88.5436 56.096 88.689 55.9507 88.907 55.878C89.1251 55.8053 89.3431 55.7327 89.5974 55.7327C89.7791 55.7327 89.9608 55.769 90.1425 55.8053C90.2879 55.8417 90.4332 55.9144 90.5786 56.0234C90.7239 56.1324 90.7966 56.2777 90.8693 56.4231C90.942 56.5684 90.9783 56.7138 90.9783 56.8592C90.9783 56.8955 90.9783 56.8955 90.942 56.9318C90.9056 56.9318 90.9056 56.9682 90.8693 56.9682H90.2879C90.2515 56.9682 90.2152 56.9682 90.2152 56.9318C90.1789 56.9318 90.1789 56.8955 90.1789 56.8592C90.1425 56.7138 90.0698 56.6048 89.9972 56.5321C89.8882 56.4594 89.7791 56.4594 89.6701 56.4594C89.5248 56.4594 89.3794 56.4958 89.3067 56.6048C89.1251 56.6411 89.0887 56.7865 89.0887 57.0045C89.0887 57.2589 89.0887 57.4769 89.0887 57.7313C89.0887 57.9493 89.1614 58.0947 89.2341 58.1673C89.3431 58.24 89.4521 58.3127 89.5974 58.3127C89.7428 58.3127 89.8518 58.2764 89.9245 58.24C90.0335 58.1673 90.0698 58.0947 90.1062 57.913C90.1062 57.8766 90.1425 57.8403 90.1425 57.8403C90.1789 57.8403 90.1789 57.804 90.2152 57.804H90.7966C90.833 57.804 90.833 57.804 90.8693 57.8403C90.9056 57.8403 90.9056 57.8766 90.9056 57.913C90.9056 58.0583 90.8693 58.24 90.7966 58.349C90.7239 58.4944 90.6149 58.6034 90.5059 58.6761C90.3969 58.7488 90.2515 58.8214 90.0698 58.8941C89.9972 58.9304 89.8155 58.9304 89.5974 58.9304Z" fill="white"/>
<path d="M91.5236 58.894C91.4872 58.894 91.4509 58.894 91.4509 58.8576C91.4509 58.8213 91.4146 58.8213 91.4146 58.785V55.9506C91.4146 55.9142 91.4146 55.8779 91.4509 55.8779C91.4872 55.8779 91.4872 55.8416 91.5236 55.8416H93.5585C93.5949 55.8416 93.6312 55.8416 93.6312 55.8779C93.6312 55.9142 93.6675 55.9142 93.6675 55.9506V56.3503C93.6675 56.3866 93.6675 56.423 93.6312 56.423C93.5949 56.423 93.5949 56.4593 93.5585 56.4593H92.1777V57.0407H93.4858C93.5222 57.0407 93.5585 57.0407 93.5585 57.0771C93.5949 57.1134 93.5949 57.1134 93.5949 57.1497V57.5131C93.5949 57.5495 93.5949 57.5495 93.5585 57.5858C93.5222 57.6221 93.5222 57.6221 93.4858 57.6221H92.1777V58.2399H93.5949C93.6312 58.2399 93.6675 58.2399 93.6675 58.2762C93.7039 58.3126 93.7039 58.3126 93.7039 58.3489V58.7486C93.7039 58.785 93.7039 58.785 93.6675 58.8213C93.6312 58.8576 93.6312 58.8576 93.5949 58.8576H91.5236V58.894Z" fill="white"/>
<path d="M95.2662 58.894C95.2299 58.894 95.1936 58.894 95.1936 58.8576C95.1936 58.8213 95.1572 58.8213 95.1572 58.785V55.9506C95.1572 55.9142 95.1572 55.8779 95.1936 55.8779C95.2299 55.8779 95.2299 55.8416 95.2662 55.8416H95.8477C95.884 55.8416 95.9203 55.8416 95.9203 55.8779C95.9567 55.9142 95.9567 55.9142 95.9567 55.9506V58.2399H97.2649C97.3012 58.2399 97.3375 58.2399 97.3375 58.2762C97.3739 58.3126 97.3739 58.3126 97.3739 58.3489V58.785C97.3739 58.8213 97.3739 58.8213 97.3375 58.8576C97.3012 58.894 97.3012 58.894 97.2649 58.894H95.2662Z" fill="white"/>
<path d="M97.8463 58.894C97.81 58.894 97.7736 58.894 97.7736 58.8576C97.7736 58.8213 97.7373 58.8213 97.7373 58.785V55.9506C97.7373 55.9142 97.7373 55.8779 97.7736 55.8779C97.81 55.8779 97.81 55.8416 97.8463 55.8416H98.4277C98.4641 55.8416 98.5004 55.8416 98.5004 55.8779C98.5367 55.9142 98.5368 55.9142 98.5368 55.9506V58.785C98.5368 58.8213 98.5367 58.8213 98.5004 58.8576C98.4641 58.894 98.4641 58.894 98.4277 58.894H97.8463Z" fill="white"/>
<path d="M99.2633 58.894C99.227 58.894 99.227 58.894 99.1906 58.8576C99.1543 58.8213 99.1543 58.8213 99.1543 58.785V55.9506C99.1543 55.9142 99.1543 55.8779 99.1906 55.8779C99.227 55.8416 99.227 55.8416 99.2633 55.8416H99.7357C99.772 55.8416 99.8084 55.8416 99.8447 55.8779C99.8811 55.9142 99.8811 55.9142 99.8811 55.9506L100.644 57.3314L101.407 55.9506C101.407 55.9506 101.444 55.9142 101.444 55.8779C101.444 55.8416 101.516 55.8416 101.553 55.8416H102.025C102.061 55.8416 102.098 55.8416 102.098 55.8779C102.134 55.9142 102.134 55.9142 102.134 55.9506V58.785C102.134 58.8213 102.134 58.8213 102.098 58.8576C102.061 58.894 102.061 58.894 102.025 58.894H101.516C101.48 58.894 101.444 58.894 101.444 58.8576C101.407 58.8213 101.407 58.8213 101.407 58.785V57.1497L100.935 58.0582C100.935 58.0945 100.899 58.0945 100.862 58.1309C100.826 58.1672 100.79 58.1672 100.753 58.1672H100.535C100.499 58.1672 100.462 58.1672 100.426 58.1309C100.39 58.0945 100.39 58.0945 100.353 58.0582L99.8811 57.1497V58.785C99.8811 58.8213 99.8811 58.8213 99.8447 58.8576C99.8084 58.894 99.8084 58.894 99.772 58.894H99.2633Z" fill="white"/>
<path d="M102.861 58.894C102.825 58.894 102.788 58.894 102.788 58.8576C102.788 58.8213 102.752 58.8213 102.752 58.785V55.9506C102.752 55.9142 102.752 55.8779 102.788 55.8779C102.825 55.8779 102.825 55.8416 102.861 55.8416H103.442C103.479 55.8416 103.515 55.8416 103.515 55.8779C103.551 55.9142 103.551 55.9142 103.551 55.9506V58.785C103.551 58.8213 103.551 58.8213 103.515 58.8576C103.479 58.894 103.479 58.894 103.442 58.894H102.861Z" fill="white"/>
<path d="M104.968 58.894C104.932 58.894 104.896 58.894 104.896 58.8576C104.859 58.8213 104.859 58.8213 104.859 58.785V56.532H104.096C104.06 56.532 104.024 56.532 104.024 56.4956C104.024 56.4593 103.987 56.4593 103.987 56.423V55.9506C103.987 55.9142 103.987 55.8779 104.024 55.8779C104.06 55.8779 104.06 55.8416 104.096 55.8416H106.458C106.495 55.8416 106.531 55.8416 106.531 55.8779C106.567 55.9142 106.567 55.9142 106.567 55.9506V56.423C106.567 56.4593 106.567 56.4593 106.531 56.4956C106.495 56.532 106.495 56.532 106.458 56.532H105.695V58.785C105.695 58.8213 105.695 58.8213 105.659 58.8576C105.623 58.894 105.623 58.894 105.586 58.894H104.968Z" fill="white"/>
<path d="M107.04 58.894C107.004 58.894 106.967 58.894 106.967 58.8576C106.967 58.8213 106.931 58.8213 106.931 58.785V55.9506C106.931 55.9142 106.931 55.8779 106.967 55.8779C107.004 55.8779 107.004 55.8416 107.04 55.8416H109.075C109.111 55.8416 109.148 55.8416 109.148 55.8779C109.148 55.9142 109.184 55.9142 109.184 55.9506V56.3503C109.184 56.3866 109.184 56.423 109.148 56.423C109.111 56.423 109.111 56.4593 109.075 56.4593H107.694V57.0407H109.002C109.039 57.0407 109.075 57.0407 109.075 57.0771C109.111 57.1134 109.111 57.1134 109.111 57.1497V57.5131C109.111 57.5495 109.111 57.5495 109.075 57.5858C109.039 57.6221 109.039 57.6221 109.002 57.6221H107.694V58.2399H109.111C109.148 58.2399 109.184 58.2399 109.184 58.2762C109.22 58.3126 109.22 58.3126 109.22 58.3489V58.7486C109.22 58.785 109.22 58.785 109.184 58.8213C109.148 58.8576 109.148 58.8576 109.111 58.8576H107.04V58.894Z" fill="white"/>
<path d="M109.838 58.894C109.802 58.894 109.765 58.894 109.765 58.8576C109.765 58.8213 109.729 58.8213 109.729 58.785V55.9506C109.729 55.9142 109.729 55.8779 109.765 55.8779C109.802 55.8779 109.802 55.8416 109.838 55.8416H110.965C111.255 55.8416 111.51 55.8779 111.691 55.9869C111.909 56.0959 112.055 56.2049 112.164 56.3866C112.273 56.5683 112.345 56.7864 112.345 57.0407C112.345 57.1861 112.345 57.2951 112.345 57.3678C112.345 57.4768 112.345 57.5858 112.345 57.6948C112.345 57.9492 112.273 58.2035 112.164 58.3489C112.055 58.4943 111.909 58.6759 111.728 58.7486C111.546 58.8213 111.292 58.894 111.001 58.894H109.838ZM110.492 58.2762H110.965C111.074 58.2762 111.183 58.2399 111.292 58.2035C111.364 58.1672 111.437 58.0945 111.473 58.0219C111.51 57.9492 111.546 57.8402 111.546 57.6948C111.546 57.6221 111.546 57.5495 111.546 57.4768C111.546 57.4041 111.546 57.3314 111.546 57.2587C111.546 57.1861 111.546 57.1134 111.546 57.0407C111.546 56.859 111.473 56.7137 111.401 56.6047C111.292 56.4956 111.146 56.4593 110.965 56.4593H110.528V58.2762H110.492Z" fill="white"/>
<defs>
<clipPath id="clip0_12413_92397">
<rect width="33.5714" height="14.6184" fill="white" transform="translate(7.30908 12.7911)"/>
</clipPath>
<clipPath id="clip1_12413_92397">
<rect width="10.9638" height="10.9638" fill="white" transform="translate(79.9443 14.6184)"/>
</clipPath>
<clipPath id="clip2_12413_92397">
<rect width="10.9638" height="10.9638" fill="white" transform="translate(98.2173 14.6184)"/>
</clipPath>
<clipPath id="clip3_12413_92397">
<rect width="10.9638" height="10.9638" fill="white" transform="translate(134.763 14.6184)"/>
</clipPath>
<clipPath id="clip4_12413_92397">
<rect width="10.9638" height="10.9638" fill="white" transform="translate(153.037 14.6184)"/>
</clipPath>
<clipPath id="clip5_12413_92397">
<rect width="9.13651" height="9.13651" fill="white" transform="translate(119.231 37.9163)"/>
</clipPath>
<clipPath id="clip6_12413_92397">
<rect width="9.13651" height="9.13651" fill="white" transform="translate(153.951 37.9167)"/>
</clipPath>
</defs>
</svg>
