<svg width="7" height="9" viewBox="0 0 7 9" fill="none" xmlns="http://www.w3.org/2000/svg">
<path fill-rule="evenodd" clip-rule="evenodd" d="M6.98214 7.92045C6.98214 8.24041 6.72153 8.5 6.4003 8.5H0.581845C0.260618 8.5 0 8.24041 0 7.92045V4.44318C0 4.12322 0.260618 3.86364 0.581845 3.86364H0.775794V2.70455C0.775794 1.21946 2.00009 0 3.49107 0C4.98205 0 6.20635 1.21946 6.20635 2.70455V3.86364H6.4003C6.72153 3.86364 6.98214 4.12322 6.98214 4.44318V7.92045ZM1.93948 2.70454V3.86363H5.04266V2.70454C5.04266 1.85333 4.34566 1.15908 3.49107 1.15908C2.63649 1.15908 1.93948 1.85333 1.93948 2.70454Z" fill="#CCCCCC"/>
</svg>
