<svg width="14" height="14" viewBox="0 0 14 14" fill="none" xmlns="http://www.w3.org/2000/svg">
<g clip-path="url(#clip0_4262_25171)">
<circle cx="7" cy="7" r="7" fill="#B40000"/>
<path d="M6.41018 3H7.4399C7.67855 3 7.86681 3.20295 7.8489 3.44095L7.49909 8.08938C7.48299 8.30338 7.30468 8.46875 7.09009 8.46875H6.75997C6.54537 8.46875 6.36706 8.30335 6.35096 8.08938L6.00118 3.44095C5.98329 3.20295 6.17153 3 6.41018 3Z" fill="#E9F3FB"/>
<path d="M7.84875 3.44105L7.49875 8.08949C7.48289 8.30332 7.30434 8.46875 7.08996 8.46875H6.9248V3H7.43969C7.6784 3 7.86652 3.20289 7.84875 3.44105Z" fill="#D6E9F8"/>
<path d="M6.10547 10.3814V10.3842C6.10547 10.8365 6.47212 11.2031 6.92441 11.2031C7.37671 11.2031 7.74336 10.8365 7.74336 10.3842V10.3814C7.74336 9.92915 7.37671 9.5625 6.92441 9.5625C6.47212 9.5625 6.10547 9.92915 6.10547 10.3814Z" fill="#E9F3FB"/>
</g>
<defs>
<clipPath id="clip0_4262_25171">
<rect width="14" height="14" fill="white"/>
</clipPath>
</defs>
</svg>
