<svg width="158" height="158" viewBox="0 0 158 158" fill="none" xmlns="http://www.w3.org/2000/svg">
<g clip-path="url(#clip0_4266_26478)">
<path fill-rule="evenodd" clip-rule="evenodd" d="M71.3571 24.2139C45.7564 24.2139 25 44.9703 25 70.571C25 96.1717 45.7564 116.928 71.3571 116.928C79.5122 116.928 87.1757 114.822 93.8333 111.124V90.9354C93.8333 88.8985 95.0157 87.0405 96.8779 86.1514L117.354 76.3747C117.592 74.4735 117.714 72.5365 117.714 70.571C117.714 44.9703 96.9579 24.2139 71.3571 24.2139ZM83.4027 58.6846H86.8082C88.514 58.6846 89.8984 60.0691 89.8984 61.775C89.8984 63.481 88.514 64.8655 86.8082 64.8655H83.4027C81.9688 71.9118 75.7265 77.2274 68.2667 77.2274H63.3656L82.8094 96.6727C84.0146 97.878 84.0146 99.8373 82.8094 101.043C82.2099 101.648 81.4188 101.951 80.6277 101.951C79.8366 101.951 79.0455 101.648 78.4398 101.049L53.7178 76.325C52.834 75.4349 52.5682 74.1122 53.0503 72.9564C53.5262 71.8005 54.6572 71.0465 55.9057 71.0465H68.2667C72.2902 71.0465 75.6895 68.4566 76.9688 64.8655H55.9057C54.1999 64.8655 52.8155 63.481 52.8155 61.775C52.8155 60.0691 54.1999 58.6846 55.9057 58.6846H76.9688C75.6895 55.0934 72.2902 52.5036 68.2667 52.5036H55.9057C54.1999 52.5036 52.8155 51.1191 52.8155 49.4131C52.8155 47.7072 54.1999 46.3227 55.9057 46.3227H86.8082C88.514 46.3227 89.8984 47.7072 89.8984 49.4131C89.8984 51.1191 88.514 52.5036 86.8082 52.5036H80.5473C81.9132 54.3085 82.9392 56.3852 83.4027 58.6846Z" fill="#1778EB"/>
<path fill-rule="evenodd" clip-rule="evenodd" d="M103.141 91.7385C101.744 92.4054 100.857 93.7988 100.857 95.3266V112.487C100.857 114.329 101.471 116.517 102.485 118.646C103.814 121.438 105.778 123.819 107.825 125.179L119.754 133.103C121.126 134.014 122.924 134.013 124.294 133.098L136.163 125.179C139.896 122.699 143 116.887 143 112.487V95.3529C143 93.8268 142.115 92.4346 140.721 91.7669L123.699 83.6158C122.581 83.0806 121.276 83.0798 120.157 83.6138L103.141 91.7385ZM133.81 100.714C134.761 101.633 134.83 103.194 133.965 104.203L119.807 116.121C119.379 116.62 118.776 116.912 118.14 116.927C117.504 116.943 116.889 116.682 116.439 116.205L109.968 109.344C109.058 108.379 109.058 106.816 109.968 105.852C110.877 104.887 112.352 104.887 113.261 105.852L118.006 110.883L130.521 100.878C131.387 99.8695 132.859 99.7963 133.81 100.714Z" fill="#1778EB"/>
<mask id="mask0_4266_26478" style="mask-type:alpha" maskUnits="userSpaceOnUse" x="25" y="24" width="118" height="110">
<path fill-rule="evenodd" clip-rule="evenodd" d="M71.3571 24.2139C45.7564 24.2139 25 44.9703 25 70.571C25 96.1717 45.7564 116.928 71.3571 116.928C79.5122 116.928 87.1757 114.822 93.8333 111.124V90.9354C93.8333 88.8985 95.0157 87.0405 96.8779 86.1514L117.354 76.3747C117.592 74.4735 117.714 72.5365 117.714 70.571C117.714 44.9703 96.9579 24.2139 71.3571 24.2139ZM83.4027 58.6846H86.8082C88.514 58.6846 89.8984 60.0691 89.8984 61.775C89.8984 63.481 88.514 64.8655 86.8082 64.8655H83.4027C81.9688 71.9118 75.7265 77.2274 68.2667 77.2274H63.3656L82.8094 96.6727C84.0146 97.878 84.0146 99.8373 82.8094 101.043C82.2099 101.648 81.4188 101.951 80.6277 101.951C79.8366 101.951 79.0455 101.648 78.4398 101.049L53.7178 76.325C52.834 75.4349 52.5682 74.1122 53.0503 72.9564C53.5262 71.8005 54.6572 71.0465 55.9057 71.0465H68.2667C72.2902 71.0465 75.6895 68.4566 76.9688 64.8655H55.9057C54.1999 64.8655 52.8155 63.481 52.8155 61.775C52.8155 60.0691 54.1999 58.6846 55.9057 58.6846H76.9688C75.6895 55.0934 72.2902 52.5036 68.2667 52.5036H55.9057C54.1999 52.5036 52.8155 51.1191 52.8155 49.4131C52.8155 47.7072 54.1999 46.3227 55.9057 46.3227H86.8082C88.514 46.3227 89.8984 47.7072 89.8984 49.4131C89.8984 51.1191 88.514 52.5036 86.8082 52.5036H80.5473C81.9132 54.3085 82.9392 56.3852 83.4027 58.6846Z" fill="#AD1FCC"/>
<path fill-rule="evenodd" clip-rule="evenodd" d="M103.141 91.7385C101.744 92.4054 100.857 93.7988 100.857 95.3266V112.487C100.857 114.329 101.471 116.517 102.485 118.646C103.814 121.438 105.778 123.819 107.825 125.179L119.754 133.103C121.126 134.014 122.924 134.013 124.294 133.098L136.163 125.179C139.896 122.699 143 116.887 143 112.487V95.3529C143 93.8268 142.115 92.4346 140.721 91.7669L123.699 83.6158C122.581 83.0806 121.276 83.0798 120.157 83.6138L103.141 91.7385ZM133.81 100.714C134.761 101.633 134.83 103.194 133.965 104.203L119.807 116.121C119.379 116.62 118.776 116.912 118.14 116.927C117.504 116.943 116.889 116.682 116.439 116.205L109.968 109.344C109.058 108.379 109.058 106.816 109.968 105.852C110.877 104.887 112.352 104.887 113.261 105.852L118.006 110.883L130.521 100.878C131.387 99.8695 132.859 99.7963 133.81 100.714Z" fill="#AD1FCC"/>
</mask>
<g mask="url(#mask0_4266_26478)">
<path fill-rule="evenodd" clip-rule="evenodd" d="M24.0441 158.634C24.0441 158.634 40.9068 176.91 67.4213 175.887C93.9357 174.865 114.493 159.816 133.111 145.796C151.729 131.777 156.628 110.145 145.625 93.3262C134.622 76.507 117.37 83.6954 95.2475 72.8491C73.1256 62.0032 68.9036 55.8066 44.3525 58.5948C19.8014 61.3827 1.27524 88.7231 4.24077 117.727C7.20668 146.731 24.0441 158.634 24.0441 158.634" fill="#1778EB"/>
</g>
</g>
<defs>
<clipPath id="clip0_4266_26478">
<rect width="118" height="118" fill="white" transform="translate(25 20)"/>
</clipPath>
</defs>
</svg>
