<svg width="284" height="121" viewBox="0 0 284 121" fill="none" xmlns="http://www.w3.org/2000/svg">
<rect width="171.31" height="10.9638" transform="translate(55.3452 33.9473)" fill="#002953"/>
<path d="M60.1768 41.4287C60.1384 41.4287 60.1064 41.4159 60.0808 41.3903C60.0553 41.3605 60.0425 41.3264 60.0425 41.288C60.0425 41.2667 60.0446 41.2496 60.0489 41.2368C60.0574 41.2241 60.0638 41.2134 60.0681 41.2049L61.0082 39.9066C60.9229 39.9279 60.8334 39.9364 60.7396 39.9322C60.5264 39.9279 60.326 39.8874 60.1384 39.8106C59.9551 39.7296 59.793 39.623 59.6523 39.4909C59.5159 39.3544 59.4072 39.1988 59.3262 39.024C59.2494 38.8449 59.2111 38.6509 59.2111 38.442C59.2111 38.2501 59.2473 38.0625 59.3198 37.8792C59.3923 37.6916 59.4989 37.5232 59.6396 37.3739C59.7845 37.2247 59.9636 37.1074 60.1768 37.0222C60.3942 36.9326 60.6479 36.8879 60.9379 36.8879C61.2235 36.8879 61.4751 36.9284 61.6925 37.0094C61.91 37.0904 62.0912 37.2034 62.2362 37.3483C62.3854 37.489 62.4962 37.6511 62.5687 37.8344C62.6455 38.0177 62.6838 38.2117 62.6838 38.4164C62.6838 38.5997 62.654 38.7703 62.5943 38.928C62.5346 39.0858 62.46 39.2308 62.3705 39.3629C62.2852 39.4909 62.1999 39.6166 62.1146 39.7403L60.989 41.3008C60.972 41.3221 60.9464 41.3498 60.9123 41.3839C60.8824 41.4138 60.8355 41.4287 60.7716 41.4287H60.1768ZM60.9442 39.2542C61.0977 39.2542 61.2363 39.2222 61.36 39.1583C61.4879 39.0901 61.5881 38.9963 61.6606 38.8769C61.7373 38.7532 61.7757 38.6083 61.7757 38.442C61.7757 38.2714 61.7373 38.1265 61.6606 38.0071C61.5881 37.8834 61.4879 37.7896 61.36 37.7257C61.232 37.6575 61.0935 37.6234 60.9442 37.6234C60.7908 37.6234 60.6501 37.6575 60.5221 37.7257C60.3985 37.7896 60.2983 37.8834 60.2216 38.0071C60.1491 38.1265 60.1128 38.2714 60.1128 38.442C60.1128 38.6083 60.1491 38.7532 60.2216 38.8769C60.2983 38.9963 60.3985 39.0901 60.5221 39.1583C60.6501 39.2222 60.7908 39.2542 60.9442 39.2542ZM63.5037 39.1903C63.461 39.1903 63.4248 39.1753 63.3949 39.1455C63.3651 39.1157 63.3502 39.0794 63.3502 39.0368V38.4292C63.3502 38.3823 63.3651 38.3439 63.3949 38.3141C63.4248 38.2842 63.461 38.2693 63.5037 38.2693H64.1368C64.1837 38.2693 64.2221 38.2842 64.252 38.3141C64.2818 38.3439 64.2967 38.3823 64.2967 38.4292V39.0368C64.2967 39.0794 64.2818 39.1157 64.252 39.1455C64.2221 39.1753 64.1837 39.1903 64.1368 39.1903H63.5037ZM63.5037 41.4287C63.461 41.4287 63.4248 41.4138 63.3949 41.3839C63.3651 41.3541 63.3502 41.3179 63.3502 41.2752V40.6676C63.3502 40.6207 63.3651 40.5824 63.3949 40.5525C63.4248 40.5227 63.461 40.5078 63.5037 40.5078H64.1368C64.1837 40.5078 64.2221 40.5227 64.252 40.5525C64.2818 40.5824 64.2967 40.6207 64.2967 40.6676V41.2752C64.2967 41.3179 64.2818 41.3541 64.252 41.3839C64.2221 41.4138 64.1837 41.4287 64.1368 41.4287H63.5037ZM67.2285 41.4287C67.1859 41.4287 67.1497 41.4138 67.1198 41.3839C67.09 41.3541 67.075 41.3179 67.075 41.2752V40.4566H65.0476C65.0007 40.4566 64.9624 40.4417 64.9325 40.4118C64.9069 40.382 64.8942 40.3457 64.8942 40.3031V39.8682C64.8942 39.8426 64.8984 39.8128 64.9069 39.7787C64.9197 39.7403 64.9389 39.7062 64.9645 39.6763L66.8512 37.0605C66.9066 36.9881 66.9855 36.9518 67.0878 36.9518H67.7849C67.8276 36.9518 67.8638 36.9667 67.8937 36.9966C67.9235 37.0264 67.9384 37.0627 67.9384 37.1053V39.7019H68.5076C68.5588 39.7019 68.5972 39.7168 68.6228 39.7467C68.6526 39.7723 68.6675 39.8085 68.6675 39.8554V40.3031C68.6675 40.3457 68.6526 40.382 68.6228 40.4118C68.5929 40.4417 68.5567 40.4566 68.514 40.4566H67.9384V41.2752C67.9384 41.3179 67.9235 41.3541 67.8937 41.3839C67.8638 41.4138 67.8276 41.4287 67.7849 41.4287H67.2285ZM65.7831 39.7275H67.0942V37.8792L65.7831 39.7275ZM70.5023 41.4287C70.4554 41.4287 70.417 41.4138 70.3872 41.3839C70.3616 41.3541 70.3488 41.3179 70.3488 41.2752V37.9623L69.3767 38.7106C69.3383 38.7362 69.2999 38.7468 69.2616 38.7426C69.2232 38.734 69.1891 38.7106 69.1592 38.6722L68.8906 38.3269C68.865 38.2885 68.8544 38.248 68.8587 38.2053C68.8672 38.1627 68.8906 38.1286 68.929 38.103L70.3616 36.9966C70.3872 36.9753 70.4128 36.9625 70.4384 36.9582C70.4639 36.954 70.4917 36.9518 70.5215 36.9518H71.0843C71.1269 36.9518 71.1632 36.9667 71.193 36.9966C71.2229 37.0264 71.2378 37.0627 71.2378 37.1053V41.2752C71.2378 41.3179 71.2229 41.3541 71.193 41.3839C71.1632 41.4138 71.1269 41.4287 71.0843 41.4287H70.5023Z" fill="white" fill-opacity="0.4"/>
<path fill-rule="evenodd" clip-rule="evenodd" d="M199.857 36.9932H199.4C199.147 36.9932 198.943 37.1977 198.943 37.45V41.4091C198.943 41.6614 199.147 41.866 199.4 41.866H199.857C200.109 41.866 200.313 41.6614 200.313 41.4091V37.45C200.313 37.1977 200.109 36.9932 199.857 36.9932ZM197.268 38.0591H197.725C197.977 38.0591 198.182 38.2636 198.182 38.5159V41.4091C198.182 41.6614 197.977 41.866 197.725 41.866H197.268C197.016 41.866 196.811 41.6614 196.811 41.4091V38.5159C196.811 38.2636 197.016 38.0591 197.268 38.0591ZM195.593 39.125H195.136C194.884 39.125 194.679 39.3295 194.679 39.5818V41.4091C194.679 41.6614 194.884 41.866 195.136 41.866H195.593C195.845 41.866 196.05 41.6614 196.05 41.4091V39.5818C196.05 39.3295 195.845 39.125 195.593 39.125ZM193.461 40.0387H193.004C192.752 40.0387 192.547 40.2432 192.547 40.4955V41.4091C192.547 41.6614 192.752 41.866 193.004 41.866H193.461C193.713 41.866 193.918 41.6614 193.918 41.4091V40.4955C193.918 40.2432 193.713 40.0387 193.461 40.0387Z" fill="white" fill-opacity="0.4"/>
<path fill-rule="evenodd" clip-rule="evenodd" d="M206.1 37.9606C207.116 37.9606 208.094 38.3508 208.831 39.0505C208.886 39.1045 208.975 39.1038 209.029 39.049L209.559 38.5143C209.587 38.4865 209.603 38.4488 209.602 38.4096C209.602 38.3704 209.586 38.3329 209.558 38.3054C207.625 36.4542 204.575 36.4542 202.642 38.3054C202.614 38.3328 202.598 38.3703 202.598 38.4096C202.597 38.4488 202.613 38.4865 202.64 38.5143L203.171 39.049C203.225 39.1039 203.314 39.1046 203.37 39.0505C204.106 38.3508 205.084 37.9606 206.1 37.9606ZM206.1 39.7C206.659 39.7 207.197 39.9073 207.611 40.2818C207.667 40.335 207.755 40.3338 207.81 40.2792L208.339 39.7446C208.367 39.7166 208.383 39.6785 208.382 39.639C208.382 39.5995 208.366 39.5617 208.337 39.5343C207.077 38.3628 205.125 38.3628 203.864 39.5343C203.836 39.5617 203.82 39.5995 203.819 39.639C203.819 39.6786 203.834 39.7166 203.862 39.7446L204.392 40.2792C204.446 40.3338 204.534 40.335 204.59 40.2818C205.004 39.9076 205.542 39.7002 206.1 39.7ZM207.161 40.8703C207.162 40.91 207.146 40.9482 207.118 40.9759L206.202 41.8996C206.175 41.9268 206.138 41.9421 206.1 41.9421C206.062 41.9421 206.025 41.9268 205.999 41.8996L205.082 40.9759C205.054 40.9482 205.038 40.9099 205.039 40.8703C205.04 40.8306 205.057 40.7931 205.087 40.7665C205.672 40.2721 206.529 40.2721 207.114 40.7665C207.143 40.7931 207.16 40.8307 207.161 40.8703Z" fill="white" fill-opacity="0.4"/>
<rect opacity="0.35" x="212.115" y="37.0692" width="9.59334" height="4.72053" rx="0.989789" stroke="white" stroke-opacity="0.4" stroke-width="0.456826"/>
<path opacity="0.4" d="M222.393 38.5156V40.3429C222.761 40.1882 223 39.8281 223 39.4293C223 39.0304 222.761 38.6704 222.393 38.5156Z" fill="white" fill-opacity="0.4"/>
<rect x="212.8" y="37.7549" width="8.22286" height="3.35005" rx="0.609101" fill="white" fill-opacity="0.4"/>
<rect width="171.31" height="18.273" transform="translate(55.3452 44.9111)" fill="#002953"/>
<g clip-path="url(#clip0_12413_100609)">
<path d="M64.4246 58.0085H65.1216C65.2576 58.0085 65.3595 57.9236 65.3595 57.8046C65.3595 57.6856 65.2576 57.6006 65.1216 57.6006H64.0337V58.4335L64.2207 58.1275C64.2717 58.0595 64.3397 58.0085 64.4246 58.0085Z" fill="white"/>
<path d="M64.4246 57.1917H65.1386C65.2576 57.1917 65.3765 57.1407 65.3765 57.0387C65.3765 56.9367 65.2746 56.8857 65.1386 56.8857H64.0337V57.6167L64.2207 57.3107C64.2717 57.2257 64.3397 57.1917 64.4246 57.1917Z" fill="white"/>
<path d="M62.6562 46.7383V61.3567H77.2747V46.7383H62.6562ZM67.7727 49.662H70.3904C71.0703 49.662 72.1582 49.764 72.1582 50.8178C72.1582 51.3278 71.7843 51.6847 71.3423 51.8207C71.8862 52.0077 72.1582 52.3817 72.1582 52.8746C72.1582 53.9455 71.1213 54.0475 70.3904 54.0475H69.5065V53.3506C69.5065 52.9766 69.8295 52.9766 69.8295 52.9766H70.6284C70.8154 52.9766 70.8834 52.8236 70.8834 52.8236L71.1723 52.2627H69.8465C69.5405 52.2967 69.5235 52.6536 69.5235 52.6536V51.7357C69.5235 51.3278 69.8635 51.3108 69.8635 51.3108H70.8664C71.0703 51.3108 71.1383 51.1918 71.1383 51.1918L71.4443 50.6139H68.7246V54.0475H68.3506H67.8067V49.662H67.7727ZM65.138 58.433H64.0331H63.4042V56.4612H65.138C65.4949 56.4612 66.0729 56.5122 66.0729 56.9712C66.0729 57.2091 65.8689 57.3621 65.6309 57.4301C65.9199 57.5151 66.0729 57.6851 66.0729 57.9061C66.0729 58.382 65.5289 58.416 65.138 58.433ZM68.4866 58.433L68.2826 58.0761H67.1608L67.3477 57.7701C67.3987 57.7021 67.4667 57.6681 67.5517 57.6681H68.0277L67.6197 56.9372L66.7528 58.433H66.0049L67.2118 56.4612H68.0277L69.2345 58.433H68.4866ZM70.6624 58.433H69.5915C69.5065 58.433 69.4385 58.399 69.3875 58.331L69.2005 58.0251H70.4074C70.5604 58.0251 70.6624 57.9571 70.6624 57.8041V56.4612H71.2913V57.8721C71.3083 58.28 71.0193 58.433 70.6624 58.433ZM73.7221 58.433L73.5181 58.0761H72.3962L72.5832 57.7701C72.6342 57.7021 72.7022 57.6681 72.7872 57.6681H73.2631L72.8551 56.9372L71.9882 58.433H71.2403L72.4472 56.4612H73.2631L74.47 58.433H73.7221ZM76.5267 57.8551C76.5267 58.28 76.2378 58.416 75.8808 58.416H74.8099C74.7249 58.416 74.6569 58.382 74.606 58.314L74.419 58.0081H75.6258C75.7788 58.0081 75.8978 57.9401 75.8978 57.7871V56.4442H76.5437V57.8551H76.5267Z" fill="white"/>
<path d="M94.9187 55.2377L96.2275 52.875H95.3266L94.4257 54.6598L93.5078 52.875H92.6069L93.9328 55.2377" fill="white"/>
<path d="M82.051 52.875H81.2861V55.2377H82.051V52.875Z" fill="white"/>
<path d="M84.1918 52.875V54.1839L83.2909 52.875H82.373V55.2377H83.138V53.9119L83.155 53.9289L84.0389 55.2377H84.9568V52.875H84.1918Z" fill="white"/>
<path d="M92.8604 55.2377L92.3165 54.3198L92.2825 54.2519C92.4015 54.2009 92.4865 54.1159 92.5545 54.0139C92.6394 53.8949 92.6734 53.7759 92.6734 53.6399C92.6734 53.5379 92.6564 53.4529 92.6225 53.3509C92.5885 53.266 92.5375 53.181 92.4695 53.113C92.4015 53.045 92.2995 52.977 92.2145 52.943C92.0955 52.909 91.9935 52.875 91.8745 52.875H90.4297L90.6167 53.3679H91.5856C91.6536 53.3679 91.7215 53.3849 91.7725 53.4359C91.8235 53.4869 91.8405 53.5379 91.8405 53.6059C91.8405 53.6739 91.8235 53.7419 91.7725 53.7929C91.7215 53.8439 91.6536 53.8949 91.5856 53.8949H90.8036L90.9736 54.3878H91.4836L91.9765 55.2547H92.8604V55.2377Z" fill="white"/>
<path d="M87.6938 54.4904C87.6938 54.3374 87.6428 53.8955 86.9629 53.7765C86.8949 53.7595 86.8099 53.7595 86.7759 53.7595C86.6909 53.7595 86.555 53.7425 86.402 53.7595H86.368C86.283 53.7595 86.079 53.7425 86.079 53.5725C86.079 53.5725 86.062 53.4025 86.317 53.3855H87.6258V52.8926C87.6258 52.8926 86.504 52.8926 86.13 52.8926C85.875 52.8926 85.3141 52.8926 85.2461 53.4365C85.2461 53.4365 85.2461 53.4365 85.2461 53.4535V53.4705C85.2461 53.4875 85.2461 53.5385 85.2461 53.5555C85.2461 53.6745 85.2971 54.0145 85.79 54.1504C85.79 54.1504 85.977 54.2184 86.317 54.2524C86.317 54.2524 86.572 54.2524 86.6059 54.2524C86.6059 54.2524 86.7929 54.2524 86.8439 54.3714C86.8439 54.3714 86.9969 54.6434 86.6399 54.7284C86.6229 54.7284 86.555 54.7454 86.504 54.7284H85.3991V55.2383H86.6399C86.6399 55.2383 87.6088 55.2553 87.7278 54.6264C87.6938 54.5584 87.6938 54.5074 87.6938 54.4904Z" fill="white"/>
<path d="M78.7363 52.8754V55.2381H78.8383H79.5012V54.2862H80.1642C80.3172 54.2862 80.3682 54.1843 80.3682 54.1843L80.6061 53.7933H79.5182V53.6403C79.5352 53.3683 79.7902 53.3513 79.7902 53.3513H80.5891C80.7591 53.3513 80.8101 53.2664 80.8101 53.2664L81.0481 52.8584H78.7363V52.8754Z" fill="white"/>
<path d="M88.7144 53.6569V53.7929H89.8023L89.5643 54.1839C89.5643 54.1839 89.5134 54.2858 89.3604 54.2858H88.6974V54.5068C88.6974 54.5068 88.6974 54.5238 88.6974 54.5578C88.7314 54.6768 88.8504 54.7448 88.9694 54.7448H89.9213H90.1253V55.2377H87.9155V52.875H90.1253V53.3679H88.9694C88.8334 53.3679 88.7144 53.4869 88.7144 53.6569Z" fill="white"/>
</g>
<path d="M115.045 56.1017C114.727 56.1017 114.461 56.0542 114.245 55.9592C114.029 55.8605 113.863 55.7344 113.746 55.5809C113.633 55.4238 113.573 55.2575 113.565 55.0821C113.565 55.0528 113.576 55.0272 113.598 55.0053C113.624 54.9797 113.653 54.9669 113.686 54.9669H113.965C114.009 54.9669 114.042 54.9779 114.064 54.9998C114.086 55.0218 114.101 55.0473 114.108 55.0766C114.126 55.1643 114.17 55.252 114.239 55.3397C114.313 55.4238 114.413 55.495 114.541 55.5535C114.673 55.6083 114.841 55.6357 115.045 55.6357C115.36 55.6357 115.59 55.5809 115.736 55.4713C115.886 55.358 115.961 55.2081 115.961 55.0218C115.961 54.8938 115.921 54.7915 115.84 54.7148C115.763 54.6344 115.645 54.5631 115.484 54.501C115.323 54.4388 115.115 54.3712 114.859 54.2981C114.592 54.2214 114.371 54.1373 114.196 54.046C114.02 53.9546 113.889 53.8413 113.801 53.7061C113.717 53.5709 113.675 53.3991 113.675 53.1908C113.675 52.9935 113.728 52.818 113.834 52.6645C113.94 52.5074 114.091 52.3831 114.289 52.2918C114.49 52.2004 114.733 52.1547 115.018 52.1547C115.244 52.1547 115.442 52.1858 115.61 52.2479C115.782 52.3064 115.924 52.3868 116.038 52.4891C116.151 52.5878 116.237 52.6956 116.295 52.8126C116.354 52.9258 116.385 53.0373 116.388 53.1469C116.388 53.1725 116.379 53.1981 116.361 53.2237C116.343 53.2456 116.313 53.2566 116.273 53.2566H115.983C115.957 53.2566 115.93 53.2493 115.9 53.2347C115.875 53.22 115.855 53.1926 115.84 53.1524C115.818 53.0026 115.734 52.8765 115.588 52.7742C115.442 52.6718 115.252 52.6207 115.018 52.6207C114.78 52.6207 114.587 52.6664 114.437 52.7577C114.291 52.8491 114.218 52.9916 114.218 53.1853C114.218 53.3096 114.252 53.4137 114.322 53.4978C114.391 53.5782 114.501 53.6495 114.651 53.7116C114.8 53.7737 114.996 53.8395 115.237 53.9089C115.53 53.9893 115.769 54.0752 115.955 54.1666C116.142 54.2543 116.279 54.3658 116.366 54.501C116.458 54.6325 116.504 54.8025 116.504 55.0108C116.504 55.241 116.443 55.4384 116.323 55.6028C116.202 55.7636 116.032 55.8879 115.813 55.9756C115.597 56.0597 115.341 56.1017 115.045 56.1017ZM117.277 56.0469C117.24 56.0469 117.209 56.0359 117.184 56.014C117.162 55.9884 117.151 55.9573 117.151 55.9208V53.3224C117.151 53.2858 117.162 53.2566 117.184 53.2347C117.209 53.2091 117.24 53.1963 117.277 53.1963H117.54C117.577 53.1963 117.606 53.2091 117.628 53.2347C117.65 53.2566 117.661 53.2858 117.661 53.3224V55.9208C117.661 55.9573 117.65 55.9884 117.628 56.014C117.606 56.0359 117.577 56.0469 117.54 56.0469H117.277ZM117.233 52.6645C117.196 52.6645 117.165 52.6536 117.14 52.6316C117.118 52.6061 117.107 52.575 117.107 52.5385V52.2424C117.107 52.2059 117.118 52.1766 117.14 52.1547C117.165 52.1291 117.196 52.1163 117.233 52.1163H117.578C117.615 52.1163 117.644 52.1291 117.666 52.1547C117.692 52.1766 117.704 52.2059 117.704 52.2424V52.5385C117.704 52.575 117.692 52.6061 117.666 52.6316C117.644 52.6536 117.615 52.6645 117.578 52.6645H117.233ZM119.646 57.2529C119.398 57.2529 119.193 57.22 119.032 57.1542C118.875 57.0884 118.751 57.008 118.659 56.913C118.572 56.8217 118.508 56.7285 118.467 56.6334C118.431 56.5421 118.411 56.469 118.407 56.4142C118.403 56.3776 118.414 56.3466 118.44 56.321C118.469 56.2954 118.5 56.2826 118.533 56.2826H118.796C118.829 56.2826 118.857 56.2899 118.879 56.3045C118.901 56.3191 118.919 56.3502 118.933 56.3977C118.955 56.4525 118.988 56.5128 119.032 56.5786C119.076 56.6481 119.144 56.7065 119.235 56.754C119.326 56.8052 119.454 56.8308 119.619 56.8308C119.79 56.8308 119.935 56.807 120.052 56.7595C120.169 56.7157 120.256 56.6353 120.315 56.5183C120.377 56.405 120.408 56.2479 120.408 56.0469V55.6741C120.32 55.7874 120.205 55.8824 120.063 55.9592C119.92 56.0323 119.741 56.0688 119.525 56.0688C119.321 56.0688 119.145 56.0341 118.999 55.9646C118.853 55.8916 118.732 55.7947 118.637 55.6741C118.546 55.5498 118.477 55.4091 118.429 55.252C118.385 55.0949 118.36 54.9304 118.352 54.7586C118.349 54.6563 118.349 54.5558 118.352 54.4571C118.36 54.2854 118.385 54.1209 118.429 53.9638C118.477 53.8066 118.546 53.6659 118.637 53.5416C118.732 53.4174 118.853 53.3205 118.999 53.2511C119.145 53.178 119.321 53.1415 119.525 53.1415C119.745 53.1415 119.926 53.1835 120.068 53.2675C120.214 53.3479 120.333 53.4466 120.424 53.5636V53.3278C120.424 53.2913 120.435 53.2602 120.457 53.2347C120.483 53.2091 120.514 53.1963 120.551 53.1963H120.803C120.839 53.1963 120.87 53.2091 120.896 53.2347C120.922 53.2602 120.934 53.2913 120.934 53.3278V55.9866C120.934 56.2314 120.892 56.4489 120.808 56.6389C120.728 56.829 120.593 56.9788 120.403 57.0884C120.216 57.1981 119.964 57.2529 119.646 57.2529ZM119.635 55.6303C119.818 55.6303 119.964 55.5882 120.074 55.5042C120.187 55.4201 120.269 55.3141 120.32 55.1862C120.375 55.0583 120.404 54.9286 120.408 54.797C120.412 54.7458 120.414 54.6837 120.414 54.6106C120.414 54.5339 120.412 54.4699 120.408 54.4187C120.404 54.2872 120.375 54.1574 120.32 54.0295C120.269 53.9016 120.187 53.7956 120.074 53.7116C119.964 53.6275 119.818 53.5855 119.635 53.5855C119.452 53.5855 119.306 53.6275 119.197 53.7116C119.087 53.792 119.008 53.8998 118.961 54.035C118.913 54.1666 118.886 54.3091 118.879 54.4626C118.875 54.5576 118.875 54.6545 118.879 54.7531C118.886 54.9066 118.913 55.051 118.961 55.1862C119.008 55.3178 119.087 55.4256 119.197 55.5096C119.306 55.59 119.452 55.6303 119.635 55.6303ZM121.875 56.0469C121.839 56.0469 121.808 56.0359 121.782 56.014C121.76 55.9884 121.749 55.9573 121.749 55.9208V53.3224C121.749 53.2858 121.76 53.2566 121.782 53.2347C121.808 53.2091 121.839 53.1963 121.875 53.1963H122.133C122.17 53.1963 122.199 53.2091 122.221 53.2347C122.246 53.2566 122.259 53.2858 122.259 53.3224V53.5636C122.354 53.4393 122.473 53.3388 122.615 53.2621C122.762 53.1817 122.948 53.1415 123.175 53.1415C123.412 53.1415 123.613 53.1945 123.778 53.3004C123.946 53.4028 124.072 53.5471 124.156 53.7335C124.24 53.9162 124.282 54.13 124.282 54.3749V55.9208C124.282 55.9573 124.271 55.9884 124.249 56.014C124.227 56.0359 124.198 56.0469 124.161 56.0469H123.887C123.851 56.0469 123.82 56.0359 123.794 56.014C123.772 55.9884 123.761 55.9573 123.761 55.9208V54.4023C123.761 54.1465 123.699 53.9473 123.575 53.8048C123.451 53.6586 123.268 53.5855 123.027 53.5855C122.8 53.5855 122.617 53.6586 122.478 53.8048C122.343 53.9473 122.276 54.1465 122.276 54.4023V55.9208C122.276 55.9573 122.263 55.9884 122.237 56.014C122.215 56.0359 122.186 56.0469 122.15 56.0469H121.875ZM126.544 56.0469C126.507 56.0469 126.476 56.0359 126.45 56.014C126.428 55.9884 126.418 55.9573 126.418 55.9208V53.3224C126.418 53.2858 126.428 53.2566 126.45 53.2347C126.476 53.2091 126.507 53.1963 126.544 53.1963H126.807C126.843 53.1963 126.873 53.2091 126.894 53.2347C126.916 53.2566 126.927 53.2858 126.927 53.3224V55.9208C126.927 55.9573 126.916 55.9884 126.894 56.014C126.873 56.0359 126.843 56.0469 126.807 56.0469H126.544ZM126.5 52.6645C126.463 52.6645 126.432 52.6536 126.407 52.6316C126.385 52.6061 126.374 52.575 126.374 52.5385V52.2424C126.374 52.2059 126.385 52.1766 126.407 52.1547C126.432 52.1291 126.463 52.1163 126.5 52.1163H126.845C126.882 52.1163 126.911 52.1291 126.933 52.1547C126.958 52.1766 126.971 52.2059 126.971 52.2424V52.5385C126.971 52.575 126.958 52.6061 126.933 52.6316C126.911 52.6536 126.882 52.6645 126.845 52.6645H126.5ZM127.871 56.0469C127.835 56.0469 127.804 56.0359 127.778 56.014C127.756 55.9884 127.745 55.9573 127.745 55.9208V53.3224C127.745 53.2858 127.756 53.2566 127.778 53.2347C127.804 53.2091 127.835 53.1963 127.871 53.1963H128.129C128.165 53.1963 128.195 53.2091 128.217 53.2347C128.242 53.2566 128.255 53.2858 128.255 53.3224V53.5636C128.35 53.4393 128.469 53.3388 128.611 53.2621C128.758 53.1817 128.944 53.1415 129.17 53.1415C129.408 53.1415 129.609 53.1945 129.773 53.3004C129.942 53.4028 130.068 53.5471 130.152 53.7335C130.236 53.9162 130.278 54.13 130.278 54.3749V55.9208C130.278 55.9573 130.267 55.9884 130.245 56.014C130.223 56.0359 130.194 56.0469 130.157 56.0469H129.883C129.847 56.0469 129.816 56.0359 129.79 56.014C129.768 55.9884 129.757 55.9573 129.757 55.9208V54.4023C129.757 54.1465 129.695 53.9473 129.571 53.8048C129.446 53.6586 129.264 53.5855 129.022 53.5855C128.796 53.5855 128.613 53.6586 128.474 53.8048C128.339 53.9473 128.271 54.1465 128.271 54.4023V55.9208C128.271 55.9573 128.259 55.9884 128.233 56.014C128.211 56.0359 128.182 56.0469 128.145 56.0469H127.871Z" fill="white"/>
<path d="M132.18 55.0563C132.119 55.1221 132.012 55.1288 131.942 55.0712C131.877 55.018 131.866 54.9286 131.913 54.8634L131.926 54.8476L132.673 54.0468L131.926 53.246C131.869 53.1852 131.871 53.0953 131.927 53.0365L131.942 53.0225C132.007 52.9693 132.102 52.9709 132.165 53.0232L132.18 53.0374L133.024 53.9425C133.075 53.9972 133.079 54.0767 133.037 54.1356L133.024 54.1511L132.18 55.0563Z" fill="white"/>
<g clip-path="url(#clip1_12413_100609)">
<path d="M144.883 59.0724C144.883 59.3247 144.678 59.5292 144.426 59.5292C144.174 59.5292 143.969 59.3247 143.969 59.0724V57.2254C143.969 56.8673 143.827 56.5239 143.573 56.2706C143.32 56.0174 142.977 55.875 142.619 55.8746H138.925C138.566 55.875 138.223 56.0174 137.97 56.2706C137.717 56.5239 137.574 56.8673 137.574 57.2254V59.0724C137.574 59.3247 137.369 59.5292 137.117 59.5292C136.865 59.5292 136.66 59.3247 136.66 59.0724V57.2254C136.661 56.6251 136.9 56.0495 137.324 55.625C137.749 55.2005 138.324 54.9617 138.925 54.9609H142.619C143.219 54.9617 143.794 55.2005 144.219 55.625C144.643 56.0495 144.882 56.6251 144.883 57.2254V59.0724Z" fill="white"/>
<path d="M140.771 54.0473C140.229 54.0473 139.699 53.8866 139.248 53.5854C138.798 53.2842 138.446 52.8561 138.239 52.3553C138.031 51.8545 137.977 51.3033 138.083 50.7717C138.189 50.24 138.45 49.7516 138.833 49.3682C139.216 48.9849 139.705 48.7239 140.236 48.6181C140.768 48.5123 141.319 48.5666 141.82 48.7741C142.321 48.9815 142.749 49.3328 143.05 49.7836C143.351 50.2343 143.512 50.7643 143.512 51.3064C143.511 52.0331 143.222 52.7299 142.709 53.2437C142.195 53.7576 141.498 54.0466 140.771 54.0473ZM140.771 49.4791C140.41 49.4791 140.057 49.5863 139.756 49.787C139.456 49.9878 139.221 50.2732 139.083 50.6071C138.945 50.941 138.909 51.3084 138.979 51.6629C139.05 52.0173 139.224 52.3429 139.479 52.5985C139.735 52.854 140.06 53.0281 140.415 53.0986C140.769 53.1691 141.137 53.1329 141.471 52.9946C141.804 52.8563 142.09 52.6221 142.291 52.3216C142.491 52.0211 142.599 51.6678 142.599 51.3064C142.599 50.8218 142.406 50.357 142.063 50.0143C141.721 49.6716 141.256 49.4791 140.771 49.4791Z" fill="white"/>
</g>
<g clip-path="url(#clip2_12413_100609)">
<path d="M163.938 50.4279C163.81 50.2737 163.649 50.1497 163.467 50.0646C163.285 49.9796 163.087 49.9357 162.886 49.9359H155.5L155.481 49.7756C155.442 49.4423 155.282 49.135 155.031 48.9119C154.78 48.6889 154.456 48.5656 154.121 48.5654H154.019C153.898 48.5654 153.782 48.6136 153.696 48.6992C153.611 48.7849 153.562 48.9011 153.562 49.0223C153.562 49.1434 153.611 49.2596 153.696 49.3453C153.782 49.431 153.898 49.4791 154.019 49.4791H154.121C154.233 49.4791 154.341 49.5202 154.424 49.5945C154.508 49.6689 154.561 49.7713 154.574 49.8825L155.203 55.2273C155.268 55.7832 155.535 56.2957 155.953 56.6677C156.372 57.0397 156.912 57.2451 157.472 57.2451H162.242C162.363 57.2451 162.48 57.197 162.565 57.1113C162.651 57.0256 162.699 56.9094 162.699 56.7883C162.699 56.6671 162.651 56.5509 162.565 56.4653C162.48 56.3796 162.363 56.3315 162.242 56.3315H157.472C157.189 56.3307 156.913 56.2424 156.683 56.0789C156.452 55.9153 156.278 55.6844 156.183 55.4178H161.629C162.164 55.4178 162.683 55.2297 163.094 54.8863C163.505 54.5428 163.782 54.0659 163.877 53.5389L164.235 51.5499C164.271 51.3525 164.263 51.1497 164.212 50.9558C164.16 50.7619 164.067 50.5817 163.938 50.4279ZM163.339 51.3877L162.98 53.3767C162.922 53.6933 162.756 53.9797 162.509 54.1858C162.262 54.392 161.95 54.5046 161.629 54.5042H156.038L155.608 50.8496H162.886C162.953 50.8492 163.02 50.8635 163.081 50.8917C163.142 50.9199 163.196 50.9611 163.239 51.0125C163.282 51.0638 163.313 51.1241 163.331 51.1889C163.348 51.2538 163.351 51.3217 163.339 51.3877Z" fill="white"/>
<path d="M156.76 59.5295C157.265 59.5295 157.674 59.1204 157.674 58.6158C157.674 58.1112 157.265 57.7021 156.76 57.7021C156.256 57.7021 155.847 58.1112 155.847 58.6158C155.847 59.1204 156.256 59.5295 156.76 59.5295Z" fill="white"/>
<path d="M161.329 59.5295C161.833 59.5295 162.242 59.1204 162.242 58.6158C162.242 58.1112 161.833 57.7021 161.329 57.7021C160.824 57.7021 160.415 58.1112 160.415 58.6158C160.415 59.1204 160.824 59.5295 161.329 59.5295Z" fill="white"/>
</g>
<path fill-rule="evenodd" clip-rule="evenodd" d="M172.853 50.8412C172.621 50.8412 172.433 51.029 172.433 51.2607V56.8339C172.433 57.0656 172.621 57.2534 172.853 57.2534H181.782C182.013 57.2534 182.201 57.0656 182.201 56.8339V51.2607C182.201 51.029 182.013 50.8412 181.782 50.8412H172.853ZM171.835 51.2607C171.835 50.6987 172.291 50.2432 172.853 50.2432H181.782C182.344 50.2432 182.799 50.6987 182.799 51.2607V56.8339C182.799 57.3958 182.344 57.8514 181.782 57.8514H172.853C172.291 57.8514 171.835 57.3958 171.835 56.8339V51.2607Z" fill="white"/>
<path fill-rule="evenodd" clip-rule="evenodd" d="M171.979 52.2158C171.979 52.0507 172.113 51.9168 172.278 51.9168H182.353C182.518 51.9168 182.652 52.0507 182.652 52.2158C182.652 52.381 182.518 52.5148 182.353 52.5148H172.278C172.113 52.5148 171.979 52.381 171.979 52.2158Z" fill="white"/>
<path d="M179.723 53.7113H179.778C179.782 53.7199 179.784 53.7292 179.784 53.7385C179.784 53.7479 179.782 53.7572 179.778 53.7657V55.8086C179.78 55.8201 179.78 55.832 179.778 55.8435C179.771 55.8509 179.762 55.8566 179.753 55.8599C179.744 55.8633 179.733 55.8644 179.723 55.863H179.413L179.378 55.8435C179.372 55.8259 179.372 55.8068 179.378 55.7892V53.7463C179.375 53.7348 179.375 53.7228 179.378 53.7113C179.392 53.6967 179.412 53.6883 179.432 53.688L179.723 53.7113Z" fill="white"/>
<path d="M177.125 53.7112H177.191C177.203 53.7218 177.212 53.7351 177.218 53.75L177.82 54.8685L178.426 53.75L178.449 53.7228C178.461 53.7135 178.476 53.7075 178.491 53.7054C178.506 53.7034 178.521 53.7054 178.535 53.7112H178.834C178.839 53.7289 178.839 53.7478 178.834 53.7656V55.8084C178.837 55.8199 178.837 55.8319 178.834 55.8434C178.826 55.8504 178.817 55.8557 178.807 55.8591C178.797 55.8624 178.786 55.8637 178.776 55.8628H178.492L178.461 55.8434C178.457 55.8348 178.455 55.8256 178.455 55.8162C178.455 55.8068 178.457 55.7975 178.461 55.789V54.4879L178.026 55.3152L178.007 55.3424L177.983 55.3657C177.965 55.3783 177.943 55.3851 177.921 55.3851H177.766C177.753 55.3895 177.74 55.3895 177.727 55.3851C177.711 55.371 177.698 55.3539 177.688 55.3346L177.218 54.4879V55.8511C177.213 55.8636 177.207 55.8753 177.199 55.8861C177.192 55.8932 177.183 55.8987 177.174 55.9021C177.164 55.9054 177.154 55.9066 177.144 55.9055H176.865C176.852 55.9024 176.84 55.8957 176.83 55.8861C176.822 55.8793 176.816 55.8709 176.812 55.8615C176.808 55.8521 176.806 55.8419 176.807 55.8317V53.7889C176.807 53.782 176.809 53.7754 176.813 53.7694C176.816 53.7634 176.821 53.7581 176.826 53.7539C176.833 53.7461 176.841 53.7399 176.85 53.7358C176.86 53.7318 176.87 53.73 176.88 53.7306L177.125 53.7112Z" fill="white"/>
<path d="M176.272 53.6652C176.284 53.6624 176.304 53.6769 176.316 53.6797C176.33 53.6941 176.339 53.7136 176.339 53.7341L176.337 54.0067C176.339 54.0182 176.339 54.0302 176.337 54.0417C176.33 54.0488 176.321 54.0543 176.312 54.0577C176.302 54.061 176.292 54.0622 176.282 54.0611H175.261V54.6126H176.236C176.247 54.6096 176.259 54.6096 176.271 54.6126C176.283 54.6279 176.29 54.6472 176.29 54.667V54.8806C176.286 54.8934 176.279 54.9053 176.271 54.9155C176.252 54.9215 176.231 54.9215 176.212 54.9155H175.261V55.4826H176.329L176.364 55.502C176.376 55.5176 176.383 55.5366 176.383 55.5564V55.7816C176.378 55.794 176.372 55.8058 176.364 55.8166C176.356 55.8236 176.347 55.829 176.337 55.8323C176.327 55.8356 176.316 55.8369 176.306 55.836H174.896L174.861 55.8166C174.857 55.808 174.855 55.7988 174.855 55.7894C174.855 55.78 174.857 55.7708 174.861 55.7622V53.7193C174.858 53.7079 174.858 53.6959 174.861 53.6844C174.868 53.6768 174.876 53.6707 174.886 53.6667C174.895 53.6627 174.905 53.6608 174.915 53.6611L176.272 53.6652Z" fill="white"/>
<g clip-path="url(#clip3_12413_100609)">
<path fill-rule="evenodd" clip-rule="evenodd" d="M194.716 52.3956H194.251V54.6315H194.716V52.3956ZM194.309 52.0021C194.357 52.0483 194.416 52.0714 194.488 52.0714C194.556 52.0714 194.614 52.0483 194.66 52.0021C194.707 51.9559 194.731 51.8978 194.731 51.8277C194.731 51.7591 194.707 51.7018 194.66 51.6555C194.612 51.6079 194.554 51.584 194.486 51.584C194.416 51.584 194.357 51.6079 194.309 51.6555C194.262 51.7018 194.238 51.7591 194.238 51.8277C194.238 51.8978 194.262 51.9559 194.309 52.0021ZM190.573 56.8811H190.108V51.8L190.573 51.9886V52.7243C190.647 52.6095 190.742 52.5163 190.859 52.4448C190.975 52.3733 191.112 52.3375 191.269 52.3375C191.432 52.3375 191.583 52.368 191.725 52.4292C191.868 52.4903 191.993 52.5752 192.1 52.684C192.207 52.7914 192.291 52.9158 192.352 53.0574C192.413 53.199 192.444 53.3511 192.444 53.5135C192.444 53.676 192.413 53.8288 192.352 53.9719C192.291 54.115 192.207 54.2409 192.1 54.3497C191.993 54.4571 191.868 54.5413 191.725 54.6024C191.583 54.6635 191.432 54.6941 191.269 54.6941C191.112 54.6941 190.975 54.6583 190.859 54.5867C190.742 54.5137 190.647 54.4205 190.573 54.3073V56.8811ZM191.265 52.7869C191.135 52.7869 191.022 52.8197 190.923 52.8853C190.825 52.9508 190.748 53.0388 190.693 53.1491C190.638 53.2579 190.611 53.3794 190.611 53.5135C190.611 53.6477 190.638 53.7699 190.693 53.8802C190.748 53.9905 190.825 54.0785 190.923 54.144C191.022 54.2096 191.135 54.2424 191.265 54.2424C191.393 54.2424 191.511 54.2104 191.618 54.1463C191.725 54.0807 191.81 53.9927 191.874 53.8824C191.938 53.7721 191.97 53.6492 191.97 53.5135C191.97 53.3809 191.938 53.2594 191.874 53.1491C191.812 53.0388 191.727 52.9508 191.62 52.8853C191.513 52.8197 191.394 52.7869 191.265 52.7869ZM192.718 52.3956H193.183V52.6326C193.26 52.5402 193.355 52.4672 193.469 52.4135C193.582 52.3598 193.704 52.333 193.835 52.333C193.918 52.333 194.001 52.3442 194.083 52.3666L193.897 52.8361C193.839 52.8137 193.781 52.8025 193.723 52.8025C193.625 52.8025 193.535 52.8271 193.453 52.8763C193.371 52.924 193.306 52.9888 193.256 53.0708C193.207 53.1528 193.183 53.2437 193.183 53.3436V54.6315H192.718V52.3956ZM195.143 52.3956H195.607V52.6326C195.685 52.5402 195.779 52.4672 195.891 52.4135C196.004 52.3598 196.126 52.333 196.257 52.333C196.417 52.333 196.563 52.3718 196.697 52.4493C196.831 52.5253 196.937 52.6266 197.016 52.7533C197.095 52.6266 197.2 52.5253 197.331 52.4493C197.464 52.3718 197.609 52.333 197.769 52.333C197.934 52.333 198.084 52.3733 198.22 52.4537C198.355 52.5342 198.463 52.6423 198.543 52.778C198.624 52.9136 198.664 53.0641 198.664 53.2296V54.6315H198.2V53.3481C198.2 53.2497 198.176 53.1595 198.128 53.0775C198.081 52.9956 198.017 52.9292 197.936 52.8786C197.856 52.8279 197.767 52.8025 197.668 52.8025C197.57 52.8025 197.481 52.8264 197.4 52.8741C197.32 52.9218 197.256 52.9866 197.208 53.0686C197.161 53.1506 197.137 53.2437 197.137 53.3481V54.6315H196.673V53.3481C196.673 53.2437 196.649 53.1506 196.601 53.0686C196.553 52.9866 196.489 52.9218 196.407 52.8741C196.326 52.8264 196.237 52.8025 196.139 52.8025C196.042 52.8025 195.953 52.8279 195.871 52.8786C195.791 52.9292 195.727 52.9956 195.679 53.0775C195.631 53.1595 195.607 53.2497 195.607 53.3481V54.6315H195.143V52.3956ZM199.398 54.5308C199.568 54.6367 199.755 54.6896 199.961 54.6896C200.184 54.6896 200.386 54.627 200.566 54.5018C200.746 54.3751 200.881 54.2126 200.97 54.0144L200.499 53.9048C200.439 54.0047 200.363 54.0829 200.269 54.1396C200.177 54.1962 200.074 54.2245 199.961 54.2245C199.854 54.223 199.756 54.1984 199.668 54.1507C199.582 54.103 199.511 54.0382 199.454 53.9562C199.399 53.8728 199.362 53.7796 199.342 53.6767H201.064C201.083 53.4949 201.069 53.3235 201.021 53.1625C200.974 53 200.899 52.8569 200.798 52.7332C200.697 52.608 200.575 52.5104 200.432 52.4403C200.289 52.3688 200.132 52.333 199.961 52.333C199.808 52.333 199.663 52.3636 199.528 52.4247C199.392 52.4858 199.273 52.5707 199.17 52.6796C199.069 52.7869 198.99 52.9121 198.932 53.0552C198.874 53.1968 198.845 53.3496 198.845 53.5135C198.845 53.7297 198.894 53.9272 198.994 54.106C199.095 54.2834 199.23 54.425 199.398 54.5308ZM200.595 53.3213H199.327C199.346 53.2124 199.385 53.1148 199.443 53.0284C199.502 52.9404 199.577 52.8711 199.666 52.8204C199.757 52.7697 199.855 52.7444 199.961 52.7444C200.068 52.7444 200.166 52.7705 200.256 52.8227C200.346 52.8733 200.422 52.9427 200.481 53.0306C200.542 53.117 200.58 53.2139 200.595 53.3213ZM200.949 55.2795H191.464L191.587 55.6491H201.072L200.949 55.2795Z" fill="white"/>
</g>
<g clip-path="url(#clip4_12413_100609)">
<path d="M218.614 55.8085L217.524 51.8784C217.291 51.0377 216.784 50.299 216.083 49.78C215.381 49.2609 214.527 48.9913 213.655 49.014C212.783 49.0367 211.943 49.3505 211.27 49.9053C210.597 50.4602 210.129 51.2243 209.94 52.0759L209.097 55.8714C209.056 56.0553 209.057 56.2459 209.1 56.4294C209.142 56.6128 209.226 56.7843 209.344 56.9313C209.462 57.0782 209.611 57.1968 209.781 57.2783C209.95 57.3598 210.136 57.4021 210.325 57.4021H211.837C211.934 57.8762 212.191 58.3023 212.565 58.6085C212.94 58.9146 213.409 59.0818 213.892 59.0818C214.376 59.0818 214.845 58.9146 215.219 58.6085C215.594 58.3023 215.851 57.8762 215.947 57.4021H217.403C217.596 57.402 217.788 57.3572 217.961 57.2711C218.135 57.1849 218.286 57.0599 218.404 56.9056C218.521 56.7513 218.601 56.5721 218.638 56.3818C218.674 56.1915 218.666 55.9953 218.614 55.8085ZM213.892 58.2409C213.633 58.2398 213.381 58.1587 213.169 58.0085C212.958 57.8584 212.798 57.6466 212.711 57.4021H215.073C214.987 57.6466 214.827 57.8584 214.616 58.0085C214.404 58.1587 214.152 58.2398 213.892 58.2409ZM217.736 56.3977C217.697 56.4496 217.646 56.4916 217.588 56.5203C217.53 56.5491 217.466 56.5638 217.401 56.5634H210.325C210.262 56.5634 210.2 56.5492 210.143 56.5221C210.087 56.4949 210.037 56.4553 209.998 56.4064C209.958 56.3574 209.931 56.3002 209.916 56.239C209.902 56.1779 209.902 56.1143 209.915 56.053L210.759 52.2575C210.907 51.5891 211.275 50.9896 211.804 50.5542C212.332 50.1188 212.991 49.8725 213.676 49.8546C214.36 49.8367 215.031 50.0481 215.581 50.4552C216.132 50.8623 216.531 51.4418 216.714 52.1015L217.804 56.0316C217.822 56.0937 217.825 56.1592 217.813 56.2227C217.802 56.2863 217.775 56.3462 217.736 56.3977Z" fill="white"/>
</g>
<rect width="171.31" height="33.3483" transform="translate(55.3452 63.1846)" fill="#002953"/>
<rect x="62.6543" y="66.8389" width="140.245" height="19.1867" rx="1.8273" fill="white"/>
<path d="M72.6299 79.1787L71.0406 77.5894C71.4737 77.0597 71.6866 76.3838 71.6354 75.7015C71.5841 75.0191 71.2725 74.3826 70.7651 73.9236C70.2577 73.4646 69.5933 73.2181 68.9093 73.2352C68.2253 73.2523 67.574 73.5317 67.0902 74.0155C66.6064 74.4993 66.327 75.1506 66.3099 75.8346C66.2928 76.5186 66.5393 77.183 66.9983 77.6904C67.4574 78.1978 68.0939 78.5094 68.7762 78.5607C69.4585 78.6119 70.1344 78.399 70.6641 77.9659L72.2534 79.5552C72.3036 79.6037 72.3709 79.6305 72.4407 79.6299C72.5105 79.6293 72.5773 79.6013 72.6267 79.5519C72.676 79.5026 72.704 79.4358 72.7046 79.366C72.7052 79.2962 72.6784 79.2289 72.6299 79.1787ZM68.9802 78.0356C68.5589 78.0356 68.1471 77.9107 67.7968 77.6766C67.4465 77.4426 67.1735 77.1099 67.0123 76.7207C66.8511 76.3315 66.8089 75.9032 66.8911 75.49C66.9732 75.0768 67.1761 74.6972 67.474 74.3993C67.7719 74.1014 68.1515 73.8985 68.5647 73.8164C68.9779 73.7342 69.4062 73.7763 69.7954 73.9376C70.1846 74.0988 70.5173 74.3718 70.7513 74.7221C70.9854 75.0724 71.1103 75.4842 71.1103 75.9055C71.1097 76.4703 70.8851 77.0117 70.4857 77.411C70.0864 77.8104 69.545 78.035 68.9802 78.0356Z" fill="#FF6700"/>
<path d="M76.5272 78.4966C76.1562 78.4966 75.845 78.4411 75.5934 78.3303C75.3418 78.2152 75.1478 78.0681 75.0114 77.889C74.8792 77.7057 74.8089 77.5117 74.8004 77.307C74.8004 77.2729 74.8131 77.243 74.8387 77.2175C74.8686 77.1876 74.9027 77.1727 74.9411 77.1727H75.2672C75.3184 77.1727 75.3568 77.1855 75.3823 77.2111C75.4079 77.2366 75.425 77.2665 75.4335 77.3006C75.4548 77.4029 75.506 77.5053 75.587 77.6076C75.6723 77.7057 75.7895 77.7888 75.9388 77.857C76.0923 77.921 76.2884 77.953 76.5272 77.953C76.8938 77.953 77.1624 77.889 77.333 77.7611C77.5078 77.6289 77.5952 77.4541 77.5952 77.2366C77.5952 77.0874 77.5483 76.968 77.4545 76.8785C77.365 76.7847 77.2264 76.7016 77.0388 76.6291C76.8512 76.5566 76.6082 76.4777 76.3097 76.3924C75.9985 76.3029 75.7405 76.2048 75.5358 76.0982C75.3312 75.9916 75.1777 75.8595 75.0754 75.7017C74.9773 75.544 74.9283 75.3436 74.9283 75.1005C74.9283 74.8703 74.9901 74.6656 75.1137 74.4866C75.2374 74.3032 75.4143 74.1583 75.6446 74.0517C75.8791 73.9451 76.1626 73.8918 76.4952 73.8918C76.7595 73.8918 76.9898 73.928 77.1859 74.0005C77.3863 74.0687 77.5526 74.1625 77.6847 74.2819C77.8169 74.397 77.9171 74.5228 77.9853 74.6592C78.0536 74.7914 78.0898 74.9215 78.0941 75.0494C78.0941 75.0792 78.0834 75.1091 78.0621 75.1389C78.0408 75.1645 78.0067 75.1773 77.9598 75.1773H77.6208C77.5909 75.1773 77.559 75.1688 77.5249 75.1517C77.495 75.1346 77.4716 75.1027 77.4545 75.0558C77.4289 74.881 77.3309 74.7339 77.1603 74.6145C76.9898 74.4951 76.7681 74.4354 76.4952 74.4354C76.218 74.4354 75.9921 74.4887 75.8172 74.5953C75.6467 74.7019 75.5614 74.8682 75.5614 75.0941C75.5614 75.2391 75.6019 75.3606 75.6829 75.4587C75.7639 75.5525 75.8919 75.6356 76.0667 75.7081C76.2415 75.7806 76.4696 75.8573 76.751 75.9383C77.0921 76.0322 77.3714 76.1323 77.5888 76.2389C77.8063 76.3413 77.9662 76.4713 78.0685 76.6291C78.1751 76.7826 78.2284 76.9808 78.2284 77.2239C78.2284 77.4925 78.158 77.7227 78.0173 77.9146C77.8766 78.1022 77.6784 78.2471 77.4225 78.3495C77.171 78.4475 76.8725 78.4966 76.5272 78.4966ZM80.3074 78.4966C79.8682 78.4966 79.5186 78.3623 79.2585 78.0937C78.9984 77.8208 78.8556 77.4498 78.83 76.9808C78.8257 76.9254 78.8236 76.855 78.8236 76.7698C78.8236 76.6802 78.8257 76.6078 78.83 76.5523C78.8471 76.2496 78.9174 75.9853 79.0411 75.7593C79.1647 75.529 79.3331 75.3521 79.5463 75.2284C79.7638 75.1048 80.0174 75.043 80.3074 75.043C80.6314 75.043 80.9022 75.1112 81.1196 75.2476C81.3413 75.3841 81.5097 75.5781 81.6249 75.8296C81.74 76.0812 81.7975 76.3754 81.7975 76.7122V76.8209C81.7975 76.8678 81.7826 76.9041 81.7528 76.9297C81.7272 76.9552 81.6931 76.968 81.6504 76.968H79.4376C79.4376 76.9723 79.4376 76.9808 79.4376 76.9936C79.4376 77.0064 79.4376 77.0171 79.4376 77.0256C79.4461 77.2004 79.4845 77.3646 79.5527 77.5181C79.6209 77.6673 79.719 77.7888 79.8469 77.8826C79.9748 77.9764 80.1283 78.0233 80.3074 78.0233C80.4609 78.0233 80.5888 77.9999 80.6911 77.953C80.7934 77.906 80.8766 77.8549 80.9405 77.7995C81.0045 77.7398 81.0471 77.695 81.0684 77.6652C81.1068 77.6097 81.1367 77.5777 81.158 77.5692C81.1793 77.5564 81.2134 77.55 81.2603 77.55H81.5673C81.6099 77.55 81.644 77.5628 81.6696 77.5884C81.6995 77.6097 81.7123 77.6417 81.708 77.6843C81.7037 77.7483 81.6696 77.8272 81.6057 77.921C81.5417 78.0105 81.45 78.1 81.3307 78.1896C81.2113 78.2791 81.0663 78.3537 80.8958 78.4134C80.7252 78.4689 80.5291 78.4966 80.3074 78.4966ZM79.4376 76.5267H81.19V76.5076C81.19 76.3157 81.1537 76.1451 81.0812 75.9959C81.013 75.8467 80.9128 75.7294 80.7806 75.6442C80.6485 75.5546 80.4907 75.5098 80.3074 75.5098C80.124 75.5098 79.9663 75.5546 79.8341 75.6442C79.7062 75.7294 79.6081 75.8467 79.5399 75.9959C79.4717 76.1451 79.4376 76.3157 79.4376 76.5076V76.5267ZM83.4896 78.4966C83.2764 78.4966 83.0824 78.4539 82.9076 78.3687C82.7328 78.2834 82.5921 78.1683 82.4855 78.0233C82.3789 77.8783 82.3256 77.7142 82.3256 77.5308C82.3256 77.2366 82.445 77.0021 82.6838 76.8273C82.9225 76.6525 83.2338 76.5374 83.6175 76.482L84.5705 76.3477V76.1622C84.5705 75.9575 84.5108 75.7976 84.3914 75.6825C84.2763 75.5674 84.0865 75.5098 83.8222 75.5098C83.6303 75.5098 83.4747 75.5482 83.3553 75.625C83.2402 75.7017 83.1592 75.7998 83.1123 75.9192C83.0867 75.9831 83.0419 76.0151 82.978 76.0151H82.6902C82.6433 76.0151 82.607 76.0023 82.5814 75.9767C82.5601 75.9469 82.5495 75.9128 82.5495 75.8744C82.5495 75.8104 82.5729 75.7316 82.6198 75.6378C82.671 75.544 82.7477 75.4523 82.8501 75.3627C82.9524 75.2732 83.0824 75.1986 83.2402 75.1389C83.4022 75.0749 83.5983 75.043 83.8286 75.043C84.0844 75.043 84.2997 75.0771 84.4745 75.1453C84.6493 75.2093 84.7858 75.2967 84.8838 75.4075C84.9862 75.5184 85.0587 75.6442 85.1013 75.7849C85.1482 75.9256 85.1716 76.0684 85.1716 76.2134V78.2855C85.1716 78.3282 85.1567 78.3644 85.1269 78.3942C85.1013 78.4198 85.0672 78.4326 85.0245 78.4326H84.7304C84.6835 78.4326 84.6472 78.4198 84.6216 78.3942C84.596 78.3644 84.5833 78.3282 84.5833 78.2855V78.0105C84.5278 78.0873 84.4532 78.164 84.3594 78.2408C84.2656 78.3132 84.1484 78.3751 84.0077 78.4262C83.867 78.4731 83.6943 78.4966 83.4896 78.4966ZM83.6239 78.0169C83.7987 78.0169 83.9586 77.9807 84.1036 77.9082C84.2486 77.8314 84.3615 77.7142 84.4426 77.5564C84.5278 77.3987 84.5705 77.2004 84.5705 76.9616V76.7826L83.8286 76.8913C83.5259 76.9339 83.2977 77.0064 83.1443 77.1087C82.9908 77.2068 82.914 77.3326 82.914 77.4861C82.914 77.6055 82.9481 77.7057 83.0163 77.7867C83.0888 77.8634 83.1784 77.921 83.285 77.9593C83.3958 77.9977 83.5088 78.0169 83.6239 78.0169ZM86.2382 78.4326C86.1955 78.4326 86.1593 78.4198 86.1294 78.3942C86.1038 78.3644 86.0911 78.3282 86.0911 78.2855V75.2604C86.0911 75.2178 86.1038 75.1815 86.1294 75.1517C86.1593 75.1219 86.1955 75.1069 86.2382 75.1069H86.5324C86.575 75.1069 86.6112 75.1219 86.6411 75.1517C86.6709 75.1815 86.6858 75.2178 86.6858 75.2604V75.5418C86.7711 75.3969 86.8884 75.2881 87.0376 75.2157C87.1868 75.1432 87.3659 75.1069 87.5748 75.1069H87.8307C87.8733 75.1069 87.9074 75.1219 87.933 75.1517C87.9586 75.1773 87.9714 75.2114 87.9714 75.254V75.5162C87.9714 75.5589 87.9586 75.593 87.933 75.6186C87.9074 75.6442 87.8733 75.6569 87.8307 75.6569H87.4469C87.2167 75.6569 87.0355 75.7252 86.9033 75.8616C86.7711 75.9938 86.705 76.175 86.705 76.4052V78.2855C86.705 78.3282 86.6901 78.3644 86.6603 78.3942C86.6304 78.4198 86.5942 78.4326 86.5515 78.4326H86.2382ZM89.8012 78.4966C89.4985 78.4966 89.2363 78.439 89.0146 78.3239C88.7971 78.2045 88.6287 78.0361 88.5093 77.8186C88.3899 77.5969 88.326 77.3326 88.3175 77.0256C88.3132 76.9616 88.3111 76.8764 88.3111 76.7698C88.3111 76.6632 88.3132 76.5779 88.3175 76.5139C88.326 76.207 88.3899 75.9447 88.5093 75.7273C88.6287 75.5056 88.7971 75.3372 89.0146 75.222C89.2363 75.1027 89.4985 75.043 89.8012 75.043C90.0485 75.043 90.2596 75.0771 90.4344 75.1453C90.6135 75.2135 90.7606 75.3009 90.8757 75.4075C90.9908 75.5141 91.0761 75.6292 91.1315 75.7529C91.1912 75.8765 91.2232 75.9938 91.2274 76.1046C91.2317 76.1473 91.2189 76.1814 91.1891 76.207C91.1592 76.2325 91.123 76.2453 91.0803 76.2453H90.7734C90.7307 76.2453 90.6987 76.2368 90.6774 76.2198C90.6561 76.1984 90.6348 76.1643 90.6135 76.1174C90.5367 75.9085 90.4323 75.7614 90.3001 75.6761C90.1679 75.5909 90.0038 75.5482 89.8076 75.5482C89.5518 75.5482 89.3429 75.6271 89.1809 75.7849C89.0231 75.9426 88.9378 76.1963 88.925 76.5459C88.9208 76.6994 88.9208 76.8487 88.925 76.9936C88.9378 77.3475 89.0231 77.6033 89.1809 77.7611C89.3429 77.9146 89.5518 77.9913 89.8076 77.9913C90.0038 77.9913 90.1679 77.9487 90.3001 77.8634C90.4323 77.7781 90.5367 77.631 90.6135 77.4221C90.6348 77.3752 90.6561 77.3432 90.6774 77.3262C90.6987 77.3049 90.7307 77.2942 90.7734 77.2942H91.0803C91.123 77.2942 91.1592 77.307 91.1891 77.3326C91.2189 77.3582 91.2317 77.3923 91.2274 77.4349C91.2232 77.5244 91.204 77.6161 91.1699 77.7099C91.1358 77.8037 91.0803 77.8997 91.0036 77.9977C90.9311 78.0915 90.8394 78.1768 90.7286 78.2535C90.6177 78.326 90.4834 78.3857 90.3257 78.4326C90.1722 78.4753 89.9974 78.4966 89.8012 78.4966ZM92.1405 78.4326C92.0978 78.4326 92.0616 78.4198 92.0317 78.3942C92.0061 78.3644 91.9934 78.3282 91.9934 78.2855V74.0389C91.9934 73.9962 92.0061 73.9621 92.0317 73.9365C92.0616 73.9067 92.0978 73.8918 92.1405 73.8918H92.4602C92.5071 73.8918 92.5434 73.9067 92.569 73.9365C92.5945 73.9621 92.6073 73.9962 92.6073 74.0389V75.529C92.7225 75.3841 92.8632 75.2668 93.0294 75.1773C93.1957 75.0877 93.4068 75.043 93.6626 75.043C93.9397 75.043 94.1742 75.1048 94.3661 75.2284C94.5622 75.3478 94.7093 75.5162 94.8074 75.7337C94.9097 75.9469 94.9609 76.1963 94.9609 76.482V78.2855C94.9609 78.3282 94.9481 78.3644 94.9225 78.3942C94.8969 78.4198 94.8607 78.4326 94.8138 78.4326H94.494C94.4514 78.4326 94.4151 78.4198 94.3853 78.3942C94.3597 78.3644 94.3469 78.3282 94.3469 78.2855V76.5139C94.3469 76.2155 94.2744 75.9831 94.1295 75.8168C93.9845 75.6463 93.7713 75.561 93.4899 75.561C93.2256 75.561 93.0124 75.6463 92.8504 75.8168C92.6883 75.9831 92.6073 76.2155 92.6073 76.5139V78.2855C92.6073 78.3282 92.5945 78.3644 92.569 78.3942C92.5434 78.4198 92.5071 78.4326 92.4602 78.4326H92.1405ZM97.8129 78.4326C97.7703 78.4326 97.734 78.4198 97.7042 78.3942C97.6786 78.3644 97.6658 78.3282 97.6658 78.2855V75.6186H97.1222C97.0796 75.6186 97.0433 75.6058 97.0135 75.5802C96.9879 75.5504 96.9751 75.5141 96.9751 75.4715V75.254C96.9751 75.2114 96.9879 75.1773 97.0135 75.1517C97.0433 75.1219 97.0796 75.1069 97.1222 75.1069H97.6658V74.7871C97.6658 74.5697 97.7021 74.38 97.7745 74.2179C97.847 74.0517 97.9621 73.9237 98.1199 73.8342C98.2819 73.7447 98.4972 73.6999 98.7659 73.6999H99.1496C99.1922 73.6999 99.2263 73.7148 99.2519 73.7447C99.2775 73.7703 99.2903 73.8044 99.2903 73.847V74.0645C99.2903 74.1071 99.2775 74.1433 99.2519 74.1732C99.2263 74.1988 99.1922 74.2115 99.1496 74.2115H98.7786C98.5783 74.2115 98.4418 74.2648 98.3693 74.3714C98.2968 74.4738 98.2606 74.623 98.2606 74.8191V75.1069H99.0856C99.1283 75.1069 99.1624 75.1219 99.188 75.1517C99.2135 75.1773 99.2263 75.2114 99.2263 75.254V75.4715C99.2263 75.5141 99.2135 75.5504 99.188 75.5802C99.1624 75.6058 99.1283 75.6186 99.0856 75.6186H98.2606V78.2855C98.2606 78.3282 98.2457 78.3644 98.2158 78.3942C98.1903 78.4198 98.1561 78.4326 98.1135 78.4326H97.8129ZM101.094 78.4966C100.77 78.4966 100.499 78.4347 100.282 78.3111C100.064 78.1875 99.8979 78.0169 99.7827 77.7995C99.6676 77.5777 99.6037 77.3262 99.5909 77.0448C99.5866 76.9723 99.5845 76.8806 99.5845 76.7698C99.5845 76.6547 99.5866 76.563 99.5909 76.4948C99.6037 76.2091 99.6676 75.9575 99.7827 75.7401C99.9021 75.5226 100.071 75.3521 100.288 75.2284C100.505 75.1048 100.774 75.043 101.094 75.043C101.414 75.043 101.682 75.1048 101.9 75.2284C102.117 75.3521 102.283 75.5226 102.399 75.7401C102.518 75.9575 102.584 76.2091 102.597 76.4948C102.601 76.563 102.603 76.6547 102.603 76.7698C102.603 76.8806 102.601 76.9723 102.597 77.0448C102.584 77.3262 102.52 77.5777 102.405 77.7995C102.29 78.0169 102.124 78.1875 101.906 78.3111C101.689 78.4347 101.418 78.4966 101.094 78.4966ZM101.094 78.0041C101.358 78.0041 101.569 77.921 101.727 77.7547C101.885 77.5841 101.97 77.3368 101.983 77.0128C101.987 76.9488 101.989 76.8678 101.989 76.7698C101.989 76.6717 101.987 76.5907 101.983 76.5267C101.97 76.2027 101.885 75.9575 101.727 75.7913C101.569 75.6207 101.358 75.5354 101.094 75.5354C100.829 75.5354 100.616 75.6207 100.454 75.7913C100.297 75.9575 100.213 76.2027 100.205 76.5267C100.201 76.5907 100.198 76.6717 100.198 76.7698C100.198 76.8678 100.201 76.9488 100.205 77.0128C100.213 77.3368 100.297 77.5841 100.454 77.7547C100.616 77.921 100.829 78.0041 101.094 78.0041ZM103.551 78.4326C103.508 78.4326 103.472 78.4198 103.442 78.3942C103.417 78.3644 103.404 78.3282 103.404 78.2855V75.2604C103.404 75.2178 103.417 75.1815 103.442 75.1517C103.472 75.1219 103.508 75.1069 103.551 75.1069H103.845C103.888 75.1069 103.924 75.1219 103.954 75.1517C103.984 75.1815 103.999 75.2178 103.999 75.2604V75.5418C104.084 75.3969 104.201 75.2881 104.351 75.2157C104.5 75.1432 104.679 75.1069 104.888 75.1069H105.144C105.186 75.1069 105.22 75.1219 105.246 75.1517C105.272 75.1773 105.284 75.2114 105.284 75.254V75.5162C105.284 75.5589 105.272 75.593 105.246 75.6186C105.22 75.6442 105.186 75.6569 105.144 75.6569H104.76C104.53 75.6569 104.348 75.7252 104.216 75.8616C104.084 75.9938 104.018 76.175 104.018 76.4052V78.2855C104.018 78.3282 104.003 78.3644 103.973 78.3942C103.943 78.4198 103.907 78.4326 103.865 78.4326H103.551ZM107.405 78.4326C107.362 78.4326 107.326 78.4198 107.296 78.3942C107.271 78.3644 107.258 78.3282 107.258 78.2855V74.0389C107.258 73.9962 107.271 73.9621 107.296 73.9365C107.326 73.9067 107.362 73.8918 107.405 73.8918H107.705C107.752 73.8918 107.789 73.9067 107.814 73.9365C107.84 73.9621 107.853 73.9962 107.853 74.0389V78.2855C107.853 78.3282 107.84 78.3644 107.814 78.3942C107.789 78.4198 107.752 78.4326 107.705 78.4326H107.405ZM110.169 78.4966C109.845 78.4966 109.574 78.4347 109.357 78.3111C109.139 78.1875 108.973 78.0169 108.858 77.7995C108.743 77.5777 108.679 77.3262 108.666 77.0448C108.662 76.9723 108.659 76.8806 108.659 76.7698C108.659 76.6547 108.662 76.563 108.666 76.4948C108.679 76.2091 108.743 75.9575 108.858 75.7401C108.977 75.5226 109.145 75.3521 109.363 75.2284C109.58 75.1048 109.849 75.043 110.169 75.043C110.489 75.043 110.757 75.1048 110.975 75.2284C111.192 75.3521 111.358 75.5226 111.473 75.7401C111.593 75.9575 111.659 76.2091 111.672 76.4948C111.676 76.563 111.678 76.6547 111.678 76.7698C111.678 76.8806 111.676 76.9723 111.672 77.0448C111.659 77.3262 111.595 77.5777 111.48 77.7995C111.365 78.0169 111.198 78.1875 110.981 78.3111C110.764 78.4347 110.493 78.4966 110.169 78.4966ZM110.169 78.0041C110.433 78.0041 110.644 77.921 110.802 77.7547C110.96 77.5841 111.045 77.3368 111.058 77.0128C111.062 76.9488 111.064 76.8678 111.064 76.7698C111.064 76.6717 111.062 76.5907 111.058 76.5267C111.045 76.2027 110.96 75.9575 110.802 75.7913C110.644 75.6207 110.433 75.5354 110.169 75.5354C109.904 75.5354 109.691 75.6207 109.529 75.7913C109.371 75.9575 109.288 76.2027 109.28 76.5267C109.276 76.5907 109.273 76.6717 109.273 76.7698C109.273 76.8678 109.276 76.9488 109.28 77.0128C109.288 77.3368 109.371 77.5841 109.529 77.7547C109.691 77.921 109.904 78.0041 110.169 78.0041ZM113.406 78.4966C113.193 78.4966 112.999 78.4539 112.824 78.3687C112.65 78.2834 112.509 78.1683 112.402 78.0233C112.296 77.8783 112.242 77.7142 112.242 77.5308C112.242 77.2366 112.362 77.0021 112.6 76.8273C112.839 76.6525 113.151 76.5374 113.534 76.482L114.487 76.3477V76.1622C114.487 75.9575 114.427 75.7976 114.308 75.6825C114.193 75.5674 114.003 75.5098 113.739 75.5098C113.547 75.5098 113.391 75.5482 113.272 75.625C113.157 75.7017 113.076 75.7998 113.029 75.9192C113.003 75.9831 112.959 76.0151 112.895 76.0151H112.607C112.56 76.0151 112.524 76.0023 112.498 75.9767C112.477 75.9469 112.466 75.9128 112.466 75.8744C112.466 75.8104 112.49 75.7316 112.537 75.6378C112.588 75.544 112.664 75.4523 112.767 75.3627C112.869 75.2732 112.999 75.1986 113.157 75.1389C113.319 75.0749 113.515 75.043 113.745 75.043C114.001 75.043 114.216 75.0771 114.391 75.1453C114.566 75.2093 114.703 75.2967 114.801 75.4075C114.903 75.5184 114.975 75.6442 115.018 75.7849C115.065 75.9256 115.088 76.0684 115.088 76.2134V78.2855C115.088 78.3282 115.073 78.3644 115.044 78.3942C115.018 78.4198 114.984 78.4326 114.941 78.4326H114.647C114.6 78.4326 114.564 78.4198 114.538 78.3942C114.513 78.3644 114.5 78.3282 114.5 78.2855V78.0105C114.445 78.0873 114.37 78.164 114.276 78.2408C114.182 78.3132 114.065 78.3751 113.924 78.4262C113.784 78.4731 113.611 78.4966 113.406 78.4966ZM113.541 78.0169C113.715 78.0169 113.875 77.9807 114.02 77.9082C114.165 77.8314 114.278 77.7142 114.359 77.5564C114.445 77.3987 114.487 77.2004 114.487 76.9616V76.7826L113.745 76.8913C113.443 76.9339 113.214 77.0064 113.061 77.1087C112.907 77.2068 112.831 77.3326 112.831 77.4861C112.831 77.6055 112.865 77.7057 112.933 77.7867C113.006 77.8634 113.095 77.921 113.202 77.9593C113.313 77.9977 113.426 78.0169 113.541 78.0169ZM116.155 78.4326C116.112 78.4326 116.076 78.4198 116.046 78.3942C116.021 78.3644 116.008 78.3282 116.008 78.2855V75.254C116.008 75.2114 116.021 75.1773 116.046 75.1517C116.076 75.1219 116.112 75.1069 116.155 75.1069H116.455C116.498 75.1069 116.532 75.1219 116.558 75.1517C116.588 75.1773 116.603 75.2114 116.603 75.254V75.5354C116.713 75.3905 116.852 75.2732 117.018 75.1837C117.189 75.0899 117.406 75.043 117.671 75.043C117.948 75.043 118.182 75.1048 118.374 75.2284C118.57 75.3478 118.717 75.5162 118.815 75.7337C118.913 75.9469 118.963 76.1963 118.963 76.482V78.2855C118.963 78.3282 118.95 78.3644 118.924 78.3942C118.899 78.4198 118.864 78.4326 118.822 78.4326H118.502C118.459 78.4326 118.423 78.4198 118.393 78.3942C118.368 78.3644 118.355 78.3282 118.355 78.2855V76.5139C118.355 76.2155 118.282 75.9831 118.137 75.8168C117.993 75.6463 117.779 75.561 117.498 75.561C117.234 75.561 117.02 75.6463 116.858 75.8168C116.701 75.9831 116.622 76.2155 116.622 76.5139V78.2855C116.622 78.3282 116.607 78.3644 116.577 78.3942C116.551 78.4198 116.517 78.4326 116.475 78.4326H116.155ZM121.038 78.4966C120.799 78.4966 120.594 78.4667 120.424 78.407C120.253 78.3473 120.114 78.2749 120.008 78.1896C119.901 78.1043 119.82 78.019 119.765 77.9338C119.714 77.8485 119.686 77.7803 119.682 77.7291C119.677 77.6822 119.692 77.646 119.726 77.6204C119.761 77.5948 119.795 77.582 119.829 77.582H120.11C120.136 77.582 120.155 77.5863 120.168 77.5948C120.185 77.5991 120.206 77.6161 120.232 77.646C120.287 77.7057 120.349 77.7653 120.417 77.825C120.485 77.8847 120.569 77.9338 120.667 77.9721C120.769 78.0105 120.895 78.0297 121.044 78.0297C121.261 78.0297 121.44 77.9892 121.581 77.9082C121.722 77.8229 121.792 77.6993 121.792 77.5372C121.792 77.4306 121.762 77.3454 121.703 77.2814C121.647 77.2175 121.545 77.1599 121.396 77.1087C121.251 77.0576 121.05 77.0043 120.795 76.9488C120.539 76.8892 120.336 76.8167 120.187 76.7314C120.038 76.6419 119.931 76.5374 119.867 76.418C119.803 76.2944 119.771 76.1558 119.771 76.0023C119.771 75.8445 119.818 75.6932 119.912 75.5482C120.006 75.399 120.142 75.2775 120.321 75.1837C120.505 75.0899 120.733 75.043 121.006 75.043C121.227 75.043 121.417 75.0707 121.575 75.1261C121.733 75.1815 121.863 75.2519 121.965 75.3372C122.067 75.4182 122.144 75.4992 122.195 75.5802C122.246 75.6612 122.274 75.7294 122.278 75.7849C122.283 75.8275 122.27 75.8637 122.24 75.8936C122.21 75.9192 122.176 75.932 122.138 75.932H121.869C121.839 75.932 121.814 75.9256 121.792 75.9128C121.775 75.9 121.758 75.8851 121.741 75.868C121.698 75.8126 121.647 75.7571 121.588 75.7017C121.532 75.6463 121.458 75.6015 121.364 75.5674C121.274 75.529 121.155 75.5098 121.006 75.5098C120.792 75.5098 120.632 75.5546 120.526 75.6442C120.419 75.7337 120.366 75.8467 120.366 75.9831C120.366 76.0641 120.389 76.1366 120.436 76.2006C120.483 76.2645 120.573 76.3221 120.705 76.3732C120.837 76.4244 121.033 76.4798 121.293 76.5395C121.575 76.595 121.796 76.6696 121.958 76.7634C122.121 76.8572 122.236 76.9659 122.304 77.0896C122.372 77.2132 122.406 77.356 122.406 77.5181C122.406 77.6971 122.353 77.8613 122.246 78.0105C122.144 78.1597 121.99 78.2791 121.786 78.3687C121.585 78.4539 121.336 78.4966 121.038 78.4966Z" fill="#666666"/>
<g clip-path="url(#clip5_12413_100609)">
<path d="M181.429 76.4325C181.429 75.1728 180.405 74.1484 179.145 74.1484C177.885 74.1484 176.861 75.1728 176.861 76.4325C176.861 77.6922 177.885 78.7166 179.145 78.7166C180.405 78.7166 181.429 77.6922 181.429 76.4325ZM179.145 77.9553C178.305 77.9553 177.622 77.2723 177.622 76.4325C177.622 75.5927 178.305 74.9098 179.145 74.9098C179.985 74.9098 180.668 75.5927 180.668 76.4325C180.668 77.2723 179.985 77.9553 179.145 77.9553ZM177.622 80.6201C177.622 80.8306 177.452 81.0008 177.241 81.0008H176.48C175.431 81.0008 174.577 80.1469 174.577 79.0973V78.336C174.577 78.1254 174.747 77.9553 174.957 77.9553C175.168 77.9553 175.338 78.1254 175.338 78.336V79.0973C175.338 79.727 175.85 80.2394 176.48 80.2394H177.241C177.452 80.2394 177.622 80.4096 177.622 80.6201ZM183.713 78.336V79.0973C183.713 80.1469 182.859 81.0008 181.81 81.0008H181.048C180.838 81.0008 180.668 80.8306 180.668 80.6201C180.668 80.4096 180.838 80.2394 181.048 80.2394H181.81C182.439 80.2394 182.952 79.727 182.952 79.0973V78.336C182.952 78.1254 183.122 77.9553 183.332 77.9553C183.543 77.9553 183.713 78.1254 183.713 78.336ZM183.713 73.7677V74.5291C183.713 74.7396 183.543 74.9098 183.332 74.9098C183.122 74.9098 182.952 74.7396 182.952 74.5291V73.7677C182.952 73.138 182.439 72.6256 181.81 72.6256H181.048C180.838 72.6256 180.668 72.4555 180.668 72.2449C180.668 72.0344 180.838 71.8643 181.048 71.8643H181.81C182.859 71.8643 183.713 72.7181 183.713 73.7677ZM174.577 74.5291V73.7677C174.577 72.7181 175.431 71.8643 176.48 71.8643H177.241C177.452 71.8643 177.622 72.0344 177.622 72.2449C177.622 72.4555 177.452 72.6256 177.241 72.6256H176.48C175.85 72.6256 175.338 73.138 175.338 73.7677V74.5291C175.338 74.7396 175.168 74.9098 174.957 74.9098C174.747 74.9098 174.577 74.7396 174.577 74.5291Z" fill="#666666"/>
</g>
<path fill-rule="evenodd" clip-rule="evenodd" d="M192.057 73.4648C192.057 72.5823 192.823 71.8643 193.764 71.8643C194.705 71.8643 195.47 72.5823 195.47 73.4648V76.6215C195.47 77.4979 194.705 78.2109 193.764 78.2109C192.823 78.2109 192.057 77.4929 192.057 76.6105V73.4648ZM193.764 77.5439C194.313 77.5439 194.759 77.13 194.759 76.6214V73.4648C194.759 72.95 194.313 72.5312 193.764 72.5312C193.215 72.5312 192.768 72.95 192.768 73.4648V76.6104C192.768 77.1252 193.215 77.5439 193.764 77.5439Z" fill="#666666"/>
<path d="M196.098 76.3882C196.098 76.204 196.257 76.0547 196.454 76.0547C196.65 76.0547 196.809 76.204 196.809 76.3882V76.6549C196.809 78.1172 195.632 79.3265 194.119 79.4921V80.3339H194.7C194.896 80.3339 195.055 80.4831 195.055 80.6673C195.055 80.8515 194.896 81.0008 194.7 81.0008H192.828C192.631 81.0008 192.472 80.8515 192.472 80.6673C192.472 80.4831 192.631 80.3339 192.828 80.3339H193.408V79.4921C191.896 79.3265 190.718 78.1173 190.718 76.6549V76.3882C190.718 76.204 190.877 76.0547 191.074 76.0547C191.27 76.0547 191.429 76.204 191.429 76.3882V76.6549C191.429 77.8623 192.476 78.8446 193.764 78.8446C195.051 78.8446 196.098 77.8622 196.098 76.6549V76.3882Z" fill="#666666"/>
<g clip-path="url(#clip6_12413_100609)">
<path d="M212.532 73.387H211.77C211.246 73.387 210.819 73.8141 210.819 74.3387V75.1001C210.819 75.6247 211.246 76.0518 211.77 76.0518H212.532C213.056 76.0518 213.483 75.6247 213.483 75.1001V74.3387C213.483 73.8141 213.056 73.387 212.532 73.387ZM212.722 75.1001C212.722 75.2052 212.637 75.2904 212.532 75.2904H211.77C211.665 75.2904 211.58 75.2052 211.58 75.1001V74.3387C211.58 74.2337 211.665 74.1484 211.77 74.1484H212.532C212.637 74.1484 212.722 74.2337 212.722 74.3387V75.1001ZM215.197 76.0518H215.958C216.483 76.0518 216.91 75.6247 216.91 75.1001V74.3387C216.91 73.8141 216.483 73.387 215.958 73.387H215.197C214.672 73.387 214.245 73.8141 214.245 74.3387V75.1001C214.245 75.6247 214.672 76.0518 215.197 76.0518ZM215.006 74.3387C215.006 74.2337 215.091 74.1484 215.197 74.1484H215.958C216.063 74.1484 216.148 74.2337 216.148 74.3387V75.1001C216.148 75.2052 216.063 75.2904 215.958 75.2904H215.197C215.091 75.2904 215.006 75.2052 215.006 75.1001V74.3387ZM212.532 76.8132H211.77C211.246 76.8132 210.819 77.2403 210.819 77.7649V78.5263C210.819 79.0509 211.246 79.478 211.77 79.478H212.532C213.056 79.478 213.483 79.0509 213.483 78.5263V77.7649C213.483 77.2403 213.056 76.8132 212.532 76.8132ZM212.722 78.5263C212.722 78.6314 212.637 78.7166 212.532 78.7166H211.77C211.665 78.7166 211.58 78.6314 211.58 78.5263V77.7649C211.58 77.6599 211.665 77.5746 211.77 77.5746H212.532C212.637 77.5746 212.722 77.6599 212.722 77.7649V78.5263ZM212.341 80.6201C212.341 80.8302 212.171 81.0008 211.961 81.0008H211.199C210.15 81.0008 209.296 80.1469 209.296 79.0973V78.336C209.296 78.1258 209.466 77.9553 209.677 77.9553C209.887 77.9553 210.057 78.1258 210.057 78.336V79.0973C210.057 79.727 210.57 80.2394 211.199 80.2394H211.961C212.171 80.2394 212.341 80.4099 212.341 80.6201ZM218.432 78.336V79.0973C218.432 80.1469 217.579 81.0008 216.529 81.0008H215.768C215.557 81.0008 215.387 80.8302 215.387 80.6201C215.387 80.4099 215.557 80.2394 215.768 80.2394H216.529C217.159 80.2394 217.671 79.727 217.671 79.0973V78.336C217.671 78.1258 217.842 77.9553 218.052 77.9553C218.262 77.9553 218.432 78.1258 218.432 78.336ZM218.432 73.7677V74.5291C218.432 74.7392 218.262 74.9098 218.052 74.9098C217.842 74.9098 217.671 74.7392 217.671 74.5291V73.7677C217.671 73.138 217.159 72.6256 216.529 72.6256H215.768C215.557 72.6256 215.387 72.4551 215.387 72.2449C215.387 72.0348 215.557 71.8643 215.768 71.8643H216.529C217.579 71.8643 218.432 72.7181 218.432 73.7677ZM209.296 74.5291V73.7677C209.296 72.7181 210.15 71.8643 211.199 71.8643H211.961C212.171 71.8643 212.341 72.0348 212.341 72.2449C212.341 72.4551 212.171 72.6256 211.961 72.6256H211.199C210.57 72.6256 210.057 73.138 210.057 73.7677V74.5291C210.057 74.7392 209.887 74.9098 209.677 74.9098C209.466 74.9098 209.296 74.7392 209.296 74.5291ZM215.387 78.907C215.387 79.2222 215.131 79.478 214.816 79.478C214.501 79.478 214.245 79.2222 214.245 78.907C214.245 78.5918 214.501 78.336 214.816 78.336C215.131 78.336 215.387 78.5918 215.387 78.907ZM216.339 76.8132C216.654 76.8132 216.91 77.069 216.91 77.3842C216.91 77.6994 216.654 77.9553 216.339 77.9553C216.023 77.9553 215.768 77.6994 215.768 77.3842C215.768 77.069 216.023 76.8132 216.339 76.8132ZM214.245 77.3842C214.245 77.069 214.501 76.8132 214.816 76.8132C215.131 76.8132 215.387 77.069 215.387 77.3842C215.387 77.6994 215.131 77.9553 214.816 77.9553C214.501 77.9553 214.245 77.6994 214.245 77.3842Z" fill="white"/>
</g>
<path d="M114.419 92.8415C114.382 92.8415 114.346 92.8415 114.346 92.8051C114.346 92.7688 114.31 92.7688 114.31 92.7325V89.8981C114.31 89.8617 114.31 89.8254 114.346 89.8254C114.382 89.8254 114.382 89.7891 114.419 89.7891H115.763C116.017 89.7891 116.236 89.8254 116.381 89.8981C116.526 89.9708 116.672 90.0798 116.744 90.1888C116.817 90.3341 116.853 90.4795 116.853 90.6612C116.853 90.7702 116.817 90.8429 116.781 90.9519C116.744 91.0246 116.708 91.0972 116.635 91.1336C116.563 91.1699 116.526 91.2063 116.49 91.2426C116.599 91.2789 116.708 91.388 116.781 91.497C116.853 91.606 116.926 91.7513 116.926 91.933C116.926 92.1147 116.89 92.2964 116.781 92.4418C116.708 92.5871 116.563 92.6961 116.417 92.7688C116.236 92.8415 116.054 92.8778 115.799 92.8778H114.419V92.8415ZM115.109 91.0246H115.69C115.799 91.0246 115.908 90.9882 115.945 90.9156C115.981 90.8429 116.017 90.7702 116.017 90.6975C116.017 90.6248 115.981 90.5158 115.945 90.4432C115.872 90.4068 115.799 90.3705 115.654 90.3705H115.109V91.0246ZM115.109 92.2964H115.727C115.836 92.2964 115.945 92.2601 116.017 92.1874C116.09 92.1147 116.126 92.042 116.126 91.933C116.09 91.824 116.054 91.7513 115.981 91.6787C115.908 91.606 115.836 91.5696 115.69 91.5696H115.109V92.2964Z" fill="white"/>
<path d="M117.18 92.8423C117.144 92.8423 117.144 92.8423 117.108 92.8059C117.071 92.8059 117.071 92.7696 117.071 92.7696V92.7332L118.089 89.9352C118.089 89.8988 118.125 89.8625 118.125 89.8625C118.125 89.8625 118.198 89.8262 118.234 89.8262H118.888C118.925 89.8262 118.961 89.8262 118.997 89.8625C119.034 89.8988 119.034 89.8988 119.07 89.9352L120.087 92.7332V92.7696C120.087 92.8059 120.087 92.8059 120.051 92.8423C120.015 92.8786 120.015 92.8786 119.978 92.8786H119.433C119.397 92.8786 119.361 92.8786 119.324 92.8423C119.288 92.8059 119.288 92.8059 119.288 92.7696L119.106 92.3335H117.943L117.834 92.7696C117.834 92.7696 117.798 92.8059 117.798 92.8423C117.798 92.8786 117.725 92.8786 117.689 92.8786H117.18V92.8423ZM118.198 91.6794H118.997L118.598 90.5166L118.198 91.6794Z" fill="white"/>
<path d="M121.468 92.8778C121.286 92.8778 121.141 92.8415 120.996 92.8051C120.85 92.7688 120.705 92.6961 120.596 92.6235C120.487 92.5508 120.378 92.4418 120.305 92.2964C120.233 92.1874 120.196 92.042 120.196 91.8604C120.196 91.824 120.196 91.824 120.233 91.7877C120.233 91.7513 120.269 91.7513 120.305 91.7513H120.887C120.923 91.7513 120.959 91.7513 120.996 91.7877C121.032 91.824 121.032 91.824 121.068 91.8967C121.068 91.9694 121.105 92.042 121.141 92.0784C121.177 92.1147 121.214 92.1511 121.286 92.1874C121.359 92.2237 121.432 92.2237 121.504 92.2237C121.65 92.2237 121.759 92.1874 121.832 92.0784C121.904 91.9694 121.941 91.8604 121.941 91.6787V90.4432H120.523C120.487 90.4432 120.451 90.4432 120.451 90.4068C120.414 90.3705 120.414 90.3705 120.414 90.3341V89.8981C120.414 89.8617 120.414 89.8254 120.451 89.8254C120.487 89.7891 120.487 89.7891 120.523 89.7891H122.631C122.667 89.7891 122.704 89.7891 122.704 89.8254C122.74 89.8617 122.776 89.8617 122.776 89.8981V91.715C122.776 91.9694 122.704 92.1874 122.595 92.3691C122.486 92.5508 122.34 92.6598 122.159 92.7688C121.941 92.8415 121.723 92.8778 121.468 92.8778Z" fill="white"/>
<path d="M123.104 92.8415C123.067 92.8415 123.067 92.8415 123.031 92.8051C122.995 92.7688 122.995 92.7688 122.995 92.7325V92.6961L124.012 89.8981C124.012 89.8617 124.048 89.8254 124.048 89.8254C124.048 89.8254 124.121 89.7891 124.157 89.7891H124.812C124.848 89.7891 124.884 89.7891 124.921 89.8254C124.957 89.8617 124.957 89.8617 124.993 89.8981L126.011 92.6961V92.7325C126.011 92.7688 126.011 92.7688 125.974 92.8051C125.938 92.8415 125.938 92.8415 125.902 92.8415H125.429C125.393 92.8415 125.357 92.8415 125.32 92.8051C125.284 92.7688 125.284 92.7688 125.284 92.7325L125.102 92.2964H123.939L123.794 92.7688C123.794 92.7688 123.758 92.8051 123.758 92.8415C123.758 92.8778 123.685 92.8778 123.649 92.8778H123.104V92.8415ZM124.121 91.6787H124.921L124.521 90.5158L124.121 91.6787Z" fill="white"/>
<path d="M127.428 92.8778C127.246 92.8778 127.101 92.8415 126.955 92.8051C126.81 92.7688 126.664 92.6961 126.555 92.6235C126.446 92.5508 126.337 92.4418 126.265 92.2964C126.192 92.1874 126.156 92.042 126.156 91.8967C126.156 91.8604 126.156 91.8603 126.192 91.824C126.192 91.7877 126.228 91.7877 126.265 91.7877H126.846C126.883 91.7877 126.919 91.7877 126.955 91.824C126.992 91.8603 126.992 91.8604 127.028 91.933C127.028 92.0057 127.064 92.0784 127.101 92.1147C127.137 92.1511 127.173 92.1874 127.246 92.2237C127.319 92.2601 127.391 92.2601 127.464 92.2601C127.609 92.2601 127.718 92.2237 127.791 92.1147C127.864 92.0057 127.9 91.8967 127.9 91.715V90.4432H126.483C126.446 90.4432 126.41 90.4432 126.41 90.4068C126.374 90.3705 126.374 90.3705 126.374 90.3341V89.8981C126.374 89.8617 126.374 89.8254 126.41 89.8254C126.446 89.7891 126.446 89.7891 126.483 89.7891H128.59C128.627 89.7891 128.663 89.7891 128.663 89.8254C128.699 89.8617 128.699 89.8617 128.699 89.8981V91.715C128.699 91.9694 128.627 92.1874 128.518 92.3691C128.409 92.5508 128.263 92.6598 128.082 92.7688C127.9 92.8415 127.646 92.8778 127.428 92.8778Z" fill="white"/>
<path d="M130.335 92.8415C130.298 92.8415 130.262 92.8415 130.262 92.8051C130.262 92.7688 130.226 92.7688 130.226 92.7325V89.8981C130.226 89.8617 130.226 89.8254 130.262 89.8254C130.298 89.8254 130.298 89.7891 130.335 89.7891H132.333C132.37 89.7891 132.406 89.7891 132.406 89.8254C132.406 89.8617 132.442 89.8617 132.442 89.8981V90.3341C132.442 90.3705 132.442 90.4068 132.406 90.4068C132.37 90.4068 132.37 90.4432 132.333 90.4432H130.989V91.0972H132.261C132.297 91.0972 132.333 91.0972 132.333 91.1336C132.333 91.1699 132.333 91.1699 132.333 91.2063V91.6423C132.333 91.6787 132.333 91.6787 132.297 91.715C132.261 91.7513 132.261 91.7513 132.224 91.7513H130.952V92.7325C130.952 92.7688 130.952 92.7688 130.916 92.8051C130.88 92.8415 130.88 92.8415 130.843 92.8415H130.335Z" fill="white"/>
<path d="M133.024 92.8415C132.987 92.8415 132.951 92.8415 132.951 92.8051C132.951 92.7688 132.915 92.7688 132.915 92.7325V89.8981C132.915 89.8617 132.915 89.8254 132.951 89.8254C132.987 89.8254 132.987 89.7891 133.024 89.7891H133.605C133.641 89.7891 133.678 89.7891 133.678 89.8254C133.714 89.8617 133.714 89.8617 133.714 89.8981V92.7325C133.714 92.7688 133.714 92.7688 133.678 92.8051C133.641 92.8415 133.641 92.8415 133.605 92.8415H133.024Z" fill="white"/>
<path d="M134.441 92.8415C134.405 92.8415 134.368 92.8415 134.368 92.8051C134.368 92.7688 134.332 92.7688 134.332 92.7325V89.8981C134.332 89.8617 134.332 89.8254 134.368 89.8254C134.405 89.8254 134.405 89.7891 134.441 89.7891H134.877C134.913 89.7891 134.95 89.7891 134.986 89.8254C135.022 89.8617 135.022 89.8617 135.022 89.8617L136.076 91.5333V89.8981C136.076 89.8617 136.076 89.8254 136.113 89.8254C136.149 89.8254 136.149 89.7891 136.185 89.7891H136.694C136.73 89.7891 136.767 89.7891 136.767 89.8254C136.839 89.8617 136.839 89.8617 136.839 89.8981V92.7325C136.839 92.7688 136.839 92.8051 136.803 92.8051C136.767 92.8415 136.767 92.8415 136.73 92.8415H136.258C136.222 92.8415 136.185 92.8415 136.149 92.8051C136.113 92.7688 136.113 92.7688 136.113 92.7688L135.059 91.1699V92.7688C135.059 92.8051 135.059 92.8051 135.022 92.8415C134.986 92.8778 134.986 92.8778 134.95 92.8778H134.441V92.8415Z" fill="white"/>
<path d="M137.276 92.8415C137.239 92.8415 137.239 92.8415 137.203 92.8051C137.167 92.7688 137.167 92.7688 137.167 92.7325V92.6961L138.184 89.8981C138.184 89.8617 138.22 89.8254 138.22 89.8254C138.22 89.8254 138.293 89.7891 138.329 89.7891H138.983C139.02 89.7891 139.056 89.7891 139.092 89.8254C139.129 89.8617 139.129 89.8617 139.165 89.8981L140.183 92.6961V92.7325C140.183 92.7688 140.183 92.7688 140.146 92.8051C140.11 92.8415 140.11 92.8415 140.074 92.8415H139.601C139.565 92.8415 139.528 92.8415 139.492 92.8051C139.456 92.7688 139.456 92.7688 139.456 92.7325L139.274 92.2964H138.111L137.966 92.7688C137.966 92.7688 137.93 92.8051 137.93 92.8415C137.93 92.8778 137.857 92.8778 137.821 92.8778H137.276V92.8415ZM138.293 91.6787H139.092L138.693 90.5158L138.293 91.6787Z" fill="white"/>
<path d="M140.691 92.8415C140.655 92.8415 140.618 92.8415 140.618 92.8051C140.618 92.7688 140.582 92.7688 140.582 92.7325V89.8981C140.582 89.8617 140.582 89.8254 140.618 89.8254C140.655 89.8254 140.655 89.7891 140.691 89.7891H141.163C141.2 89.7891 141.236 89.7891 141.272 89.8254C141.309 89.8617 141.309 89.8617 141.309 89.8617L142.363 91.5333V89.8981C142.363 89.8617 142.363 89.8254 142.399 89.8254C142.435 89.7891 142.435 89.7891 142.472 89.7891H142.98C143.017 89.7891 143.053 89.7891 143.053 89.8254C143.089 89.8617 143.089 89.8617 143.089 89.8981V92.7325C143.089 92.7688 143.089 92.8051 143.053 92.8051C143.017 92.8415 143.017 92.8415 142.98 92.8415H142.508C142.472 92.8415 142.435 92.8415 142.399 92.8051C142.363 92.7688 142.363 92.7688 142.363 92.7688L141.309 91.1699V92.7688C141.309 92.8051 141.309 92.8051 141.272 92.8415C141.236 92.8778 141.236 92.8778 141.2 92.8778H140.691V92.8415Z" fill="white"/>
<path d="M144.943 92.8784C144.652 92.8784 144.434 92.8421 144.252 92.7331C144.071 92.6241 143.889 92.5151 143.78 92.3334C143.671 92.1517 143.598 91.9336 143.598 91.6793C143.598 91.5703 143.598 91.4249 143.598 91.2796C143.598 91.1342 143.598 91.0252 143.598 90.8798C143.598 90.6255 143.671 90.4074 143.78 90.2257C143.889 90.044 144.034 89.8987 144.252 89.826C144.47 89.7533 144.688 89.6807 144.943 89.6807C145.124 89.6807 145.306 89.717 145.488 89.7533C145.633 89.7897 145.778 89.8624 145.924 89.9714C146.069 90.0804 146.142 90.2257 146.215 90.3711C146.287 90.5164 146.324 90.6618 146.324 90.8072C146.324 90.8435 146.324 90.8435 146.287 90.8798C146.251 90.8798 146.251 90.9162 146.215 90.9162H145.633C145.597 90.9162 145.56 90.9162 145.56 90.8798C145.524 90.8798 145.524 90.8435 145.524 90.8072C145.488 90.6618 145.415 90.5528 145.342 90.4801C145.233 90.4074 145.124 90.4074 145.015 90.4074C144.87 90.4074 144.725 90.4438 144.652 90.5528C144.47 90.5891 144.434 90.7345 144.434 90.9525C144.434 91.2069 144.434 91.4249 144.434 91.6793C144.434 91.8973 144.507 92.0427 144.579 92.1153C144.688 92.188 144.797 92.2607 144.943 92.2607C145.088 92.2607 145.197 92.2244 145.27 92.188C145.379 92.1153 145.415 92.0427 145.451 91.861C145.451 91.8246 145.488 91.7883 145.488 91.7883C145.524 91.7883 145.524 91.752 145.56 91.752H146.142C146.178 91.752 146.178 91.752 146.215 91.7883C146.251 91.7883 146.251 91.8246 146.251 91.861C146.251 92.0063 146.215 92.188 146.142 92.297C146.069 92.4424 145.96 92.5514 145.851 92.6241C145.742 92.6967 145.597 92.7694 145.415 92.8421C145.342 92.8784 145.161 92.8784 144.943 92.8784Z" fill="white"/>
<path d="M146.869 92.8415C146.832 92.8415 146.796 92.8415 146.796 92.8051C146.796 92.7688 146.76 92.7688 146.76 92.7325V89.8981C146.76 89.8617 146.76 89.8254 146.796 89.8254C146.832 89.8254 146.832 89.7891 146.869 89.7891H148.904C148.94 89.7891 148.976 89.7891 148.976 89.8254C148.976 89.8617 149.013 89.8617 149.013 89.8981V90.2978C149.013 90.3341 149.013 90.3705 148.976 90.3705C148.94 90.3705 148.94 90.4068 148.904 90.4068H147.523V90.9882H148.831C148.867 90.9882 148.904 90.9882 148.904 91.0246C148.94 91.0609 148.94 91.0609 148.94 91.0972V91.4606C148.94 91.497 148.94 91.497 148.904 91.5333C148.867 91.5696 148.867 91.5696 148.831 91.5696H147.523V92.1874H148.94C148.976 92.1874 149.013 92.1874 149.013 92.2237C149.049 92.2601 149.049 92.2601 149.049 92.2964V92.6961C149.049 92.7325 149.049 92.7325 149.013 92.7688C148.976 92.8051 148.976 92.8051 148.94 92.8051H146.869V92.8415Z" fill="white"/>
<path d="M150.611 92.8415C150.575 92.8415 150.539 92.8415 150.539 92.8051C150.539 92.7688 150.502 92.7688 150.502 92.7325V89.8981C150.502 89.8617 150.502 89.8254 150.539 89.8254C150.575 89.8254 150.575 89.7891 150.611 89.7891H151.193C151.229 89.7891 151.266 89.7891 151.266 89.8254C151.302 89.8617 151.302 89.8617 151.302 89.8981V92.1874H152.61C152.646 92.1874 152.683 92.1874 152.683 92.2237C152.719 92.2601 152.719 92.2601 152.719 92.2964V92.7325C152.719 92.7688 152.719 92.7688 152.683 92.8051C152.646 92.8415 152.646 92.8415 152.61 92.8415H150.611Z" fill="white"/>
<path d="M153.192 92.8415C153.155 92.8415 153.119 92.8415 153.119 92.8051C153.119 92.7688 153.083 92.7688 153.083 92.7325V89.8981C153.083 89.8617 153.083 89.8254 153.119 89.8254C153.155 89.8254 153.155 89.7891 153.192 89.7891H153.773C153.809 89.7891 153.846 89.7891 153.846 89.8254C153.882 89.8617 153.882 89.8617 153.882 89.8981V92.7325C153.882 92.7688 153.882 92.7688 153.846 92.8051C153.809 92.8415 153.809 92.8415 153.773 92.8415H153.192Z" fill="white"/>
<path d="M154.609 92.8415C154.572 92.8415 154.572 92.8415 154.536 92.8051C154.5 92.7688 154.5 92.7688 154.5 92.7325V89.8981C154.5 89.8617 154.5 89.8254 154.536 89.8254C154.572 89.7891 154.572 89.7891 154.609 89.7891H155.081C155.117 89.7891 155.154 89.7891 155.19 89.8254C155.226 89.8617 155.226 89.8617 155.226 89.8981L155.989 91.2789L156.752 89.8981C156.752 89.8981 156.789 89.8617 156.789 89.8254C156.789 89.7891 156.862 89.7891 156.898 89.7891H157.37C157.407 89.7891 157.443 89.7891 157.443 89.8254C157.479 89.8617 157.479 89.8617 157.479 89.8981V92.7325C157.479 92.7688 157.479 92.7688 157.443 92.8051C157.407 92.8415 157.407 92.8415 157.37 92.8415H156.862C156.825 92.8415 156.789 92.8415 156.789 92.8051C156.752 92.7688 156.752 92.7688 156.752 92.7325V91.0972L156.28 92.0057C156.28 92.042 156.244 92.042 156.207 92.0784C156.171 92.1147 156.135 92.1147 156.098 92.1147H155.88C155.844 92.1147 155.808 92.1147 155.771 92.0784C155.735 92.042 155.735 92.042 155.699 92.0057L155.226 91.0972V92.7325C155.226 92.7688 155.226 92.7688 155.19 92.8051C155.154 92.8415 155.154 92.8415 155.117 92.8415H154.609Z" fill="white"/>
<path d="M158.206 92.8415C158.17 92.8415 158.134 92.8415 158.134 92.8051C158.134 92.7688 158.097 92.7688 158.097 92.7325V89.8981C158.097 89.8617 158.097 89.8254 158.134 89.8254C158.17 89.8254 158.17 89.7891 158.206 89.7891H158.788C158.824 89.7891 158.86 89.7891 158.86 89.8254C158.897 89.8617 158.897 89.8617 158.897 89.8981V92.7325C158.897 92.7688 158.897 92.7688 158.86 92.8051C158.824 92.8415 158.824 92.8415 158.788 92.8415H158.206Z" fill="white"/>
<path d="M160.314 92.8415C160.277 92.8415 160.241 92.8415 160.241 92.8051C160.205 92.7688 160.205 92.7688 160.205 92.7325V90.4795H159.442C159.405 90.4795 159.369 90.4795 159.369 90.4432C159.369 90.4068 159.333 90.4068 159.333 90.3705V89.8981C159.333 89.8617 159.333 89.8254 159.369 89.8254C159.405 89.8254 159.405 89.7891 159.442 89.7891H161.804C161.84 89.7891 161.876 89.7891 161.876 89.8254C161.913 89.8617 161.913 89.8617 161.913 89.8981V90.3705C161.913 90.4068 161.913 90.4068 161.876 90.4432C161.84 90.4795 161.84 90.4795 161.804 90.4795H161.04V92.7325C161.04 92.7688 161.04 92.7688 161.004 92.8051C160.968 92.8415 160.968 92.8415 160.931 92.8415H160.314Z" fill="white"/>
<path d="M162.385 92.8415C162.349 92.8415 162.313 92.8415 162.313 92.8051C162.313 92.7688 162.276 92.7688 162.276 92.7325V89.8981C162.276 89.8617 162.276 89.8254 162.313 89.8254C162.349 89.8254 162.349 89.7891 162.385 89.7891H164.42C164.457 89.7891 164.493 89.7891 164.493 89.8254C164.493 89.8617 164.529 89.8617 164.529 89.8981V90.2978C164.529 90.3341 164.529 90.3705 164.493 90.3705C164.457 90.3705 164.457 90.4068 164.42 90.4068H163.039V90.9882H164.348C164.384 90.9882 164.42 90.9882 164.42 91.0246C164.457 91.0609 164.457 91.0609 164.457 91.0972V91.4606C164.457 91.497 164.457 91.497 164.42 91.5333C164.384 91.5696 164.384 91.5696 164.348 91.5696H163.039V92.1874H164.457C164.493 92.1874 164.529 92.1874 164.529 92.2237C164.566 92.2601 164.566 92.2601 164.566 92.2964V92.6961C164.566 92.7325 164.566 92.7325 164.529 92.7688C164.493 92.8051 164.493 92.8051 164.457 92.8051H162.385V92.8415Z" fill="white"/>
<path d="M165.183 92.8415C165.147 92.8415 165.111 92.8415 165.111 92.8051C165.111 92.7688 165.074 92.7688 165.074 92.7325V89.8981C165.074 89.8617 165.074 89.8254 165.111 89.8254C165.147 89.8254 165.147 89.7891 165.183 89.7891H166.31C166.6 89.7891 166.855 89.8254 167.036 89.9344C167.255 90.0434 167.4 90.1524 167.509 90.3341C167.618 90.5158 167.691 90.7339 167.691 90.9882C167.691 91.1336 167.691 91.2426 167.691 91.3153C167.691 91.4243 167.691 91.5333 167.691 91.6423C167.691 91.8967 167.618 92.1511 167.509 92.2964C167.4 92.4418 167.255 92.6235 167.073 92.6961C166.891 92.7688 166.637 92.8415 166.346 92.8415H165.183ZM165.837 92.2237H166.31C166.419 92.2237 166.528 92.1874 166.637 92.1511C166.709 92.1147 166.782 92.042 166.818 91.9694C166.855 91.8967 166.891 91.7877 166.891 91.6423C166.891 91.5696 166.891 91.497 166.891 91.4243C166.891 91.3516 166.891 91.2789 166.891 91.2063C166.891 91.1336 166.891 91.0609 166.891 90.9882C166.891 90.8065 166.818 90.6612 166.746 90.5522C166.637 90.4432 166.491 90.4068 166.31 90.4068H165.874V92.2237H165.837Z" fill="white"/>
<path d="M160.316 43.5003C160.87 44.1157 161.819 44.165 162.434 43.6104L172.463 34.5729C173.078 34.0183 173.128 33.0699 172.573 32.4545C172.019 31.8391 171.07 31.7897 170.455 32.3443L161.54 40.3776L153.507 31.4633C152.952 30.8479 152.004 30.7985 151.389 31.3531C150.773 31.9077 150.724 32.8562 151.278 33.4716L160.316 43.5003ZM113.472 1.49624C113.371 2.99285 113.371 2.99282 113.37 2.99281C113.371 2.99283 113.371 2.99283 113.371 2.99285C113.372 2.99291 113.373 2.99301 113.376 2.99317C113.38 2.99349 113.388 2.99403 113.398 2.9948C113.419 2.99634 113.452 2.9988 113.496 3.00231C113.584 3.00932 113.718 3.0205 113.893 3.03679C114.245 3.06937 114.766 3.12236 115.432 3.20323C116.763 3.36503 118.67 3.63814 120.954 4.08204C125.531 4.9713 131.588 6.5389 137.565 9.24801C143.548 11.9597 149.375 15.781 153.582 21.1377C157.765 26.4633 160.402 33.3745 159.932 42.4182L162.928 42.574C163.436 32.7985 160.568 25.1752 155.942 19.2847C151.34 13.4254 145.055 9.34907 138.804 6.51558C132.547 3.67952 126.247 2.05433 121.526 1.13711C119.162 0.677767 117.185 0.394209 115.794 0.22515C115.098 0.140594 114.548 0.0846071 114.17 0.0495687C113.981 0.0320479 113.834 0.0197599 113.734 0.0117543C113.683 0.00775135 113.645 0.00481856 113.618 0.00283718C113.604 0.00184643 113.594 0.00109363 113.586 0.000563622C113.582 0.000298738 113.579 8.95262e-05 113.577 -6.58035e-05C113.576 -0.000143409 113.575 -0.00022018 113.574 -0.000258684C113.573 -0.000321984 113.572 -0.000372052 113.472 1.49624Z" fill="#FF5B00"/>
<defs>
<clipPath id="clip0_12413_100609">
<rect width="33.5714" height="14.6184" fill="white" transform="translate(62.6543 46.7383)"/>
</clipPath>
<clipPath id="clip1_12413_100609">
<rect width="10.9638" height="10.9638" fill="white" transform="translate(135.29 48.5654)"/>
</clipPath>
<clipPath id="clip2_12413_100609">
<rect width="10.9638" height="10.9638" fill="white" transform="translate(153.562 48.5654)"/>
</clipPath>
<clipPath id="clip3_12413_100609">
<rect width="10.9638" height="10.9638" fill="white" transform="translate(190.108 48.5654)"/>
</clipPath>
<clipPath id="clip4_12413_100609">
<rect width="10.9638" height="10.9638" fill="white" transform="translate(208.382 48.5654)"/>
</clipPath>
<clipPath id="clip5_12413_100609">
<rect width="9.13651" height="9.13651" fill="white" transform="translate(174.577 71.8643)"/>
</clipPath>
<clipPath id="clip6_12413_100609">
<rect width="9.13651" height="9.13651" fill="white" transform="translate(209.296 71.8643)"/>
</clipPath>
</defs>
</svg>
