<svg width="18" height="15" viewBox="0 0 18 15" fill="none" xmlns="http://www.w3.org/2000/svg">
<path fill-rule="evenodd" clip-rule="evenodd" d="M17.7385 11.7047L10.3943 0.729781C10.0899 0.275033 9.56443 0 9.0003 0C8.43612 0 7.91059 0.275033 7.60621 0.729781L0.261511 11.7047C-0.064853 12.1921 -0.0874154 12.8113 0.203235 13.3192C0.493345 13.8269 1.05035 14.1429 1.65552 14.1429H16.3444C16.9495 14.1429 17.5066 13.8272 17.7967 13.3192C18.0874 12.8113 18.0649 12.1921 17.7385 11.7047ZM8.07825 4.46076C8.07825 3.97815 8.48726 3.5871 8.99135 3.5871C9.49551 3.5871 9.90449 3.97815 9.90449 4.46076V8.20945C9.90449 8.69206 9.49551 9.08311 8.99135 9.08311C8.48726 9.08311 8.07825 8.69206 8.07825 8.20945V4.46076ZM7.8327 11.1553C7.8327 11.7584 8.34396 12.2474 8.97409 12.2474C9.60426 12.2474 10.1155 11.7584 10.1155 11.1553C10.1155 10.552 9.60426 10.0632 8.97409 10.0632C8.34396 10.0632 7.8327 10.552 7.8327 11.1553Z" fill="#EBAA00"/>
<mask id="mask0_12413_101153" style="mask-type:alpha" maskUnits="userSpaceOnUse" x="0" y="0" width="18" height="15">
<path fill-rule="evenodd" clip-rule="evenodd" d="M17.7385 11.7047L10.3943 0.729781C10.0899 0.275033 9.56443 0 9.0003 0C8.43612 0 7.91059 0.275033 7.60621 0.729781L0.261511 11.7047C-0.064853 12.1921 -0.0874154 12.8113 0.203235 13.3192C0.493345 13.8269 1.05035 14.1429 1.65552 14.1429H16.3444C16.9495 14.1429 17.5066 13.8272 17.7967 13.3192C18.0874 12.8113 18.0649 12.1921 17.7385 11.7047ZM8.07825 4.46076C8.07825 3.97815 8.48726 3.5871 8.99135 3.5871C9.49551 3.5871 9.90449 3.97815 9.90449 4.46076V8.20945C9.90449 8.69206 9.49551 9.08311 8.99135 9.08311C8.48726 9.08311 8.07825 8.69206 8.07825 8.20945V4.46076ZM7.8327 11.1553C7.8327 11.7584 8.34396 12.2474 8.97409 12.2474C9.60426 12.2474 10.1155 11.7584 10.1155 11.1553C10.1155 10.552 9.60426 10.0632 8.97409 10.0632C8.34396 10.0632 7.8327 10.552 7.8327 11.1553Z" fill="#8800A6"/>
</mask>
<g mask="url(#mask0_12413_101153)">
<path fill-rule="evenodd" clip-rule="evenodd" d="M2.14648 24.1389C2.14648 24.1389 4.71346 27.5825 9.03176 27.6235C13.35 27.6651 16.8325 25.1235 19.9902 22.7511C23.1478 20.3788 24.1484 16.5153 22.5195 13.3845C20.8906 10.2538 18.0196 11.405 14.5274 9.25795C11.0352 7.11089 10.4077 5.95653 6.39233 6.25047C2.37698 6.54442 -0.891986 11.3227 -0.684461 16.5843C-0.47697 21.8466 2.14648 24.1389 2.14648 24.1389Z" fill="#EBAA00"/>
</g>
</svg>
