<svg width="108" height="108" viewBox="0 0 108 108" fill="none" xmlns="http://www.w3.org/2000/svg">
<path fill-rule="evenodd" clip-rule="evenodd" d="M54.3509 2.21412e-07C55.5587 -0.000306189 56.7451 0.317421 57.7913 0.921142C58.8374 1.52486 59.7063 2.39326 60.3103 3.43921C60.9144 4.48515 61.2326 5.67179 61.2327 6.87963C61.2328 8.08747 60.9147 9.27404 60.3108 10.3201C59.3508 12.0001 58.2708 11.2801 56.3108 13.8401C55.2315 13.4564 54.0963 13.2536 52.9509 13.24H36.511C35.3653 13.2498 34.229 13.4528 33.1507 13.8401C30.9907 11.2801 29.9107 11.9601 29.1507 10.3201C28.5468 9.27404 28.2292 8.08747 28.2293 6.87963C28.2294 5.67179 28.5471 4.48515 29.1512 3.43921C29.7552 2.39326 30.6241 1.52486 31.6702 0.921142C32.7163 0.317421 33.9028 -0.000306189 35.1106 2.21412e-07H54.3509ZM52.7508 19.56C53.5888 19.56 54.3925 19.893 54.9851 20.4856C55.5777 21.0782 55.9109 21.8819 55.9109 22.72C55.9109 23.558 55.5777 24.3617 54.9851 24.9543C54.3925 25.5469 53.5888 25.8799 52.7508 25.8799H36.3108C35.4727 25.8799 34.6691 25.5469 34.0765 24.9543C33.4838 24.3617 33.1507 23.558 33.1507 22.72C33.161 21.8851 33.4973 21.0874 34.0877 20.4971C34.6781 19.9067 35.476 19.5704 36.3108 19.56H52.7508ZM69.9509 70.3601C69.3568 69.766 68.5509 69.4321 67.7107 69.4321C66.8705 69.4321 66.065 69.766 65.471 70.3601C64.8769 70.9541 64.5432 71.7599 64.5432 72.6C64.5432 73.4402 64.8769 74.2459 65.471 74.84C65.7651 75.1342 66.1145 75.3674 66.4988 75.5266C66.8831 75.6858 67.2947 75.7678 67.7107 75.7678C68.1267 75.7678 68.5388 75.6858 68.9231 75.5266C69.3074 75.3674 69.6568 75.1342 69.9509 74.84C70.2451 74.5459 70.4783 74.1965 70.6375 73.8122C70.7967 73.4279 70.8787 73.016 70.8787 72.6C70.8787 72.184 70.7967 71.772 70.6375 71.3876C70.4783 71.0033 70.2451 70.6542 69.9509 70.3601ZM83.3909 83.8C82.7968 83.2059 81.9908 82.872 81.1506 82.872C80.3105 82.872 79.505 83.2059 78.9109 83.8C78.3168 84.3941 77.9832 85.1998 77.9832 86.04C77.9832 86.8801 78.3168 87.6859 78.9109 88.28C79.2051 88.5741 79.5544 88.8075 79.9387 88.9667C80.3231 89.1259 80.7346 89.2077 81.1506 89.2077C81.5666 89.2077 81.9787 89.1259 82.363 88.9667C82.7474 88.8075 83.0967 88.5741 83.3909 88.28C83.685 87.9858 83.9182 87.6365 84.0774 87.2521C84.2366 86.8678 84.3186 86.456 84.3186 86.04C84.3186 85.624 84.2366 85.2119 84.0774 84.8276C83.9182 84.4432 83.685 84.0941 83.3909 83.8ZM83.3909 70.52C83.0972 70.2249 82.7479 69.9908 82.3635 69.831C81.9791 69.6712 81.5669 69.5888 81.1506 69.5888C80.7343 69.5888 80.3222 69.6712 79.9378 69.831C79.5533 69.9908 79.2045 70.2249 78.9109 70.52L65.511 83.9599C65.2159 84.2535 64.9813 84.6026 64.8215 84.987C64.6618 85.3714 64.5798 85.7836 64.5798 86.1999C64.5798 86.6162 64.6618 87.0284 64.8215 87.4128C64.9813 87.7972 65.2159 88.1462 65.511 88.4399C66.114 89.0169 66.9161 89.339 67.7507 89.339C68.5853 89.339 69.388 89.0169 69.991 88.4399L83.3909 74.9999C83.717 74.7244 83.984 74.3857 84.1755 74.0041C84.3671 73.6225 84.4794 73.2059 84.5056 72.7797C84.5318 72.3536 84.4713 71.9265 84.3279 71.5244C84.1844 71.1222 83.9606 70.7533 83.6707 70.4399L83.3909 70.52ZM29.7107 29.6399C31.4585 31.2988 33.781 32.2164 36.1907 32.1999H52.6306C55.0373 32.2001 57.3539 31.2848 59.1106 29.6399C62.7906 34.2399 67.1109 39.2401 71.3909 44.8401C64.2532 45.4393 57.4763 48.2339 51.991 52.84C48.3604 55.4963 45.3897 58.9523 43.3089 62.9406C41.228 66.929 40.0927 71.3427 39.991 75.84C39.331 82.4526 40.5804 89.1157 43.5911 95.04C36.5127 95.2437 29.4657 94.0192 22.8709 91.4399C18.1744 89.4994 14.1968 86.1478 11.4881 81.8483C8.77942 77.5489 7.47345 72.5139 7.75079 67.4399C7.91079 54.0799 21.711 40 29.991 29.56L29.7107 29.6399ZM74.511 51.04C80.1438 51.04 85.6497 52.7104 90.3333 55.8398C95.0168 58.9692 98.6674 63.417 100.823 68.621C102.979 73.8251 103.542 79.5515 102.444 85.0761C101.345 90.6007 98.6322 95.6754 94.6492 99.6584C90.6662 103.641 85.5917 106.354 80.0671 107.453C74.5426 108.552 68.8161 107.988 63.6121 105.832C58.408 103.676 53.9603 100.026 50.8308 95.3425C47.7014 90.659 46.031 85.1528 46.031 79.52C46.0203 75.7495 46.7579 72.0144 48.2019 68.5314C49.6459 65.0484 51.7672 61.8867 54.4426 59.2299C57.1181 56.5731 60.2944 54.4741 63.7874 53.0544C67.2804 51.6348 71.0205 50.9228 74.7908 50.9599L74.511 51.04Z" fill="#1778EB"/>
<mask id="mask0_4266_25484" style="mask-type:alpha" maskUnits="userSpaceOnUse" x="7" y="0" width="96" height="108">
<path fill-rule="evenodd" clip-rule="evenodd" d="M54.3509 2.21412e-07C55.5587 -0.000306189 56.7451 0.317421 57.7913 0.921142C58.8374 1.52486 59.7063 2.39326 60.3103 3.43921C60.9144 4.48515 61.2326 5.67179 61.2327 6.87963C61.2328 8.08747 60.9147 9.27404 60.3108 10.3201C59.3508 12.0001 58.2708 11.2801 56.3108 13.8401C55.2315 13.4564 54.0963 13.2536 52.9509 13.24H36.511C35.3653 13.2498 34.229 13.4528 33.1507 13.8401C30.9907 11.2801 29.9107 11.9601 29.1507 10.3201C28.5468 9.27404 28.2292 8.08747 28.2293 6.87963C28.2294 5.67179 28.5471 4.48515 29.1512 3.43921C29.7552 2.39326 30.6241 1.52486 31.6702 0.921142C32.7163 0.317421 33.9028 -0.000306189 35.1106 2.21412e-07H54.3509ZM52.7508 19.56C53.5888 19.56 54.3925 19.893 54.9851 20.4856C55.5777 21.0782 55.9109 21.8819 55.9109 22.72C55.9109 23.558 55.5777 24.3617 54.9851 24.9543C54.3925 25.5469 53.5888 25.8799 52.7508 25.8799H36.3108C35.4727 25.8799 34.6691 25.5469 34.0765 24.9543C33.4838 24.3617 33.1507 23.558 33.1507 22.72C33.161 21.8851 33.4973 21.0874 34.0877 20.4971C34.6781 19.9067 35.476 19.5704 36.3108 19.56H52.7508ZM69.9509 70.3601C69.3568 69.766 68.5509 69.4321 67.7107 69.4321C66.8705 69.4321 66.065 69.766 65.471 70.3601C64.8769 70.9541 64.5432 71.7599 64.5432 72.6C64.5432 73.4402 64.8769 74.2459 65.471 74.84C65.7651 75.1342 66.1145 75.3674 66.4988 75.5266C66.8831 75.6858 67.2947 75.7678 67.7107 75.7678C68.1267 75.7678 68.5388 75.6858 68.9231 75.5266C69.3074 75.3674 69.6568 75.1342 69.9509 74.84C70.2451 74.5459 70.4783 74.1965 70.6375 73.8122C70.7967 73.4279 70.8787 73.016 70.8787 72.6C70.8787 72.184 70.7967 71.772 70.6375 71.3876C70.4783 71.0033 70.2451 70.6542 69.9509 70.3601ZM83.3909 83.8C82.7968 83.2059 81.9908 82.872 81.1506 82.872C80.3105 82.872 79.505 83.2059 78.9109 83.8C78.3168 84.3941 77.9832 85.1998 77.9832 86.04C77.9832 86.8801 78.3168 87.6859 78.9109 88.28C79.2051 88.5741 79.5544 88.8075 79.9387 88.9667C80.3231 89.1259 80.7346 89.2077 81.1506 89.2077C81.5666 89.2077 81.9787 89.1259 82.363 88.9667C82.7474 88.8075 83.0967 88.5741 83.3909 88.28C83.685 87.9858 83.9182 87.6365 84.0774 87.2521C84.2366 86.8678 84.3186 86.456 84.3186 86.04C84.3186 85.624 84.2366 85.2119 84.0774 84.8276C83.9182 84.4432 83.685 84.0941 83.3909 83.8ZM83.3909 70.52C83.0972 70.2249 82.7479 69.9908 82.3635 69.831C81.9791 69.6712 81.5669 69.5888 81.1506 69.5888C80.7343 69.5888 80.3222 69.6712 79.9378 69.831C79.5533 69.9908 79.2045 70.2249 78.9109 70.52L65.511 83.9599C65.2159 84.2535 64.9813 84.6026 64.8215 84.987C64.6618 85.3714 64.5798 85.7836 64.5798 86.1999C64.5798 86.6162 64.6618 87.0284 64.8215 87.4128C64.9813 87.7972 65.2159 88.1462 65.511 88.4399C66.114 89.0169 66.9161 89.339 67.7507 89.339C68.5853 89.339 69.388 89.0169 69.991 88.4399L83.3909 74.9999C83.717 74.7244 83.984 74.3857 84.1755 74.0041C84.3671 73.6225 84.4794 73.2059 84.5056 72.7797C84.5318 72.3536 84.4713 71.9265 84.3279 71.5244C84.1844 71.1222 83.9606 70.7533 83.6707 70.4399L83.3909 70.52ZM29.7107 29.6399C31.4585 31.2988 33.781 32.2164 36.1907 32.1999H52.6306C55.0373 32.2001 57.3539 31.2848 59.1106 29.6399C62.7906 34.2399 67.1109 39.2401 71.3909 44.8401C64.2532 45.4393 57.4763 48.2339 51.991 52.84C48.3604 55.4963 45.3897 58.9523 43.3089 62.9406C41.228 66.929 40.0927 71.3427 39.991 75.84C39.331 82.4526 40.5804 89.1157 43.5911 95.04C36.5127 95.2437 29.4657 94.0192 22.8709 91.4399C18.1744 89.4994 14.1968 86.1478 11.4881 81.8483C8.77942 77.5489 7.47345 72.5139 7.75079 67.4399C7.91079 54.0799 21.711 40 29.991 29.56L29.7107 29.6399ZM74.511 51.04C80.1438 51.04 85.6497 52.7104 90.3333 55.8398C95.0168 58.9692 98.6674 63.417 100.823 68.621C102.979 73.8251 103.542 79.5515 102.444 85.0761C101.345 90.6007 98.6322 95.6754 94.6492 99.6584C90.6662 103.641 85.5917 106.354 80.0671 107.453C74.5426 108.552 68.8161 107.988 63.6121 105.832C58.408 103.676 53.9603 100.026 50.8308 95.3425C47.7014 90.659 46.031 85.1528 46.031 79.52C46.0203 75.7495 46.7579 72.0144 48.2019 68.5314C49.6459 65.0484 51.7672 61.8867 54.4426 59.2299C57.1181 56.5731 60.2944 54.4741 63.7874 53.0544C67.2804 51.6348 71.0205 50.9228 74.7908 50.9599L74.511 51.04Z" fill="#8800A6"/>
</mask>
<g mask="url(#mask0_4266_25484)">
<path fill-rule="evenodd" clip-rule="evenodd" d="M-20.2731 85.3648C-20.2731 85.3648 -22.4402 51.1499 18.5897 74.2856C59.6195 97.4213 82.7393 59.2853 103.323 69.5452C123.906 79.805 146.931 119.048 129.488 149.612C112.046 180.176 105.546 203.444 67.7115 194.903C29.8769 186.362 -1.89563 238.472 -12.9352 197.234C-23.9747 155.996 -20.2731 85.3648 -20.2731 85.3648Z" fill="#1778EB"/>
</g>
</svg>
