<svg width="44" height="32" viewBox="0 0 44 32" fill="none" xmlns="http://www.w3.org/2000/svg">
<path d="M30.9475 31.5036C31.5039 32.1173 32.4525 32.1638 33.0663 31.6074L43.0676 22.5397C43.6814 21.9833 43.7278 21.0347 43.1714 20.4209C42.615 19.8072 41.6663 19.7607 41.0526 20.3172L32.1625 28.3773L24.1024 19.4872C23.5459 18.8735 22.5973 18.827 21.9836 19.3834C21.3698 19.9399 21.3234 20.8885 21.8798 21.5022L30.9475 31.5036ZM0.10791 1.4962C0.000934273 2.99238 0.000476092 2.99234 0.000144266 2.99232C0.000201963 2.99232 -5.7593e-06 2.99231 0.000107884 2.99232C0.000334166 2.99233 0.0010608 2.99239 0.00228376 2.99248C0.00472974 2.99266 0.00916073 2.993 0.0155446 2.99349C0.0283126 2.99449 0.0488895 2.99613 0.0770178 2.99851C0.133278 3.00326 0.219722 3.01094 0.334292 3.0222C0.56347 3.04473 0.904949 3.08159 1.34229 3.13802C2.21741 3.25095 3.47382 3.44196 4.98051 3.75275C8.00131 4.37586 11.991 5.47295 15.9217 7.36445C19.8555 9.25744 23.6653 11.9147 26.4105 15.6257C29.1359 19.31 30.8697 24.1082 30.5605 30.4227L33.5569 30.5695C33.8995 23.5729 31.9654 18.0905 28.8223 13.8415C25.6989 9.61922 21.4395 6.69037 17.2226 4.66116C13.0026 2.63047 8.76025 1.46925 5.58658 0.814607C3.99604 0.486521 2.66463 0.283786 1.72624 0.162693C1.25683 0.102118 0.885128 0.0618917 0.627817 0.0365946C0.499143 0.0239443 0.399014 0.0150216 0.329514 0.00915122C0.294761 0.00621581 0.26766 0.0040431 0.248471 0.00254869C0.238876 0.00180149 0.231258 0.0012238 0.22565 0.00080502C0.222846 0.000595689 0.220544 0.000426054 0.218749 0.000294924C0.217852 0.000229359 0.216885 0.000159144 0.216436 0.000126719C0.215598 6.62804e-05 0.214886 1.52588e-05 0.10791 1.4962Z" fill="#FF5B00"/>
</svg>
