<svg width="33" height="33" viewBox="0 0 33 33" fill="none" xmlns="http://www.w3.org/2000/svg">
<path fill-rule="evenodd" clip-rule="evenodd" d="M16.0089 32.0177C24.8503 32.0177 32.0177 24.8503 32.0177 16.0089C32.0177 7.16741 24.8503 0 16.0089 0C7.16741 0 0 7.16741 0 16.0089C0 24.8503 7.16741 32.0177 16.0089 32.0177ZM25.4876 11.8341C25.1838 11.4351 24.6168 11.3601 24.2212 11.6666L12.528 20.7253L8.9074 15.1682L8.88323 15.1329C8.60157 14.7414 8.06154 14.6388 7.65658 14.9072C7.23971 15.1835 7.12385 15.7483 7.39779 16.1687L11.5525 22.5453L11.5759 22.5796C11.8723 22.9929 12.4521 23.0816 12.8575 22.7675L25.3215 13.1115L25.3547 13.0846C25.7211 12.7725 25.7828 12.2217 25.4876 11.8341Z" fill="#56B947"/>
</svg>
