<svg width="106" height="118" viewBox="0 0 106 118" fill="none" xmlns="http://www.w3.org/2000/svg">
<path d="M32.4108 3.93429C32.4108 1.76144 34.2256 0 36.4642 0H68.891C71.1296 0 72.9444 1.76144 72.9444 3.93429C72.9444 6.10713 71.1296 7.86858 68.891 7.86858H36.4642C34.2256 7.86858 32.4108 6.10713 32.4108 3.93429Z" fill="#1778EB"/>
<path fill-rule="evenodd" clip-rule="evenodd" d="M0 66.8671C0 38.6739 23.6299 15.7381 52.6766 15.7381C81.7233 15.7381 105.357 38.6739 105.357 66.8671C105.357 95.0604 81.7233 118 52.6766 118C23.6299 118 0 95.0604 0 66.8671ZM55.5392 32.5625C54.7642 31.8139 53.7105 31.4009 52.6172 31.4175C50.3854 31.4493 48.6002 33.2267 48.6242 35.393V66.8671C48.6213 67.9123 49.047 68.9157 49.8075 69.6557L66.0208 85.3774C67.0281 86.4416 68.5555 86.8841 69.9989 86.5298C71.4424 86.1755 72.5695 85.0816 72.9345 83.6805C73.2995 82.2795 72.8436 80.797 71.7472 79.8193L56.7329 65.2423V35.393C56.7447 34.3318 56.3142 33.3111 55.5392 32.5625Z" fill="#1778EB"/>
</svg>
