<svg width="16" height="16" viewBox="0 0 16 16" fill="none" xmlns="http://www.w3.org/2000/svg">
<path d="M7.77312 6.33075C7.35299 6.33075 7.05426 6.53292 7.05426 6.83084V10.8846C7.05426 11.14 7.35302 11.3953 7.77312 11.3953C8.17455 11.3953 8.50129 11.14 8.50129 10.8846V6.83084C8.50129 6.53292 8.17455 6.33075 7.77312 6.33075Z" fill="#FF6700"/>
<path d="M7.05426 4.87866C7.05426 4.49413 7.37385 4.16021 7.78221 4.16021C8.18167 4.16021 8.50129 4.49417 8.50129 4.87866C8.50129 5.26318 8.1817 5.60724 7.78221 5.60724C7.37385 5.60724 7.05426 5.26318 7.05426 4.87866Z" fill="#FF6700"/>
<path fill-rule="evenodd" clip-rule="evenodd" d="M0 7.77778C0 3.48223 3.48223 0 7.77778 0C12.0733 0 15.5556 3.48223 15.5556 7.77778C15.5556 12.0733 12.0733 15.5556 7.77778 15.5556C3.48223 15.5556 0 12.0733 0 7.77778ZM14.4703 7.77778C14.4703 4.08161 11.4739 1.08527 7.77778 1.08527C4.08161 1.08527 1.08527 4.08161 1.08527 7.77778C1.08527 11.4739 4.08161 14.4703 7.77778 14.4703C11.4739 14.4703 14.4703 11.4739 14.4703 7.77778Z" fill="#FF6700"/>
<path d="M7.77312 6.33075C7.35299 6.33075 7.05426 6.53292 7.05426 6.83084V10.8846C7.05426 11.14 7.35302 11.3953 7.77312 11.3953C8.17455 11.3953 8.50129 11.14 8.50129 10.8846V6.83084C8.50129 6.53292 8.17455 6.33075 7.77312 6.33075Z" fill="#FF6700"/>
<path d="M7.05426 4.87866C7.05426 4.49413 7.37385 4.16021 7.78221 4.16021C8.18167 4.16021 8.50129 4.49417 8.50129 4.87866C8.50129 5.26318 8.1817 5.60724 7.78221 5.60724C7.37385 5.60724 7.05426 5.26318 7.05426 4.87866Z" fill="#FF6700"/>
<path fill-rule="evenodd" clip-rule="evenodd" d="M0 7.77778C0 3.48223 3.48223 0 7.77778 0C12.0733 0 15.5556 3.48223 15.5556 7.77778C15.5556 12.0733 12.0733 15.5556 7.77778 15.5556C3.48223 15.5556 0 12.0733 0 7.77778ZM14.4703 7.77778C14.4703 4.08161 11.4739 1.08527 7.77778 1.08527C4.08161 1.08527 1.08527 4.08161 1.08527 7.77778C1.08527 11.4739 4.08161 14.4703 7.77778 14.4703C11.4739 14.4703 14.4703 11.4739 14.4703 7.77778Z" fill="#FF6700"/>
</svg>
