<svg width="14" height="16" viewBox="0 0 14 16" fill="none" xmlns="http://www.w3.org/2000/svg">
<path d="M11.054 1.42683L6.87733 0.0341605C6.74058 -0.0113868 6.59275 -0.0113868 6.456 0.0341605L2.27934 1.42683C1.61527 1.64741 1.03761 2.07167 0.62843 2.6393C0.219249 3.20694 -0.000641116 3.88909 1.40408e-06 4.58883V8.00016C1.40408e-06 13.0422 6.13333 15.8268 6.396 15.9428C6.48122 15.9807 6.57342 16.0002 6.66667 16.0002C6.75991 16.0002 6.85212 15.9807 6.93734 15.9428C7.2 15.8268 13.3333 13.0422 13.3333 8.00016V4.58883C13.334 3.88909 13.1141 3.20694 12.7049 2.6393C12.2957 2.07167 11.7181 1.64741 11.054 1.42683ZM9.812 6.47816L6.964 9.32616C6.84746 9.44349 6.70877 9.53649 6.55599 9.59978C6.4032 9.66306 6.23937 9.69537 6.074 9.69483H6.052C5.88326 9.69224 5.7168 9.65546 5.56268 9.58671C5.40856 9.51796 5.26998 9.41866 5.15533 9.29483L3.618 7.69483C3.55142 7.63306 3.49817 7.55833 3.4615 7.47524C3.42484 7.39215 3.40554 7.30244 3.40479 7.21162C3.40404 7.1208 3.42185 7.03079 3.45714 6.9471C3.49242 6.86342 3.54443 6.78782 3.60998 6.72496C3.67553 6.66209 3.75323 6.61329 3.83832 6.58153C3.92341 6.54977 4.01409 6.53573 4.10479 6.54028C4.1955 6.54482 4.28432 6.56785 4.36581 6.60796C4.4473 6.64806 4.51973 6.70439 4.57867 6.77349L6.07467 8.33349L8.86667 5.53349C8.9924 5.41206 9.1608 5.34486 9.3356 5.34638C9.5104 5.3479 9.67761 5.41801 9.80121 5.54162C9.92482 5.66522 9.99493 5.83243 9.99645 6.00723C9.99797 6.18202 9.93077 6.35043 9.80934 6.47616L9.812 6.47816Z" fill="#089E86"/>
</svg>
