<svg width="20" height="20" viewBox="0 0 20 20" fill="none" xmlns="http://www.w3.org/2000/svg">
<path fill-rule="evenodd" clip-rule="evenodd" d="M0.382035 0.382035C0.891414 -0.127345 1.71728 -0.127345 2.22666 0.382035L10 8.15537L17.7733 0.382035C18.2827 -0.127345 19.1086 -0.127345 19.618 0.382035C20.1273 0.891414 20.1273 1.71728 19.618 2.22666L11.8446 10L19.618 17.7733C20.1273 18.2827 20.1273 19.1086 19.618 19.618C19.1086 20.1273 18.2827 20.1273 17.7733 19.618L10 11.8446L2.22666 19.618C1.71728 20.1273 0.891414 20.1273 0.382035 19.618C-0.127345 19.1086 -0.127345 18.2827 0.382035 17.7733L8.15537 10L0.382035 2.22666C-0.127345 1.71728 -0.127345 0.891414 0.382035 0.382035Z" fill="white"/>
</svg>
